{"glyphs":{"0":{"ha":833,"x_min":65,"x_max":768,"o":"m 417 -17 q 260 17 326 -17 q 150 115 193 51 q 86 272 107 179 q 65 485 65 365 q 86 697 65 603 q 150 854 107 790 q 260 952 193 918 q 417 986 326 986 q 683 854 597 986 q 768 485 768 722 q 683 115 768 247 q 417 -17 597 -17 m 417 117 q 502 137 467 117 q 560 194 538 157 q 592 284 582 232 q 601 400 601 336 l 601 569 q 592 685 601 633 q 560 775 582 738 q 502 833 538 813 q 417 853 467 853 q 331 833 367 853 q 274 775 296 813 q 242 685 251 738 q 232 569 232 633 l 232 400 q 242 284 232 336 q 274 194 251 232 q 331 137 296 157 q 417 117 367 117 z "},"1":{"ha":833,"x_min":63,"x_max":785,"o":"m 122 0 l 122 131 l 394 131 l 394 856 l 383 856 l 158 615 l 63 701 l 310 969 l 549 969 l 549 131 l 785 131 l 785 0 l 122 0 z "},"2":{"ha":833,"x_min":79,"x_max":751,"o":"m 751 0 l 93 0 l 93 150 l 403 426 q 516 553 476 493 q 556 681 556 614 l 556 699 q 513 810 556 769 q 399 850 471 850 q 328 838 358 850 q 276 806 299 826 q 240 757 254 785 q 217 697 225 729 l 79 750 q 121 838 94 796 q 188 914 147 881 q 283 967 228 947 q 411 986 338 986 q 543 965 485 986 q 641 905 601 943 q 701 814 681 867 q 722 699 722 761 q 704 590 722 640 q 654 496 686 540 q 580 411 622 451 q 490 329 538 371 l 263 133 l 751 133 l 751 0 z "},"3":{"ha":833,"x_min":44,"x_max":722,"o":"m 364 571 q 497 609 454 571 q 540 707 540 647 l 540 717 q 499 819 540 783 q 386 854 457 854 q 268 823 317 854 q 186 736 219 792 l 82 826 q 132 888 104 858 q 197 938 160 917 q 282 973 235 960 q 390 986 329 986 q 517 969 458 986 q 617 920 575 953 q 682 841 658 888 q 706 736 706 794 q 691 653 706 690 q 651 587 676 615 q 591 540 625 558 q 519 514 557 522 l 519 507 q 598 480 561 499 q 663 431 635 461 q 706 360 690 401 q 722 267 722 319 q 697 151 722 203 q 627 61 672 99 q 518 3 582 24 q 376 -17 454 -17 q 257 -2 308 -17 q 166 37 206 13 q 97 92 126 61 q 44 157 67 124 l 160 247 q 198 194 178 218 q 244 152 218 169 q 302 125 269 135 q 376 115 335 115 q 513 158 465 115 q 560 275 560 200 l 560 285 q 510 399 560 360 q 368 438 460 438 l 265 438 l 265 571 l 364 571 z "},"4":{"ha":833,"x_min":49,"x_max":779,"o":"m 499 0 l 499 189 l 49 189 l 49 324 l 442 969 l 647 969 l 647 313 l 779 313 l 779 189 l 647 189 l 647 0 l 499 0 m 182 313 l 499 313 l 499 826 l 489 826 l 182 313 z "},"5":{"ha":833,"x_min":89,"x_max":756,"o":"m 706 833 l 275 833 l 250 490 l 260 490 q 294 542 276 519 q 336 582 313 565 q 390 608 360 599 q 463 617 421 617 q 578 596 525 617 q 672 536 632 575 q 733 441 711 497 q 756 314 756 385 q 733 181 756 242 q 665 76 710 119 q 556 8 621 32 q 410 -17 492 -17 q 294 -2 344 -17 q 206 37 244 13 q 140 92 168 61 q 89 157 111 124 l 203 247 q 240 194 221 218 q 285 153 260 171 q 341 125 310 135 q 413 115 372 115 q 545 163 499 115 q 592 293 592 210 l 592 310 q 545 440 592 393 q 413 488 499 488 q 313 464 350 488 q 249 411 275 440 l 119 429 l 156 969 l 706 969 l 706 833 z "},"6":{"ha":833,"x_min":78,"x_max":760,"o":"m 419 -17 q 276 10 339 -17 q 169 85 213 36 q 101 204 125 135 q 78 361 78 274 q 110 560 78 467 q 192 731 142 653 q 303 869 242 808 q 425 969 365 929 l 633 969 q 486 854 551 910 q 372 740 421 799 q 291 617 324 682 q 240 474 258 551 l 250 471 q 285 526 265 500 q 333 571 306 551 q 394 601 360 590 q 475 613 429 613 q 588 592 536 613 q 678 531 640 571 q 738 436 717 492 q 760 313 760 381 q 735 178 760 239 q 667 75 711 118 q 559 8 622 32 q 419 -17 496 -17 m 419 111 q 551 156 504 111 q 599 289 599 201 l 599 308 q 551 441 599 396 q 419 486 504 486 q 288 441 335 486 q 240 308 240 396 l 240 289 q 288 156 240 201 q 419 111 335 111 z "},"7":{"ha":833,"x_min":88,"x_max":744,"o":"m 238 0 l 589 840 l 222 840 l 222 661 l 88 661 l 88 969 l 744 969 l 744 833 l 403 0 l 238 0 z "},"8":{"ha":833,"x_min":69,"x_max":764,"o":"m 417 -17 q 267 5 332 -17 q 159 64 203 26 q 92 153 115 101 q 69 264 69 204 q 123 420 69 361 q 264 503 176 479 l 264 514 q 144 597 189 540 q 99 738 99 654 q 120 839 99 793 q 182 917 142 885 q 282 968 222 950 q 417 986 342 986 q 551 968 492 986 q 651 917 611 950 q 713 839 692 885 q 735 738 735 793 q 690 597 735 654 q 569 514 644 540 l 569 503 q 710 420 657 479 q 764 264 764 361 q 741 153 764 204 q 674 64 718 101 q 566 5 631 26 q 417 -17 501 -17 m 417 110 q 552 150 504 110 q 600 263 600 190 l 600 290 q 552 403 600 363 q 417 443 504 443 q 281 403 329 443 q 233 290 233 363 l 233 263 q 281 150 233 190 q 417 110 329 110 m 417 564 q 540 599 497 564 q 582 700 582 633 l 582 724 q 540 825 582 790 q 417 860 497 860 q 294 825 336 860 q 251 724 251 790 l 251 700 q 294 599 251 633 q 417 564 336 564 z "},"9":{"ha":833,"x_min":74,"x_max":756,"o":"m 756 608 q 724 410 756 503 q 642 239 692 317 q 530 100 592 161 q 408 0 468 39 l 200 0 q 347 115 282 60 q 461 229 413 171 q 542 353 510 288 q 593 496 575 418 l 583 499 q 548 444 568 469 q 501 399 528 418 q 439 368 474 379 q 358 357 404 357 q 245 378 297 357 q 155 438 193 399 q 95 533 117 478 q 74 657 74 588 q 98 790 74 729 q 167 894 122 851 q 274 962 211 938 q 414 986 336 986 q 558 960 494 986 q 665 884 621 933 q 732 765 708 835 q 756 608 756 696 m 414 483 q 546 528 499 483 q 593 661 593 574 l 593 681 q 546 813 593 768 q 414 858 499 858 q 282 813 329 858 q 235 681 235 768 l 235 661 q 282 528 235 574 q 414 483 329 483 z "},"\u0000":{"ha":0,"x_min":0,"x_max":0,"o":""},"\r":{"ha":328,"x_min":0,"x_max":0,"o":""}," ":{"ha":328,"x_min":0,"x_max":0,"o":""},"a":{"ha":763,"x_min":56,"x_max":722,"o":"m 638 0 q 546 34 578 0 q 507 121 514 68 l 500 121 q 424 18 479 53 q 289 -17 368 -17 q 116 42 176 -17 q 56 199 56 100 q 134 361 56 307 q 364 415 213 415 l 494 415 l 494 476 q 458 579 494 543 q 346 615 422 615 q 242 588 282 615 q 174 517 201 560 l 83 599 q 185 699 119 660 q 356 739 250 739 q 571 674 496 739 q 646 486 646 608 l 646 124 l 722 124 l 722 0 l 638 0 m 332 99 q 449 130 403 99 q 494 214 494 161 l 494 318 l 367 318 q 210 221 210 318 l 210 196 q 242 123 210 147 q 332 99 275 99 z "},"b":{"ha":822,"x_min":108,"x_max":757,"o":"m 108 1028 l 260 1028 l 260 603 l 267 603 q 344 703 290 668 q 469 739 397 739 q 682 640 607 739 q 757 361 757 540 q 682 83 757 182 q 469 -17 607 -17 q 344 19 397 -17 q 267 119 290 56 l 260 119 l 260 0 l 108 0 l 108 1028 m 424 114 q 550 165 503 114 q 597 299 597 215 l 597 424 q 550 558 597 507 q 424 608 503 608 q 307 574 354 608 q 260 485 260 540 l 260 238 q 307 148 260 182 q 424 114 354 114 z "},"c":{"ha":708,"x_min":60,"x_max":672,"o":"m 388 -17 q 249 10 310 -17 q 146 85 188 36 q 82 205 104 135 q 60 361 60 275 q 82 517 60 447 q 146 637 104 588 q 249 713 188 686 q 388 739 310 739 q 565 690 496 739 q 667 561 635 642 l 542 503 q 488 583 526 553 q 388 613 450 613 q 262 560 304 613 q 219 425 219 508 l 219 296 q 262 160 219 213 q 388 108 304 108 q 494 141 454 108 q 557 228 533 174 l 672 167 q 564 31 636 78 q 388 -17 492 -17 z "},"d":{"ha":822,"x_min":65,"x_max":714,"o":"m 563 119 l 556 119 q 478 19 532 56 q 353 -17 425 -17 q 140 83 215 -17 q 65 361 65 182 q 140 640 65 540 q 353 739 215 739 q 478 703 425 739 q 556 603 532 668 l 563 603 l 563 1028 l 714 1028 l 714 0 l 563 0 l 563 119 m 399 114 q 515 148 468 114 q 563 238 563 182 l 563 485 q 515 574 563 540 q 399 608 468 608 q 272 558 319 608 q 225 424 225 507 l 225 299 q 272 165 225 215 q 399 114 319 114 z "},"e":{"ha":772,"x_min":60,"x_max":713,"o":"m 392 -17 q 253 10 314 -17 q 149 85 192 36 q 83 205 106 135 q 60 361 60 275 q 83 517 60 447 q 149 637 106 588 q 253 713 192 686 q 392 739 314 739 q 531 711 471 739 q 632 634 592 683 q 692 519 672 585 q 713 379 713 454 l 713 322 l 217 322 l 217 299 q 266 162 217 215 q 407 108 315 108 q 519 138 474 108 q 597 217 565 167 l 686 129 q 569 23 646 63 q 392 -17 493 -17 m 392 621 q 320 607 353 621 q 265 568 288 593 q 229 508 242 543 q 217 432 217 474 l 217 422 l 553 422 l 553 436 q 510 570 553 519 q 392 621 467 621 z "},"f":{"ha":472,"x_min":36,"x_max":449,"o":"m 146 599 l 36 599 l 36 722 l 146 722 l 146 842 q 192 978 146 929 q 329 1028 238 1028 l 449 1028 l 449 904 l 297 904 l 297 722 l 449 722 l 449 599 l 297 599 l 297 0 l 146 0 l 146 599 z "},"g":{"ha":746,"x_min":47,"x_max":742,"o":"m 742 -68 q 656 -237 742 -181 q 375 -294 569 -294 q 224 -283 286 -294 q 123 -249 163 -271 q 65 -194 83 -226 q 47 -121 47 -162 q 80 -28 47 -61 q 171 18 113 6 l 171 33 q 89 144 89 60 q 126 230 89 200 q 217 272 164 260 l 217 278 q 119 363 153 308 q 85 492 85 418 q 159 671 85 603 q 372 739 233 739 q 503 717 449 739 l 503 736 q 526 812 503 785 q 597 839 549 839 l 708 839 l 708 717 l 561 717 l 561 688 q 636 605 610 656 q 663 492 663 554 q 588 315 663 382 q 374 247 513 247 q 279 258 321 247 q 231 231 251 249 q 210 186 210 214 q 236 144 210 157 q 311 132 263 132 l 489 132 q 682 78 622 132 q 742 -68 742 25 m 600 -85 q 572 -25 600 -47 q 468 -3 543 -3 l 224 -3 q 174 -86 174 -32 q 209 -158 174 -131 q 329 -185 244 -185 l 424 -185 q 600 -85 600 -185 m 374 357 q 477 387 440 357 q 514 479 514 417 l 514 507 q 477 599 514 569 q 374 629 440 629 q 270 599 307 629 q 233 507 233 569 l 233 479 q 270 387 233 417 q 374 357 307 357 z "},"h":{"ha":806,"x_min":108,"x_max":704,"o":"m 108 1028 l 260 1028 l 260 603 l 267 603 q 338 700 290 661 q 469 739 386 739 q 642 666 581 739 q 704 458 704 593 l 704 0 l 553 0 l 553 440 q 417 608 553 608 q 359 601 388 608 q 308 578 331 593 q 273 539 286 563 q 260 485 260 515 l 260 0 l 108 0 l 108 1028 z "},"i":{"ha":368,"x_min":94,"x_max":274,"o":"m 185 851 q 116 874 138 851 q 94 931 94 896 l 94 954 q 116 1011 94 989 q 185 1033 138 1033 q 253 1011 232 1033 q 274 954 274 989 l 274 931 q 253 874 274 896 q 185 851 232 851 m 108 722 l 260 722 l 260 0 l 108 0 l 108 722 z "},"j":{"ha":368,"x_min":-4,"x_max":274,"o":"m 108 722 l 260 722 l 260 -97 q 217 -229 260 -181 q 83 -278 175 -278 l -4 -278 l -4 -154 l 108 -154 l 108 722 m 185 851 q 116 874 138 851 q 94 931 94 896 l 94 954 q 116 1011 94 989 q 185 1033 138 1033 q 253 1011 232 1033 q 274 954 274 989 l 274 931 q 253 874 274 896 q 185 851 232 851 z "},"k":{"ha":760,"x_min":108,"x_max":747,"o":"m 108 1028 l 260 1028 l 260 397 l 267 397 l 367 526 l 540 722 l 717 722 l 464 443 l 747 0 l 567 0 l 360 344 l 260 236 l 260 0 l 108 0 l 108 1028 z "},"l":{"ha":396,"x_min":108,"x_max":360,"o":"m 263 0 q 147 40 185 0 q 108 150 108 79 l 108 1028 l 260 1028 l 260 124 l 360 124 l 360 0 l 263 0 z "},"m":{"ha":1225,"x_min":108,"x_max":1124,"o":"m 108 0 l 108 722 l 260 722 l 260 603 l 267 603 q 294 656 278 631 q 333 699 310 681 q 387 728 356 718 q 460 739 418 739 q 590 703 533 739 q 674 592 647 667 l 678 592 q 753 696 697 653 q 896 739 808 739 q 1064 666 1004 739 q 1124 458 1124 593 l 1124 0 l 972 0 l 972 440 q 940 566 972 524 q 839 608 908 608 q 783 601 810 608 q 737 578 757 593 q 704 539 717 563 q 692 485 692 515 l 692 0 l 540 0 l 540 440 q 408 608 540 608 q 353 601 381 608 q 306 578 326 593 q 272 539 285 563 q 260 485 260 515 l 260 0 l 108 0 z "},"n":{"ha":806,"x_min":108,"x_max":704,"o":"m 108 0 l 108 722 l 260 722 l 260 603 l 267 603 q 338 700 290 661 q 469 739 386 739 q 642 666 581 739 q 704 458 704 593 l 704 0 l 553 0 l 553 439 q 417 608 553 608 q 359 601 388 608 q 308 578 331 593 q 273 539 286 563 q 260 483 260 515 l 260 0 l 108 0 z "},"o":{"ha":783,"x_min":60,"x_max":724,"o":"m 392 -17 q 255 10 317 -17 q 150 85 193 36 q 83 205 107 135 q 60 361 60 275 q 83 517 60 447 q 150 637 107 588 q 255 713 193 686 q 392 739 317 739 q 528 713 467 739 q 633 637 590 686 q 700 517 676 588 q 724 361 724 447 q 700 205 724 275 q 633 85 676 135 q 528 10 590 36 q 392 -17 467 -17 m 392 108 q 517 156 469 108 q 564 300 564 204 l 564 422 q 517 566 564 518 q 392 614 469 614 q 267 566 314 614 q 219 422 219 518 l 219 300 q 267 156 219 204 q 392 108 314 108 z "},"p":{"ha":822,"x_min":108,"x_max":757,"o":"m 108 722 l 260 722 l 260 603 l 267 603 q 344 703 290 668 q 469 739 397 739 q 682 640 607 739 q 757 361 757 540 q 682 83 757 182 q 469 -17 607 -17 q 344 19 397 -17 q 267 119 290 56 l 260 119 l 260 -278 l 108 -278 l 108 722 m 424 114 q 550 165 503 114 q 597 299 597 215 l 597 424 q 550 558 597 507 q 424 608 503 608 q 307 574 354 608 q 260 485 260 540 l 260 238 q 307 148 260 182 q 424 114 354 114 z "},"q":{"ha":822,"x_min":65,"x_max":714,"o":"m 563 119 l 556 119 q 478 19 532 56 q 353 -17 425 -17 q 140 83 215 -17 q 65 361 65 182 q 140 640 65 540 q 353 739 215 739 q 478 703 425 739 q 556 603 532 668 l 563 603 l 563 722 l 714 722 l 714 -278 l 563 -278 l 563 119 m 399 114 q 515 148 468 114 q 563 238 563 182 l 563 485 q 515 574 563 540 q 399 608 468 608 q 272 558 319 608 q 225 424 225 507 l 225 299 q 272 165 225 215 q 399 114 319 114 z "},"r":{"ha":532,"x_min":108,"x_max":506,"o":"m 108 0 l 108 722 l 260 722 l 260 583 l 267 583 q 331 681 282 639 q 465 722 379 722 l 506 722 l 506 576 l 446 576 q 308 547 356 576 q 260 461 260 518 l 260 0 l 108 0 z "},"s":{"ha":686,"x_min":44,"x_max":624,"o":"m 338 -17 q 165 19 235 -17 q 44 119 96 56 l 142 208 q 231 133 182 160 q 346 106 281 106 q 445 131 413 106 q 478 203 478 157 q 455 262 478 238 q 375 293 432 286 l 308 301 q 134 366 197 315 q 71 517 71 417 q 90 610 71 569 q 145 680 110 651 q 230 724 181 708 q 339 739 279 739 q 498 708 436 739 q 608 624 560 678 l 515 535 q 442 592 488 568 q 339 617 397 617 q 247 592 276 617 q 217 526 217 567 q 243 464 217 485 q 328 433 269 443 l 394 425 q 569 355 514 407 q 624 215 624 303 q 603 120 624 163 q 546 47 583 78 q 456 0 508 17 q 338 -17 403 -17 z "},"t":{"ha":507,"x_min":36,"x_max":451,"o":"m 308 0 q 189 41 229 0 q 149 157 149 82 l 149 599 l 36 599 l 36 722 l 97 722 q 149 739 135 722 q 164 793 164 756 l 164 919 l 300 919 l 300 722 l 451 722 l 451 599 l 300 599 l 300 124 l 440 124 l 440 0 l 308 0 z "},"u":{"ha":806,"x_min":101,"x_max":697,"o":"m 546 119 l 540 119 q 515 68 531 93 q 474 24 499 43 q 416 -6 450 6 q 338 -17 382 -17 q 163 56 225 -17 q 101 263 101 128 l 101 722 l 253 722 l 253 282 q 392 114 253 114 q 449 122 421 114 q 498 144 476 129 q 533 183 519 160 q 546 239 546 207 l 546 722 l 697 722 l 697 0 l 546 0 l 546 119 z "},"v":{"ha":711,"x_min":19,"x_max":692,"o":"m 265 0 l 19 722 l 169 722 l 279 393 l 353 140 l 361 140 l 435 393 l 547 722 l 692 722 l 443 0 l 265 0 z "},"w":{"ha":1110,"x_min":36,"x_max":1074,"o":"m 36 722 l 183 722 l 257 419 l 322 146 l 326 146 l 401 419 l 489 722 l 625 722 l 714 419 l 790 146 l 794 146 l 858 419 l 933 722 l 1074 722 l 879 0 l 708 0 l 614 329 l 556 532 l 553 532 l 496 329 l 400 0 l 233 0 l 36 722 z "},"x":{"ha":736,"x_min":28,"x_max":708,"o":"m 28 0 l 282 365 l 35 722 l 210 722 l 372 471 l 376 471 l 543 722 l 704 722 l 457 367 l 708 0 l 533 0 l 367 263 l 363 263 l 189 0 l 28 0 z "},"y":{"ha":714,"x_min":17,"x_max":697,"o":"m 551 722 l 697 722 l 393 -143 q 365 -205 381 -179 q 327 -247 349 -231 q 275 -270 306 -262 q 203 -278 244 -278 l 115 -278 l 115 -154 l 238 -154 l 279 -32 l 17 722 l 168 722 l 313 297 l 354 140 l 361 140 l 407 297 l 551 722 z "},"z":{"ha":676,"x_min":50,"x_max":626,"o":"m 50 0 l 50 122 l 438 599 l 63 599 l 63 722 l 617 722 l 617 606 l 224 124 l 626 124 l 626 0 l 50 0 z "},"A":{"ha":919,"x_min":31,"x_max":889,"o":"m 725 0 l 638 263 l 275 263 l 190 0 l 31 0 l 361 969 l 558 969 l 889 0 l 725 0 m 460 825 l 453 825 l 313 397 l 599 397 l 460 825 z "},"B":{"ha":915,"x_min":119,"x_max":842,"o":"m 119 969 l 549 969 q 738 901 669 969 q 807 719 807 833 q 792 627 807 665 q 753 565 776 589 q 699 528 729 540 q 639 514 668 517 l 639 506 q 703 492 668 504 q 769 452 739 479 q 821 383 800 425 q 842 279 842 340 q 823 169 842 221 q 771 81 804 118 q 692 22 738 43 q 592 0 646 0 l 119 0 l 119 969 m 276 135 l 546 135 q 642 167 607 135 q 676 258 676 199 l 676 306 q 642 397 676 365 q 546 429 607 429 l 276 429 l 276 135 m 276 560 l 519 560 q 610 590 578 560 q 642 675 642 619 l 642 719 q 610 805 642 775 q 519 835 578 835 l 276 835 l 276 560 z "},"C":{"ha":881,"x_min":76,"x_max":833,"o":"m 483 -17 q 185 112 293 -17 q 76 485 76 240 q 104 700 76 607 q 185 857 132 793 q 313 953 238 921 q 483 986 389 986 q 695 931 610 986 q 829 767 781 875 l 697 694 q 620 805 672 764 q 483 846 568 846 q 307 769 371 846 q 243 558 243 693 l 243 411 q 307 200 243 276 q 483 124 371 124 q 626 169 571 124 q 707 285 681 214 l 833 208 q 697 43 785 103 q 483 -17 610 -17 z "},"D":{"ha":949,"x_min":119,"x_max":872,"o":"m 119 969 l 463 969 q 631 939 556 969 q 760 848 707 908 q 843 697 814 788 q 872 485 872 606 q 843 273 872 364 q 760 122 814 182 q 631 31 707 61 q 463 0 556 0 l 119 0 l 119 969 m 463 139 q 638 207 571 139 q 704 407 704 275 l 704 563 q 638 763 704 694 q 463 831 571 831 l 276 831 l 276 139 l 463 139 z "},"E":{"ha":824,"x_min":119,"x_max":740,"o":"m 119 0 l 119 969 l 740 969 l 740 831 l 276 831 l 276 561 l 697 561 l 697 422 l 276 422 l 276 139 l 740 139 l 740 0 l 119 0 z "},"F":{"ha":792,"x_min":119,"x_max":725,"o":"m 119 0 l 119 969 l 725 969 l 725 831 l 276 831 l 276 561 l 675 561 l 675 422 l 276 422 l 276 0 l 119 0 z "},"G":{"ha":979,"x_min":76,"x_max":881,"o":"m 743 147 l 738 147 q 655 30 722 76 q 476 -17 588 -17 q 317 16 390 -17 q 190 112 243 49 q 106 269 136 175 q 76 485 76 363 q 107 699 76 606 q 193 857 138 793 q 326 953 249 921 q 500 986 404 986 q 721 928 631 986 q 861 768 811 871 l 733 693 q 647 803 706 761 q 500 846 589 846 q 315 772 385 846 q 244 564 244 699 l 244 406 q 315 197 244 271 q 500 124 385 124 q 588 135 546 124 q 660 170 629 147 q 710 227 692 193 q 729 307 729 261 l 729 382 l 529 382 l 529 517 l 881 517 l 881 0 l 743 0 l 743 147 z "},"H":{"ha":992,"x_min":119,"x_max":872,"o":"m 715 422 l 276 422 l 276 0 l 119 0 l 119 969 l 276 969 l 276 561 l 715 561 l 715 969 l 872 969 l 872 0 l 715 0 l 715 422 z "},"I":{"ha":578,"x_min":78,"x_max":500,"o":"m 78 0 l 78 128 l 210 128 l 210 842 l 78 842 l 78 969 l 500 969 l 500 842 l 367 842 l 367 128 l 500 128 l 500 0 l 78 0 z "},"J":{"ha":738,"x_min":38,"x_max":624,"o":"m 624 969 l 624 264 q 603 149 624 200 q 544 60 582 97 q 451 3 506 24 q 329 -17 396 -17 q 130 51 203 -17 q 38 226 57 118 l 182 258 q 230 160 194 196 q 329 124 265 124 q 429 163 392 124 q 467 281 467 201 l 467 839 l 150 839 l 150 969 l 624 969 z "},"K":{"ha":917,"x_min":119,"x_max":893,"o":"m 410 453 l 276 300 l 276 0 l 119 0 l 119 969 l 276 969 l 276 478 l 282 478 l 421 654 l 682 969 l 865 969 l 519 561 l 893 0 l 704 0 l 410 453 z "},"L":{"ha":713,"x_min":119,"x_max":671,"o":"m 119 0 l 119 969 l 276 969 l 276 139 l 671 139 l 671 0 l 119 0 z "},"M":{"ha":1131,"x_min":119,"x_max":1011,"o":"m 861 742 l 854 742 l 778 585 l 565 197 l 353 585 l 276 742 l 269 742 l 269 0 l 119 0 l 119 969 l 306 969 l 565 476 l 574 476 l 833 969 l 1011 969 l 1011 0 l 861 0 l 861 742 z "},"N":{"ha":992,"x_min":119,"x_max":872,"o":"m 381 536 l 274 742 l 269 742 l 269 0 l 119 0 l 119 969 l 294 969 l 611 433 l 718 228 l 722 228 l 722 969 l 872 969 l 872 0 l 697 0 l 381 536 z "},"O":{"ha":989,"x_min":76,"x_max":913,"o":"m 494 -17 q 323 16 400 -17 q 191 112 246 49 q 106 269 136 175 q 76 485 76 363 q 106 701 76 607 q 191 858 136 794 q 323 953 246 921 q 494 986 400 986 q 666 953 589 986 q 798 858 743 921 q 883 701 853 794 q 913 485 913 607 q 883 269 913 363 q 798 112 853 175 q 666 16 743 49 q 494 -17 589 -17 m 494 124 q 597 143 550 124 q 676 199 643 163 q 726 289 708 236 q 744 408 744 342 l 744 561 q 726 681 744 628 q 676 770 708 733 q 597 826 643 807 q 494 846 550 846 q 392 826 438 846 q 313 770 346 807 q 263 681 281 733 q 244 561 244 628 l 244 408 q 263 289 244 342 q 313 199 281 236 q 392 143 346 163 q 494 124 438 124 z "},"P":{"ha":871,"x_min":119,"x_max":818,"o":"m 119 0 l 119 969 l 536 969 q 744 890 671 969 q 818 678 818 811 q 744 465 818 544 q 536 386 671 386 l 276 386 l 276 0 l 119 0 m 276 524 l 526 524 q 619 555 586 524 q 653 644 653 586 l 653 711 q 619 801 653 769 q 526 832 586 832 l 276 832 l 276 524 z "},"Q":{"ha":989,"x_min":76,"x_max":913,"o":"m 726 -240 l 589 -240 q 469 -199 507 -240 q 431 -86 431 -157 l 431 -12 q 283 35 349 -3 q 172 135 218 72 q 101 285 126 197 q 76 485 76 374 q 106 701 76 607 q 191 858 136 794 q 323 953 246 921 q 494 986 400 986 q 666 953 589 986 q 798 858 743 921 q 883 701 853 794 q 913 485 913 607 q 822 142 913 268 q 578 -10 732 17 l 578 -110 l 726 -110 l 726 -240 m 494 124 q 597 143 550 124 q 676 199 643 163 q 726 289 708 236 q 744 408 744 342 l 744 561 q 726 681 744 628 q 676 770 708 733 q 597 826 643 807 q 494 846 550 846 q 392 826 438 846 q 313 770 346 807 q 263 681 281 733 q 244 561 244 628 l 244 408 q 263 289 244 342 q 313 199 281 236 q 392 143 346 163 q 494 124 438 124 z "},"R":{"ha":910,"x_min":119,"x_max":839,"o":"m 276 0 l 119 0 l 119 969 l 538 969 q 743 891 668 969 q 818 678 818 813 q 770 505 818 574 q 629 408 722 436 l 839 0 l 664 0 l 469 392 l 276 392 l 276 0 m 526 524 q 619 555 586 524 q 653 644 653 586 l 653 711 q 619 801 653 769 q 526 832 586 832 l 276 832 l 276 524 l 526 524 z "},"S":{"ha":831,"x_min":56,"x_max":761,"o":"m 410 -17 q 202 28 288 -17 q 56 147 117 72 l 164 249 q 277 154 215 186 q 418 122 339 122 q 558 164 511 122 q 606 276 606 206 q 572 367 606 333 q 454 417 539 400 l 368 432 q 156 525 226 458 q 85 708 85 592 q 109 824 85 772 q 177 912 133 876 q 283 967 221 947 q 424 986 346 986 q 614 948 533 986 q 751 838 694 910 l 642 740 q 550 818 604 789 q 415 847 496 847 q 286 814 332 847 q 240 717 240 781 q 278 626 240 656 q 394 581 315 596 l 481 563 q 694 468 626 535 q 761 285 761 401 q 738 161 761 217 q 669 66 714 106 q 558 5 624 26 q 410 -17 493 -17 z "},"T":{"ha":801,"x_min":33,"x_max":768,"o":"m 479 831 l 479 0 l 322 0 l 322 831 l 33 831 l 33 969 l 768 969 l 768 831 l 479 831 z "},"U":{"ha":953,"x_min":114,"x_max":839,"o":"m 268 969 l 268 372 q 315 186 268 249 q 476 124 363 124 q 638 186 590 124 q 685 372 685 249 l 685 969 l 839 969 l 839 397 q 819 213 839 290 q 757 84 800 135 q 645 8 714 33 q 476 -17 576 -17 q 308 8 376 -17 q 196 84 239 33 q 133 213 153 135 q 114 397 114 290 l 114 969 l 268 969 z "},"V":{"ha":872,"x_min":25,"x_max":847,"o":"m 343 0 l 25 969 l 188 969 l 342 490 l 435 153 l 440 153 l 535 490 l 689 969 l 847 969 l 525 0 l 343 0 z "},"W":{"ha":1286,"x_min":33,"x_max":1253,"o":"m 263 0 l 33 969 l 193 969 l 292 503 l 360 181 l 364 181 l 442 503 l 557 969 l 732 969 l 846 503 l 922 182 l 926 182 l 997 503 l 1099 969 l 1253 969 l 1014 0 l 838 0 l 714 501 l 642 796 l 639 796 l 565 501 l 439 0 l 263 0 z "},"X":{"ha":888,"x_min":29,"x_max":858,"o":"m 858 0 l 674 0 l 439 386 l 435 386 l 203 0 l 29 0 l 343 496 l 40 969 l 225 969 l 446 608 l 449 608 l 672 969 l 846 969 l 540 497 l 858 0 z "},"Y":{"ha":857,"x_min":15,"x_max":842,"o":"m 349 0 l 349 382 l 15 969 l 194 969 l 431 538 l 435 538 l 669 969 l 842 969 l 506 385 l 506 0 l 349 0 z "},"Z":{"ha":821,"x_min":51,"x_max":769,"o":"m 769 0 l 51 0 l 51 140 l 578 831 l 79 831 l 79 969 l 754 969 l 754 829 l 228 139 l 769 139 l 769 0 z "},"&":{"ha":982,"x_min":88,"x_max":958,"o":"m 679 99 q 635 60 661 81 q 576 23 610 40 q 498 -6 542 6 q 399 -17 454 -17 q 265 4 324 -17 q 167 61 207 25 q 108 147 128 97 q 88 253 88 196 q 103 345 88 304 q 147 419 119 386 q 209 477 174 451 q 285 525 244 503 q 207 631 239 574 q 175 753 175 688 q 194 844 175 801 q 247 919 213 888 q 331 968 282 950 q 440 986 381 986 q 543 971 496 986 q 625 928 590 956 q 678 860 660 900 q 697 772 697 821 q 681 687 697 725 q 635 617 664 649 q 567 559 606 586 q 486 507 529 532 l 675 303 q 706 408 694 353 q 719 521 717 464 l 926 521 l 926 393 l 832 393 q 768 206 811 288 l 958 0 l 769 0 l 679 99 m 440 865 q 356 835 390 865 q 321 757 321 806 l 321 746 q 344 674 321 710 q 410 590 367 638 q 510 662 468 622 q 551 753 551 701 l 551 764 q 521 839 551 813 q 440 865 490 865 m 417 113 q 519 132 475 113 q 597 186 564 151 l 361 440 q 276 375 308 411 q 243 276 243 339 l 243 258 q 289 152 243 192 q 417 113 335 113 z "},"@":{"ha":1244,"x_min":88,"x_max":1160,"o":"m 939 -168 l 629 -168 q 404 -127 504 -168 q 234 -11 304 -86 q 126 169 164 64 q 88 401 88 274 q 126 636 88 529 q 237 820 165 743 q 410 940 308 897 q 638 983 513 983 q 840 951 744 983 q 1006 852 935 918 q 1118 688 1076 786 q 1160 456 1160 589 q 1144 315 1160 379 q 1098 203 1129 250 q 1019 129 1067 156 q 910 103 972 103 q 800 137 839 103 q 756 226 761 171 l 749 226 q 687 136 728 169 q 582 103 646 103 q 493 122 535 103 q 420 177 451 140 q 371 270 389 214 q 353 401 353 326 q 371 533 353 476 q 420 626 389 589 q 493 681 451 663 q 582 700 535 700 q 682 669 646 700 q 733 593 718 638 l 740 593 l 740 688 l 861 688 l 861 285 q 878 221 861 239 q 931 203 896 203 q 1020 263 989 203 q 1051 436 1051 324 l 1051 490 q 1020 653 1051 581 q 933 777 989 726 q 801 856 878 828 q 636 883 725 883 q 456 849 538 883 q 317 756 375 815 q 228 616 260 697 q 196 439 196 535 l 196 369 q 227 192 196 272 q 315 55 258 113 q 452 -35 372 -3 q 631 -67 532 -67 l 939 -67 l 939 -168 m 618 210 q 708 242 676 210 q 740 324 740 274 l 740 490 q 708 565 740 535 q 618 594 676 594 q 521 556 554 594 q 488 456 488 518 l 488 349 q 521 248 488 286 q 618 210 554 210 z "},"-":{"ha":557,"x_min":86,"x_max":471,"o":"m 86 346 l 86 500 l 471 500 l 471 346 l 86 346 z "},"­":{"ha":557,"x_min":86,"x_max":471,"o":"m 86 346 l 86 500 l 471 500 l 471 346 l 86 346 z "},"–":{"ha":817,"x_min":50,"x_max":767,"o":"m 50 357 l 50 488 l 767 488 l 767 357 l 50 357 z "},"—":{"ha":1083,"x_min":50,"x_max":1033,"o":"m 50 357 l 50 488 l 1033 488 l 1033 357 l 50 357 z "},"_":{"ha":779,"x_min":42,"x_max":738,"o":"m 42 -244 l 42 -114 l 738 -114 l 738 -244 l 42 -244 z "},".":{"ha":403,"x_min":100,"x_max":303,"o":"m 201 -17 q 125 10 150 -17 q 100 78 100 38 l 100 99 q 125 166 100 139 q 201 193 150 193 q 278 166 253 193 q 303 99 303 139 l 303 78 q 278 10 303 38 q 201 -17 253 -17 z "},"…":{"ha":1175,"x_min":100,"x_max":1075,"o":"m 201 -17 q 125 10 150 -17 q 100 78 100 38 l 100 99 q 125 166 100 139 q 201 193 150 193 q 278 166 253 193 q 303 99 303 139 l 303 78 q 278 10 303 38 q 201 -17 253 -17 m 586 -17 q 510 10 535 -17 q 485 78 485 38 l 485 99 q 510 166 485 139 q 586 193 535 193 q 663 166 638 193 q 688 99 688 139 l 688 78 q 663 10 688 38 q 586 -17 638 -17 m 974 -17 q 897 10 922 -17 q 872 78 872 38 l 872 99 q 897 166 872 139 q 974 193 922 193 q 1050 166 1025 193 q 1075 99 1075 139 l 1075 78 q 1050 10 1075 38 q 974 -17 1025 -17 z "},":":{"ha":431,"x_min":114,"x_max":317,"o":"m 215 -17 q 139 10 164 -17 q 114 78 114 38 l 114 99 q 139 166 114 139 q 215 193 164 193 q 292 166 267 193 q 317 99 317 139 l 317 78 q 292 10 317 38 q 215 -17 267 -17 m 215 529 q 139 556 164 529 q 114 624 114 583 l 114 644 q 139 712 114 685 q 215 739 164 739 q 292 712 267 739 q 317 644 317 685 l 317 624 q 292 556 317 583 q 215 529 267 529 z "},",":{"ha":403,"x_min":54,"x_max":303,"o":"m 201 193 q 278 167 253 193 q 303 99 303 140 l 303 76 q 266 -66 303 8 q 167 -192 229 -140 l 54 -192 q 128 -106 99 -147 q 172 -12 157 -64 q 118 19 136 -6 q 100 76 100 43 l 100 99 q 125 167 100 140 q 201 193 150 193 z "},";":{"ha":431,"x_min":68,"x_max":317,"o":"m 215 193 q 292 167 267 193 q 317 99 317 140 l 317 76 q 280 -66 317 8 q 181 -192 243 -140 l 68 -192 q 142 -106 113 -147 q 186 -12 171 -64 q 132 19 150 -6 q 114 76 114 43 l 114 99 q 139 167 114 140 q 215 193 164 193 m 215 529 q 139 556 164 529 q 114 624 114 583 l 114 644 q 139 712 114 685 q 215 739 164 739 q 292 712 267 739 q 317 644 317 685 l 317 624 q 292 556 317 583 q 215 529 267 529 z "},"'":{"ha":351,"x_min":108,"x_max":243,"o":"m 108 611 l 108 1028 l 243 1028 l 243 611 l 108 611 z "},"\"":{"ha":626,"x_min":108,"x_max":518,"o":"m 108 611 l 108 1028 l 243 1028 l 243 611 l 108 611 m 383 611 l 383 1028 l 518 1028 l 518 611 l 383 611 z "},"‘":{"ha":394,"x_min":93,"x_max":338,"o":"m 193 651 q 117 676 142 651 q 93 740 93 701 l 93 764 q 103 833 93 797 q 132 904 114 869 q 175 971 150 939 q 231 1028 200 1003 l 338 1028 q 266 944 294 985 q 224 853 238 903 q 276 822 260 846 q 293 765 293 797 l 293 740 q 269 676 293 701 q 193 651 244 651 z "},"’":{"ha":394,"x_min":57,"x_max":301,"o":"m 201 1042 q 278 1017 254 1042 q 301 951 301 992 l 301 928 q 292 859 301 894 q 264 789 282 824 q 221 722 246 754 q 165 665 196 690 l 57 665 q 129 750 101 708 q 172 840 157 792 q 119 871 136 847 q 101 926 101 894 l 101 951 q 125 1017 101 992 q 201 1042 149 1042 z "},"“":{"ha":696,"x_min":93,"x_max":639,"o":"m 193 651 q 117 676 142 651 q 93 740 93 701 l 93 764 q 103 833 93 797 q 132 904 114 869 q 175 971 150 939 q 231 1028 200 1003 l 338 1028 q 266 944 294 985 q 224 853 238 903 q 276 822 260 846 q 293 765 293 797 l 293 740 q 269 676 293 701 q 193 651 244 651 m 494 651 q 419 676 443 651 q 394 740 394 701 l 394 764 q 405 833 394 797 q 433 904 415 869 q 476 971 451 939 q 532 1028 501 1003 l 639 1028 q 567 944 596 985 q 525 853 539 903 q 578 822 561 846 q 594 765 594 797 l 594 740 q 570 676 594 701 q 494 651 546 651 z "},"”":{"ha":694,"x_min":57,"x_max":601,"o":"m 201 1042 q 278 1017 254 1042 q 301 951 301 992 l 301 928 q 292 859 301 894 q 264 789 282 824 q 221 722 246 754 q 165 665 196 690 l 57 665 q 129 750 101 708 q 172 840 157 792 q 119 871 136 847 q 101 926 101 894 l 101 951 q 125 1017 101 992 q 201 1042 149 1042 m 501 1042 q 578 1017 554 1042 q 601 951 601 992 l 601 928 q 592 859 601 894 q 564 789 582 824 q 521 722 546 754 q 465 665 496 690 l 357 665 q 429 750 401 708 q 472 840 457 792 q 419 871 436 847 q 401 926 401 894 l 401 951 q 425 1017 401 992 q 501 1042 449 1042 z "},"‚":{"ha":397,"x_min":50,"x_max":294,"o":"m 194 215 q 271 190 247 215 q 294 125 294 165 l 294 101 q 285 33 294 68 q 257 -37 275 -3 q 214 -104 239 -72 q 158 -161 189 -136 l 50 -161 q 122 -76 94 -118 q 165 14 150 -35 q 112 44 129 21 q 94 100 94 68 l 94 125 q 118 190 94 165 q 194 215 142 215 z "},"„":{"ha":697,"x_min":50,"x_max":594,"o":"m 194 215 q 271 190 247 215 q 294 125 294 165 l 294 101 q 285 33 294 68 q 257 -37 275 -3 q 214 -104 239 -72 q 158 -161 189 -136 l 50 -161 q 122 -76 94 -118 q 165 14 150 -35 q 112 44 129 21 q 94 100 94 68 l 94 125 q 118 190 94 165 q 194 215 142 215 m 494 215 q 571 190 547 215 q 594 125 594 165 l 594 101 q 585 33 594 68 q 557 -37 575 -3 q 514 -104 539 -72 q 458 -161 489 -136 l 350 -161 q 422 -76 394 -118 q 465 14 450 -35 q 412 44 429 21 q 394 100 394 68 l 394 125 q 418 190 394 165 q 494 215 442 215 z "},"‹":{"ha":429,"x_min":51,"x_max":358,"o":"m 314 93 l 51 319 l 51 456 l 314 682 l 358 585 l 179 388 l 358 190 l 314 93 z "},"›":{"ha":429,"x_min":71,"x_max":378,"o":"m 71 190 l 250 388 l 71 585 l 115 682 l 378 456 l 378 319 l 115 93 l 71 190 z "},"«":{"ha":739,"x_min":51,"x_max":668,"o":"m 314 93 l 51 319 l 51 456 l 314 682 l 358 585 l 179 388 l 358 190 l 314 93 m 624 93 l 361 319 l 361 456 l 624 682 l 668 585 l 489 388 l 668 190 l 624 93 z "},"»":{"ha":739,"x_min":71,"x_max":688,"o":"m 71 190 l 250 388 l 71 585 l 115 682 l 378 456 l 378 319 l 115 93 l 71 190 m 381 190 l 560 388 l 381 585 l 425 682 l 688 456 l 688 319 l 425 93 l 381 190 z "},"¡":{"ha":414,"x_min":106,"x_max":308,"o":"m 126 -247 l 126 29 l 172 444 l 242 444 l 290 29 l 290 -247 l 126 -247 m 207 532 q 130 558 154 532 q 106 624 106 583 l 106 647 q 130 713 106 688 q 207 739 154 739 q 284 713 260 739 q 308 647 308 688 l 308 624 q 284 558 308 583 q 207 532 260 532 z "},"!":{"ha":414,"x_min":106,"x_max":308,"o":"m 172 278 l 124 693 l 124 969 l 288 969 l 288 693 l 242 278 l 172 278 m 207 -17 q 130 9 154 -17 q 106 75 106 35 l 106 99 q 130 165 106 139 q 207 190 154 190 q 284 165 260 190 q 308 99 308 139 l 308 75 q 284 9 308 35 q 207 -17 260 -17 z "},"¿":{"ha":665,"x_min":46,"x_max":650,"o":"m 344 -264 q 221 -244 276 -264 q 126 -190 165 -225 q 67 -103 88 -154 q 46 8 46 -53 q 67 120 46 71 q 124 204 89 169 q 204 260 160 239 q 296 290 249 282 l 296 418 l 440 418 l 440 197 q 267 149 328 192 q 207 24 207 107 l 207 4 q 246 -95 207 -60 q 350 -131 285 -131 q 461 -90 419 -131 q 518 13 503 -50 l 650 -40 q 613 -124 638 -83 q 551 -195 589 -164 q 463 -245 514 -226 q 344 -264 411 -264 m 367 532 q 290 558 314 532 q 265 624 265 583 l 265 647 q 290 713 265 688 q 367 739 314 739 q 444 713 419 739 q 468 647 468 688 l 468 624 q 444 558 468 583 q 367 532 419 532 z "},"?":{"ha":676,"x_min":26,"x_max":631,"o":"m 236 304 l 236 525 q 409 573 349 531 q 469 699 469 615 l 469 718 q 431 817 469 782 q 326 853 392 853 q 215 813 257 853 q 158 710 174 772 l 26 763 q 63 846 39 806 q 125 917 88 886 q 214 967 163 949 q 332 986 265 986 q 456 967 400 986 q 550 912 511 947 q 610 826 589 876 q 631 714 631 775 q 609 602 631 651 q 552 518 588 553 q 472 462 517 483 q 381 432 428 440 l 381 304 l 236 304 m 310 -17 q 233 9 257 -17 q 208 75 208 35 l 208 99 q 233 165 208 139 q 310 190 257 190 q 387 165 363 190 q 411 99 411 139 l 411 75 q 387 9 411 35 q 310 -17 363 -17 z "},"(":{"ha":467,"x_min":88,"x_max":478,"o":"m 88 432 q 106 626 88 533 q 158 800 125 719 q 237 946 192 881 q 335 1056 282 1011 l 478 1056 q 375 938 421 1003 q 297 799 329 872 q 248 646 265 725 q 231 488 231 567 l 231 376 q 248 218 231 297 q 297 65 265 139 q 375 -74 329 -8 q 478 -192 421 -140 l 335 -192 q 237 -82 282 -147 q 158 64 192 -17 q 106 238 125 144 q 88 432 88 331 z "},")":{"ha":467,"x_min":-11,"x_max":379,"o":"m 379 432 q 360 238 379 331 q 308 64 342 144 q 230 -82 275 -17 q 132 -192 185 -147 l -11 -192 q 92 -74 46 -140 q 169 65 138 -8 q 219 218 201 139 q 236 376 236 297 l 236 488 q 219 646 236 567 q 169 799 201 725 q 92 938 138 872 q -11 1056 46 1003 l 132 1056 q 230 946 185 1011 q 308 800 275 881 q 360 626 342 719 q 379 432 379 533 z "},"[":{"ha":451,"x_min":119,"x_max":374,"o":"m 119 -192 l 119 1056 l 374 1056 l 374 943 l 256 943 l 256 -79 l 374 -79 l 374 -192 l 119 -192 z "},"]":{"ha":451,"x_min":78,"x_max":332,"o":"m 332 1056 l 332 -192 l 78 -192 l 78 -79 l 196 -79 l 196 943 l 78 943 l 78 1056 l 332 1056 z "},"{":{"ha":492,"x_min":28,"x_max":414,"o":"m 283 -192 q 195 -158 228 -192 q 163 -67 163 -124 l 163 244 q 124 337 163 306 q 28 368 86 368 l 28 497 q 124 528 86 497 q 163 619 163 560 l 163 931 q 195 1022 163 988 q 283 1056 228 1056 l 414 1056 l 414 943 l 299 943 l 299 617 q 288 554 299 583 q 259 501 278 525 q 215 460 240 476 q 161 439 190 444 l 161 425 q 215 403 190 419 q 259 363 240 388 q 288 310 278 339 q 299 247 299 281 l 299 -79 l 414 -79 l 414 -192 l 283 -192 z "},"}":{"ha":494,"x_min":78,"x_max":467,"o":"m 208 1056 q 298 1022 264 1056 q 332 931 332 988 l 332 619 q 370 528 332 560 q 467 497 408 497 l 467 368 q 370 337 408 368 q 332 244 332 306 l 332 -67 q 298 -158 332 -124 q 208 -192 264 -192 l 78 -192 l 78 -79 l 196 -79 l 196 247 q 206 310 196 281 q 235 363 217 339 q 278 403 253 388 q 333 425 303 419 l 333 439 q 278 460 303 444 q 235 501 253 476 q 206 554 217 525 q 196 617 196 583 l 196 943 l 78 943 l 78 1056 l 208 1056 z "},"/":{"ha":579,"x_min":10,"x_max":525,"o":"m 10 -210 l 394 1028 l 525 1028 l 140 -210 l 10 -210 z "},"\\":{"ha":579,"x_min":54,"x_max":569,"o":"m 439 -210 l 54 1028 l 185 1028 l 569 -210 l 439 -210 z "},"⁄":{"ha":210,"x_min":-307,"x_max":517,"o":"m -307 0 l 394 969 l 517 969 l -183 0 l -307 0 z "},"∕":{"ha":210,"x_min":-307,"x_max":517,"o":"m -307 0 l 394 969 l 517 969 l -183 0 l -307 0 z "},"%":{"ha":1315,"x_min":82,"x_max":1233,"o":"m 251 0 l 924 969 l 1064 969 l 392 0 l 251 0 m 314 436 q 142 506 201 436 q 82 711 82 576 q 142 916 82 846 q 314 986 201 986 q 486 916 426 986 q 546 711 546 846 q 486 506 546 576 q 314 436 426 436 m 314 529 q 413 672 413 529 l 413 750 q 314 893 413 893 q 215 750 215 893 l 215 672 q 314 529 215 529 m 1001 -17 q 829 53 889 -17 q 769 258 769 124 q 829 463 769 393 q 1001 533 889 533 q 1174 463 1114 533 q 1233 258 1233 393 q 1174 53 1233 124 q 1001 -17 1114 -17 m 1001 76 q 1100 219 1100 76 l 1100 297 q 1001 440 1100 440 q 903 297 903 440 l 903 219 q 1001 76 903 76 z "},"‰":{"ha":1860,"x_min":82,"x_max":1778,"o":"m 251 0 l 924 969 l 1064 969 l 392 0 l 251 0 m 314 436 q 142 506 201 436 q 82 711 82 576 q 142 916 82 846 q 314 986 201 986 q 486 916 426 986 q 546 711 546 846 q 486 506 546 576 q 314 436 426 436 m 314 529 q 413 672 413 529 l 413 750 q 314 893 413 893 q 215 750 215 893 l 215 672 q 314 529 215 529 m 1001 -17 q 829 53 889 -17 q 769 258 769 124 q 829 463 769 393 q 1001 533 889 533 q 1174 463 1114 533 q 1233 258 1233 393 q 1174 53 1233 124 q 1001 -17 1114 -17 m 1001 76 q 1100 219 1100 76 l 1100 297 q 1001 440 1100 440 q 903 297 903 440 l 903 219 q 1001 76 903 76 m 1546 -17 q 1374 53 1433 -17 q 1314 258 1314 124 q 1374 463 1314 393 q 1546 533 1433 533 q 1718 463 1658 533 q 1778 258 1778 393 q 1718 53 1778 124 q 1546 -17 1658 -17 m 1546 76 q 1644 219 1644 76 l 1644 297 q 1546 440 1644 440 q 1447 297 1447 440 l 1447 219 q 1546 76 1447 76 z "},"|":{"ha":490,"x_min":181,"x_max":310,"o":"m 181 -192 l 181 1056 l 310 1056 l 310 -192 l 181 -192 z "},"¦":{"ha":490,"x_min":181,"x_max":310,"o":"m 181 561 l 181 1056 l 310 1056 l 310 561 l 181 561 m 181 -192 l 181 303 l 310 303 l 310 -192 l 181 -192 z "},"§":{"ha":801,"x_min":89,"x_max":713,"o":"m 667 11 q 646 -85 667 -43 q 587 -158 625 -128 q 496 -203 549 -187 q 379 -219 443 -219 q 247 -199 313 -219 q 129 -132 182 -179 l 208 -35 q 286 -84 243 -67 q 382 -101 329 -101 q 490 -73 450 -101 q 529 6 529 -44 q 495 79 529 53 q 396 125 461 106 l 300 153 q 137 241 185 185 q 89 363 89 297 q 126 476 89 426 q 239 558 164 526 l 239 574 q 163 651 192 606 q 135 760 135 697 q 156 855 135 813 q 214 926 176 897 q 303 971 251 956 q 419 986 356 986 q 553 967 488 986 q 672 899 618 947 l 592 803 q 515 851 557 833 q 417 869 472 869 q 310 842 350 869 q 269 764 269 815 q 303 692 269 718 q 404 646 338 665 l 500 619 q 664 531 615 586 q 713 408 713 475 q 674 294 713 344 q 561 213 636 243 l 561 199 q 638 120 610 167 q 667 11 667 74 m 576 365 q 544 448 576 414 q 436 503 513 482 l 342 529 q 319 535 331 532 q 297 543 308 539 q 243 481 263 515 q 224 406 224 447 q 256 324 224 357 q 364 268 288 290 l 458 243 q 503 228 479 238 q 557 290 538 256 q 576 365 576 324 z "},"¶":{"ha":921,"x_min":60,"x_max":824,"o":"m 339 392 q 230 415 281 392 q 141 477 179 438 q 81 569 103 517 q 60 681 60 621 q 81 792 60 740 q 141 884 103 844 q 230 947 179 924 q 339 969 281 969 l 824 969 l 824 853 l 732 853 l 732 -207 l 608 -207 l 608 853 l 463 853 l 463 -207 l 339 -207 l 339 392 z "},"©":{"ha":1086,"x_min":71,"x_max":1015,"o":"m 543 -15 q 356 19 443 -15 q 206 119 269 54 q 107 276 143 183 q 71 485 71 369 q 107 693 71 600 q 206 851 143 786 q 356 950 269 915 q 543 985 443 985 q 730 950 643 985 q 880 851 817 915 q 979 693 943 786 q 1015 485 1015 600 q 979 276 1015 369 q 880 119 943 183 q 730 19 817 54 q 543 -15 643 -15 m 543 69 q 694 98 625 69 q 812 176 763 126 q 889 293 861 225 q 917 440 917 361 l 917 529 q 889 676 917 608 q 812 794 861 744 q 694 872 763 843 q 543 900 625 900 q 392 872 461 900 q 274 794 324 843 q 197 676 225 744 q 169 529 169 608 l 169 440 q 197 293 169 361 q 274 176 225 225 q 392 98 324 126 q 543 69 461 69 m 554 203 q 367 279 433 203 q 300 485 300 356 q 367 690 300 614 q 554 767 433 767 q 689 729 638 767 q 767 631 740 692 l 663 576 q 622 634 647 613 q 554 656 597 656 q 471 622 500 656 q 442 533 442 588 l 442 435 q 471 347 442 381 q 554 313 500 313 q 626 335 599 313 q 674 394 654 358 l 776 340 q 697 242 750 282 q 554 203 643 203 z "},"®":{"ha":656,"x_min":50,"x_max":606,"o":"m 328 414 q 219 435 269 414 q 131 496 168 457 q 72 587 93 535 q 50 700 50 639 q 72 813 50 761 q 131 904 93 865 q 219 965 168 943 q 328 986 269 986 q 437 965 386 986 q 525 904 488 943 q 584 813 563 865 q 606 700 606 761 q 584 587 606 639 q 525 496 563 535 q 437 435 488 457 q 328 414 386 414 m 328 474 q 413 490 374 474 q 480 534 451 506 q 524 600 508 563 q 540 682 540 638 l 540 718 q 524 799 540 761 q 480 866 508 838 q 413 910 451 894 q 328 926 374 926 q 243 910 282 926 q 176 866 204 894 q 131 799 147 838 q 115 718 115 761 l 115 682 q 131 600 115 638 q 176 534 147 563 q 243 490 204 506 q 328 474 282 474 m 286 553 l 215 553 l 215 843 l 347 843 q 421 817 396 843 q 446 751 446 792 q 431 695 446 717 q 393 664 417 674 l 458 553 l 381 553 l 326 653 l 286 653 l 286 553 m 339 706 q 374 736 374 706 l 374 757 q 339 788 374 788 l 286 788 l 286 706 l 339 706 z "},"™":{"ha":874,"x_min":40,"x_max":778,"o":"m 151 576 l 151 897 l 40 897 l 40 969 l 351 969 l 351 897 l 242 897 l 242 576 l 151 576 m 397 576 l 397 969 l 500 969 l 588 800 l 594 800 l 681 969 l 778 969 l 778 576 l 697 576 l 697 732 l 704 854 l 699 854 l 588 644 l 476 854 l 471 854 l 478 732 l 478 576 l 397 576 z "},"ª":{"ha":583,"x_min":60,"x_max":526,"o":"m 526 475 l 464 475 q 400 494 426 475 q 371 556 374 513 l 365 556 q 313 492 350 517 q 214 467 275 467 q 101 505 142 467 q 60 610 60 543 q 114 722 60 686 q 272 758 168 758 l 363 758 l 363 790 q 265 892 363 892 q 189 872 219 892 q 142 824 158 853 l 75 881 q 147 949 97 919 q 275 978 196 978 q 420 931 367 978 q 474 796 474 885 l 474 565 l 526 565 l 526 475 m 272 689 q 169 626 169 689 l 169 610 q 190 563 169 578 q 249 549 211 549 q 328 569 294 549 q 363 631 363 590 l 363 689 l 272 689 z "},"º":{"ha":575,"x_min":58,"x_max":517,"o":"m 288 467 q 119 535 179 467 q 58 722 58 603 q 119 910 58 842 q 288 978 179 978 q 456 910 396 978 q 517 722 517 842 q 456 535 517 603 q 288 467 396 467 m 288 554 q 371 586 342 554 q 400 678 400 618 l 400 767 q 371 858 400 826 q 288 890 342 890 q 204 858 233 890 q 175 767 175 826 l 175 678 q 204 586 175 618 q 288 554 233 554 z "},"°":{"ha":653,"x_min":82,"x_max":571,"o":"m 326 489 q 229 508 274 489 q 152 560 185 526 q 101 639 119 593 q 82 738 82 685 q 101 836 82 790 q 152 915 119 882 q 229 967 185 949 q 326 986 274 986 q 423 967 378 986 q 501 915 468 949 q 552 836 533 882 q 571 738 571 790 q 552 639 571 685 q 501 560 533 593 q 423 508 468 526 q 326 489 378 489 m 326 597 q 420 638 386 597 q 454 738 454 678 q 420 838 454 797 q 326 878 386 878 q 233 838 267 878 q 199 738 199 797 q 233 638 199 678 q 326 597 267 597 z "},"*":{"ha":714,"x_min":47,"x_max":667,"o":"m 226 450 l 121 524 l 268 707 l 47 771 l 88 892 l 300 808 l 290 1038 l 422 1038 l 413 808 l 625 892 l 667 771 l 444 707 l 592 524 l 486 450 l 356 644 l 226 450 z "},"†":{"ha":750,"x_min":56,"x_max":694,"o":"m 310 -278 l 310 601 l 56 601 l 56 717 l 310 717 l 310 1028 l 440 1028 l 440 717 l 694 717 l 694 601 l 440 601 l 440 -278 l 310 -278 z "},"‡":{"ha":761,"x_min":61,"x_max":700,"o":"m 315 -278 l 315 33 l 61 33 l 61 149 l 315 149 l 315 601 l 61 601 l 61 717 l 315 717 l 315 1028 l 446 1028 l 446 717 l 700 717 l 700 601 l 446 601 l 446 149 l 700 149 l 700 33 l 446 33 l 446 -278 l 315 -278 z "},"#":{"ha":942,"x_min":56,"x_max":886,"o":"m 543 265 l 324 265 l 278 0 l 171 0 l 217 265 l 56 265 l 56 367 l 235 367 l 275 603 l 114 603 l 114 704 l 293 704 l 339 969 l 444 969 l 399 704 l 618 704 l 664 969 l 771 969 l 725 704 l 886 704 l 886 603 l 707 603 l 667 367 l 828 367 l 828 265 l 649 265 l 603 0 l 497 0 l 543 265 m 560 367 l 601 603 l 382 603 l 340 367 l 560 367 z "},"^":{"ha":833,"x_min":65,"x_max":768,"o":"m 649 400 l 417 815 l 410 815 l 179 400 l 65 460 l 347 969 l 486 969 l 768 460 l 649 400 z "},"~":{"ha":833,"x_min":81,"x_max":753,"o":"m 581 314 q 490 327 529 314 q 403 364 450 340 q 327 397 364 383 q 247 411 290 411 q 191 401 215 411 q 135 369 167 392 l 81 454 q 147 513 107 490 q 253 535 188 535 q 344 522 304 535 q 431 485 383 508 q 506 451 469 465 q 586 438 543 438 q 642 447 618 438 q 699 479 667 457 l 753 394 q 686 336 726 358 q 581 314 646 314 z "},"+":{"ha":833,"x_min":93,"x_max":740,"o":"m 349 88 l 349 363 l 93 363 l 93 486 l 349 486 l 349 761 l 485 761 l 485 486 l 740 486 l 740 363 l 485 363 l 485 88 l 349 88 z "},"−":{"ha":833,"x_min":93,"x_max":740,"o":"m 93 363 l 93 486 l 740 486 l 740 363 l 93 363 z "},"±":{"ha":833,"x_min":93,"x_max":740,"o":"m 349 232 l 349 488 l 93 488 l 93 611 l 349 611 l 349 868 l 485 868 l 485 611 l 740 611 l 740 488 l 485 488 l 485 232 l 349 232 m 93 0 l 93 124 l 740 124 l 740 0 l 93 0 z "},"×":{"ha":833,"x_min":119,"x_max":714,"o":"m 417 331 l 208 115 l 119 203 l 329 419 l 119 636 l 208 724 l 417 508 l 625 724 l 714 636 l 504 419 l 714 203 l 625 115 l 417 331 z "},"÷":{"ha":833,"x_min":93,"x_max":740,"o":"m 93 363 l 93 486 l 740 486 l 740 363 l 93 363 m 417 58 q 338 82 361 58 q 315 138 315 106 l 315 169 q 338 225 315 201 q 417 249 361 249 q 495 225 472 249 q 518 169 518 201 l 518 138 q 495 82 518 106 q 417 58 472 58 m 417 599 q 338 622 361 599 q 315 678 315 646 l 315 710 q 338 765 315 742 q 417 789 361 789 q 495 765 472 789 q 518 710 518 742 l 518 678 q 495 622 518 646 q 417 599 472 599 z "},"=":{"ha":833,"x_min":93,"x_max":740,"o":"m 93 511 l 93 635 l 740 635 l 740 511 l 93 511 m 93 214 l 93 338 l 740 338 l 740 214 l 93 214 z "},"≈":{"ha":833,"x_min":81,"x_max":753,"o":"m 581 463 q 490 476 529 463 q 403 513 450 489 q 327 546 364 532 q 247 560 290 560 q 191 550 215 560 q 135 518 167 540 l 81 603 q 147 661 107 639 q 253 683 188 683 q 344 670 304 683 q 431 633 383 657 q 506 600 469 614 q 586 586 543 586 q 642 596 618 586 q 699 628 667 606 l 753 543 q 686 485 726 507 q 581 463 646 463 m 581 167 q 490 180 529 167 q 403 217 450 193 q 327 250 364 236 q 247 264 290 264 q 191 254 215 264 q 135 222 167 244 l 81 307 q 147 365 107 343 q 253 388 188 388 q 344 374 304 388 q 431 338 383 361 q 506 304 469 318 q 586 290 543 290 q 642 300 618 290 q 699 332 667 310 l 753 247 q 686 189 726 211 q 581 167 646 167 z "},"≠":{"ha":833,"x_min":93,"x_max":740,"o":"m 167 78 l 238 210 l 93 210 l 93 333 l 303 333 l 399 515 l 93 515 l 93 639 l 465 639 l 535 771 l 667 771 l 596 639 l 740 639 l 740 515 l 529 515 l 433 333 l 740 333 l 740 210 l 368 210 l 299 78 l 167 78 z "},"<":{"ha":833,"x_min":133,"x_max":700,"o":"m 133 342 l 133 456 l 700 808 l 700 653 l 285 404 l 285 394 l 700 144 l 700 -11 l 133 342 z "},">":{"ha":833,"x_min":133,"x_max":700,"o":"m 133 144 l 549 394 l 549 404 l 133 653 l 133 808 l 700 456 l 700 342 l 133 -11 l 133 144 z "},"≤":{"ha":833,"x_min":133,"x_max":700,"o":"m 133 0 l 133 124 l 700 124 l 700 0 l 133 0 m 700 686 l 297 510 l 297 501 l 700 328 l 700 182 l 133 444 l 133 567 l 700 832 l 700 686 z "},"≥":{"ha":833,"x_min":133,"x_max":700,"o":"m 133 328 l 536 501 l 536 510 l 133 686 l 133 832 l 700 567 l 700 444 l 133 182 l 133 328 m 133 124 l 700 124 l 700 0 l 133 0 l 133 124 z "},"·":{"ha":494,"x_min":136,"x_max":358,"o":"m 247 311 q 163 338 189 311 q 136 406 136 365 l 136 439 q 163 506 136 479 q 247 533 189 533 q 332 506 306 533 q 358 439 358 479 l 358 406 q 332 338 358 365 q 247 311 306 311 z "},"•":{"ha":569,"x_min":97,"x_max":472,"o":"m 285 229 q 198 242 233 229 q 140 276 163 254 q 108 326 118 297 q 97 390 97 356 l 97 433 q 108 497 97 468 q 140 548 118 526 q 198 582 163 569 q 285 594 233 594 q 372 582 336 594 q 429 548 407 569 q 462 497 451 526 q 472 433 472 468 l 472 390 q 429 275 472 321 q 285 229 386 229 z "},"◊":{"ha":833,"x_min":69,"x_max":764,"o":"m 361 0 l 69 485 l 361 969 l 472 969 l 764 485 l 472 0 l 361 0 m 421 144 l 619 485 l 421 825 l 413 825 l 214 485 l 413 144 l 421 144 z "},"¬":{"ha":856,"x_min":85,"x_max":763,"o":"m 636 108 l 636 363 l 85 363 l 85 486 l 763 486 l 763 108 l 636 108 z "},"√":{"ha":835,"x_min":32,"x_max":800,"o":"m 325 0 l 157 599 l 32 599 l 32 722 l 263 722 l 335 456 l 421 126 l 429 126 l 518 456 l 664 969 l 800 969 l 519 0 l 325 0 z "},"∫":{"ha":607,"x_min":61,"x_max":546,"o":"m 61 -154 l 228 -154 l 228 846 q 272 978 228 928 q 411 1028 317 1028 l 546 1028 l 546 904 l 379 904 l 379 -96 q 335 -228 379 -178 q 196 -278 290 -278 l 61 -278 l 61 -154 z "},"∞":{"ha":1058,"x_min":25,"x_max":1033,"o":"m 286 142 q 177 161 225 142 q 95 217 129 181 q 43 303 61 253 q 25 415 25 354 q 43 527 25 476 q 95 614 61 578 q 177 669 129 650 q 286 689 225 689 q 455 643 389 689 q 556 497 521 597 l 563 497 q 638 640 578 592 q 772 689 697 689 q 881 669 832 689 q 963 614 929 650 q 1015 527 997 578 q 1033 415 1033 476 q 1015 303 1033 354 q 963 217 997 253 q 881 161 929 181 q 772 142 832 142 q 603 188 669 142 q 503 333 538 233 l 496 333 q 421 190 481 239 q 286 142 361 142 m 286 263 q 397 299 351 263 q 464 407 443 336 q 396 526 440 483 q 286 568 351 568 q 199 534 232 568 q 167 442 167 500 l 167 389 q 199 297 167 331 q 286 263 232 263 m 772 263 q 859 297 826 263 q 892 389 892 331 l 892 442 q 859 534 892 500 q 772 568 826 568 q 661 531 707 568 q 594 424 615 494 q 663 305 618 347 q 772 263 707 263 z "},"℮":{"ha":1000,"x_min":46,"x_max":954,"o":"m 269 139 q 368 82 311 104 q 500 60 425 60 q 707 117 625 60 q 839 267 789 174 l 908 228 q 841 131 881 175 q 751 53 801 86 q 637 2 700 21 q 500 -17 574 -17 q 319 19 401 -17 q 175 119 236 54 q 80 277 114 185 q 46 485 46 369 q 80 692 46 599 q 175 850 114 785 q 319 951 236 915 q 500 986 401 986 q 681 951 597 986 q 825 850 764 915 q 920 692 886 785 q 954 485 954 599 l 269 485 l 269 139 m 731 557 l 731 835 q 632 892 689 869 q 500 914 575 914 q 368 892 425 914 q 269 835 311 869 l 269 557 l 731 557 z "},"ℓ":{"ha":717,"x_min":36,"x_max":681,"o":"m 403 -17 q 232 48 296 -17 q 168 221 168 113 l 168 232 q 135 208 154 221 q 100 185 115 194 l 36 289 q 103 331 68 308 q 163 374 138 354 l 163 771 q 179 899 163 847 q 225 983 196 951 q 294 1030 254 1015 q 382 1044 335 1044 q 544 981 489 1044 q 600 799 600 917 q 581 671 600 732 q 526 551 563 610 q 434 433 489 492 q 307 313 379 375 l 307 253 q 333 147 307 178 q 407 115 360 115 q 494 151 460 115 q 564 260 529 188 l 681 196 q 635 111 661 150 q 576 44 610 72 q 499 -1 542 15 q 403 -17 456 -17 m 386 913 q 331 884 354 913 q 307 779 307 856 l 307 469 q 420 620 379 543 q 461 783 461 697 l 461 803 q 440 888 461 863 q 386 913 419 913 z "},"№":{"ha":1446,"x_min":119,"x_max":1389,"o":"m 1163 503 q 999 566 1061 503 q 936 744 936 629 q 999 923 936 860 q 1163 986 1061 986 q 1326 923 1264 986 q 1389 744 1389 860 q 1326 566 1389 629 q 1163 503 1264 503 m 119 0 l 119 969 l 293 969 l 568 457 l 683 226 l 688 226 l 688 969 l 835 969 l 835 0 l 660 0 l 374 524 l 269 736 l 265 736 l 265 0 l 119 0 m 1163 597 q 1242 627 1213 597 q 1271 708 1271 657 l 1271 781 q 1242 862 1271 832 q 1163 892 1213 892 q 1083 862 1113 892 q 1054 781 1054 832 l 1054 708 q 1083 627 1054 657 q 1163 597 1113 597 m 958 322 l 958 422 l 1367 422 l 1367 322 l 958 322 z "},"∂":{"ha":818,"x_min":72,"x_max":742,"o":"m 742 376 q 718 202 742 276 q 651 79 694 128 q 546 7 607 31 q 410 -17 485 -17 q 268 9 331 -17 q 162 82 206 35 q 95 197 118 129 q 72 347 72 264 q 93 492 72 426 q 151 603 114 557 q 243 675 189 650 q 364 700 297 700 q 476 673 431 700 q 554 599 522 646 l 563 601 q 507 703 544 654 q 418 799 469 753 q 302 888 367 844 q 165 969 238 931 l 394 969 q 510 885 449 936 q 622 763 571 835 q 708 597 674 692 q 742 376 742 501 m 407 104 q 535 153 488 104 q 582 297 582 201 l 582 386 q 535 531 582 482 q 407 579 488 579 q 279 531 326 579 q 232 386 232 482 l 232 297 q 279 153 232 201 q 407 104 326 104 z "},"¤":{"ha":861,"x_min":21,"x_max":840,"o":"m 431 158 q 326 172 374 158 q 242 211 278 186 l 107 76 l 21 161 l 158 299 q 114 485 114 376 q 158 671 114 593 l 21 808 l 107 893 l 242 758 q 326 797 278 783 q 431 811 374 811 q 535 797 488 811 q 619 758 583 783 l 754 893 l 840 808 l 703 671 q 747 485 747 593 q 703 299 747 376 l 840 161 l 754 76 l 619 211 q 535 172 583 186 q 431 158 488 158 m 431 275 q 549 317 506 275 q 592 443 592 360 l 592 526 q 549 652 592 610 q 431 694 506 694 q 313 652 356 694 q 269 526 269 610 l 269 443 q 313 317 269 360 q 431 275 356 275 z "},"¢":{"ha":735,"x_min":61,"x_max":683,"o":"m 326 -158 l 326 -11 q 131 107 200 10 q 61 358 61 204 q 131 611 61 514 q 326 728 200 708 l 326 875 l 447 875 l 447 731 q 589 675 533 719 q 674 564 644 631 l 560 501 q 513 569 543 542 q 440 607 483 597 l 440 110 q 520 147 486 118 q 575 221 554 176 l 683 154 q 594 41 653 86 q 447 -14 535 -4 l 447 -158 l 326 -158 m 213 299 q 242 179 213 229 q 333 113 272 129 l 333 604 q 243 538 274 588 q 213 418 213 489 l 213 299 z "},"€":{"ha":871,"x_min":76,"x_max":818,"o":"m 482 -17 q 314 16 389 -17 q 186 113 239 49 q 105 271 133 178 q 76 485 76 364 q 105 699 76 606 q 186 856 133 792 q 314 953 239 919 q 482 986 389 986 q 686 932 610 986 q 808 793 763 878 l 692 714 q 610 818 663 781 q 482 856 558 856 q 328 800 389 856 q 249 651 268 744 l 588 651 l 588 544 l 242 544 l 242 425 l 588 425 l 588 318 l 249 318 q 328 168 268 222 q 482 114 389 114 q 615 154 561 114 q 701 265 669 194 l 818 183 q 767 106 797 143 q 697 42 738 69 q 603 -1 656 15 q 482 -17 550 -17 z "},"ƒ":{"ha":672,"x_min":0,"x_max":646,"o":"m 13 -62 l 196 -62 l 242 389 l 65 389 l 79 518 l 254 518 l 282 785 q 340 918 290 867 q 485 969 390 969 l 646 969 l 632 846 l 440 846 l 406 518 l 615 518 l 603 389 l 393 389 l 354 -3 q 296 -135 346 -83 q 151 -186 246 -186 l 0 -186 l 13 -62 z "},"£":{"ha":818,"x_min":68,"x_max":769,"o":"m 104 0 l 104 160 q 186 234 161 185 q 211 342 211 283 q 210 372 211 357 q 206 400 208 386 l 68 400 l 68 526 l 163 526 q 139 608 150 567 q 128 697 128 649 q 151 815 128 761 q 217 906 174 868 q 321 965 260 944 q 460 986 382 986 q 644 944 568 986 q 769 824 719 903 l 654 742 q 572 822 618 794 q 460 850 525 850 q 333 806 378 850 q 288 676 288 763 q 297 598 288 633 q 318 526 307 563 l 607 526 l 607 400 l 360 400 q 364 351 364 376 q 331 222 364 275 q 258 144 299 168 l 258 136 l 746 136 l 746 0 l 104 0 z "},"$":{"ha":832,"x_min":60,"x_max":761,"o":"m 363 -114 l 363 6 q 185 57 257 14 q 60 163 113 100 l 161 254 q 255 169 204 201 q 372 129 306 138 l 372 440 q 156 537 222 472 q 89 707 89 601 q 163 883 89 818 q 363 963 236 949 l 363 1083 l 481 1083 l 481 963 q 635 918 569 954 q 750 819 701 882 l 647 735 q 574 802 617 775 q 472 839 532 829 l 472 554 q 608 511 554 536 q 697 455 663 486 q 746 383 731 424 q 761 288 761 342 q 688 100 761 175 q 481 8 615 25 l 481 -114 l 363 -114 m 615 278 q 585 365 615 331 q 472 419 554 399 l 472 131 q 578 181 540 142 q 615 278 615 219 m 233 714 q 267 626 233 656 q 372 576 301 596 l 372 840 q 269 799 306 831 q 233 714 233 767 z "},"¥":{"ha":864,"x_min":39,"x_max":826,"o":"m 511 194 l 511 0 l 354 0 l 354 194 l 115 194 l 115 301 l 354 301 l 354 418 l 115 418 l 115 525 l 289 525 l 39 969 l 217 969 l 438 556 l 443 556 l 657 969 l 826 969 l 578 525 l 750 525 l 750 418 l 511 418 l 511 301 l 750 301 l 750 194 l 511 194 z "},"฿":{"ha":906,"x_min":119,"x_max":832,"o":"m 507 -118 l 389 -118 l 389 29 l 119 29 l 119 940 l 389 940 l 389 1083 l 507 1083 l 507 940 l 547 940 q 731 876 665 940 q 797 706 797 813 q 751 567 797 613 q 629 511 706 522 l 629 503 q 703 486 667 499 q 769 449 740 474 q 815 386 797 425 q 832 292 832 347 q 813 188 832 236 q 762 105 794 140 q 684 49 729 69 q 588 29 639 29 l 507 29 l 507 -118 m 396 554 l 396 810 l 269 810 l 269 554 l 396 554 m 500 554 l 528 554 q 640 660 640 554 l 640 704 q 528 810 640 810 l 500 810 l 500 554 m 396 160 l 396 431 l 269 431 l 269 160 l 396 160 m 500 160 l 546 160 q 640 188 606 160 q 675 272 675 215 l 675 318 q 640 403 675 375 q 546 431 606 431 l 500 431 l 500 160 z "},"₡":{"ha":865,"x_min":76,"x_max":813,"o":"m 443 4 q 409 8 425 6 q 378 14 393 11 l 364 -114 l 268 -114 l 285 46 q 131 206 186 96 q 76 483 76 317 q 156 806 76 686 q 379 956 236 925 l 393 1083 l 488 1083 l 475 967 l 485 967 q 543 963 515 967 l 556 1083 l 650 1083 l 636 940 q 736 875 694 917 q 810 776 778 833 l 696 700 q 663 757 681 732 q 618 799 644 782 l 550 140 q 640 191 603 156 q 699 279 676 226 l 813 200 q 710 74 776 129 q 538 7 643 19 l 525 -114 l 431 -114 l 443 4 m 461 839 l 389 147 q 458 132 422 133 l 531 833 q 506 838 519 836 q 471 839 492 839 l 461 839 m 238 406 q 306 204 238 275 l 367 813 q 271 719 304 783 q 238 564 238 654 l 238 406 z "},"₤":{"ha":818,"x_min":68,"x_max":769,"o":"m 746 0 l 104 0 l 104 156 q 180 225 156 179 q 208 324 204 271 l 68 324 l 68 431 l 197 431 q 180 486 190 458 q 160 542 169 514 l 68 542 l 68 649 l 132 649 q 128 697 128 674 q 151 815 128 761 q 217 906 174 868 q 321 965 260 944 q 460 986 382 986 q 644 944 568 986 q 769 824 719 903 l 654 746 q 572 826 618 799 q 460 854 525 854 q 333 808 378 854 q 288 676 288 763 q 288 663 288 669 q 289 649 289 656 l 594 649 l 594 542 l 315 542 q 335 487 325 514 q 353 431 346 460 l 594 431 l 594 324 l 361 324 q 324 212 354 260 q 258 140 294 164 l 258 132 l 746 132 l 746 0 z "},"₦":{"ha":1014,"x_min":22,"x_max":992,"o":"m 514 324 l 282 324 l 282 0 l 138 0 l 138 321 l 22 321 l 22 428 l 138 428 l 138 544 l 22 544 l 22 651 l 138 651 l 138 969 l 317 969 l 493 649 l 733 649 l 733 969 l 875 969 l 875 651 l 992 651 l 992 544 l 875 544 l 875 428 l 992 428 l 992 321 l 875 321 l 875 0 l 693 0 l 514 324 m 465 425 l 286 756 l 282 756 l 282 425 l 465 425 m 729 204 l 733 204 l 733 547 l 543 547 l 729 204 z "},"₨":{"ha":1097,"x_min":119,"x_max":1054,"o":"m 119 0 l 119 969 l 397 969 q 596 899 526 969 q 665 699 665 828 q 633 550 665 611 q 535 457 600 489 l 651 221 q 717 133 682 161 q 800 104 751 104 q 872 124 846 104 q 897 181 897 144 q 894 206 897 194 q 884 230 892 218 q 864 256 876 242 q 831 289 851 269 l 804 315 q 722 415 746 369 q 697 514 697 460 q 752 647 697 597 q 900 697 807 697 q 979 689 940 697 q 1054 657 1018 681 l 1000 554 q 960 575 981 568 q 913 582 939 582 q 860 565 881 582 q 840 517 840 549 q 858 463 840 486 q 913 404 876 440 l 936 383 q 986 331 965 354 q 1020 285 1007 307 q 1039 238 1033 263 q 1044 185 1044 214 q 1030 105 1044 142 q 984 41 1015 68 q 903 -1 953 14 q 786 -17 854 -17 q 626 19 692 -17 q 519 146 561 56 l 393 418 l 274 418 l 274 0 l 119 0 m 379 547 q 473 576 439 547 q 507 663 507 604 l 507 724 q 473 810 507 782 q 379 839 439 839 l 274 839 l 274 547 l 379 547 z "},"₩":{"ha":1364,"x_min":51,"x_max":1313,"o":"m 797 324 l 558 324 l 476 0 l 301 0 l 226 322 l 51 322 l 51 429 l 200 429 l 174 544 l 51 544 l 51 651 l 149 651 l 74 969 l 229 969 l 297 649 l 515 649 l 596 969 l 771 969 l 849 650 l 1069 650 l 1140 969 l 1293 969 l 1214 653 l 1313 653 l 1313 546 l 1188 546 l 1160 429 l 1313 429 l 1313 322 l 1133 322 l 1053 0 l 878 0 l 797 324 m 479 500 l 490 547 l 318 547 l 329 500 l 397 178 l 401 178 l 479 500 m 967 179 l 1036 499 l 1047 549 l 874 549 l 885 503 l 963 179 l 967 179 m 585 425 l 772 425 l 757 486 l 681 803 l 678 803 l 600 488 l 585 425 z "},"₪":{"ha":1153,"x_min":119,"x_max":1033,"o":"m 376 729 l 519 729 l 519 129 l 765 129 q 854 160 818 129 q 890 263 890 192 l 890 969 l 1033 969 l 1033 275 q 962 68 1033 136 q 778 0 890 0 l 376 0 l 376 729 m 119 0 l 119 969 l 524 969 q 706 901 636 969 q 776 694 776 833 l 776 240 l 633 240 l 633 707 q 599 809 633 778 q 511 840 565 840 l 263 840 l 263 0 l 119 0 z "},"₫":{"ha":801,"x_min":78,"x_max":749,"o":"m 511 308 l 506 308 q 433 228 479 258 q 314 197 388 197 q 142 268 206 197 q 78 482 78 339 q 142 696 78 625 q 314 767 206 767 q 433 736 388 767 q 506 656 479 706 l 511 656 l 511 844 l 321 844 l 321 946 l 511 946 l 511 1028 l 660 1028 l 660 946 l 749 946 l 749 844 l 660 844 l 660 210 l 511 210 l 511 308 m 372 310 q 473 340 435 310 q 511 417 511 371 l 511 547 q 473 624 511 593 q 372 654 435 654 q 265 617 304 654 q 226 518 226 581 l 226 446 q 265 347 226 383 q 372 310 304 310 m 88 0 l 88 117 l 694 117 l 694 0 l 88 0 z "},"₭":{"ha":897,"x_min":11,"x_max":868,"o":"m 289 0 l 132 0 l 132 433 l 11 433 l 11 558 l 132 558 l 132 969 l 289 969 l 289 558 l 374 558 l 663 969 l 839 969 l 536 558 l 814 558 l 814 433 l 549 433 l 868 0 l 682 0 l 376 433 l 289 433 l 289 0 z "},"₮":{"ha":843,"x_min":54,"x_max":789,"o":"m 500 296 l 500 0 l 343 0 l 343 221 l 165 136 l 165 244 l 343 329 l 343 442 l 165 357 l 165 465 l 343 550 l 343 838 l 54 838 l 54 969 l 789 969 l 789 838 l 500 838 l 500 625 l 678 710 l 678 601 l 500 517 l 500 404 l 678 490 l 678 382 l 500 296 z "},"₱":{"ha":913,"x_min":33,"x_max":889,"o":"m 306 0 l 149 0 l 149 449 l 33 449 l 33 550 l 149 550 l 149 665 l 33 665 l 33 767 l 149 767 l 149 969 l 500 969 q 758 767 707 969 l 889 767 l 889 665 l 772 665 q 774 638 774 651 q 775 608 775 624 q 774 578 775 593 q 772 550 774 564 l 889 550 l 889 449 l 756 449 q 665 296 729 349 q 500 243 601 243 l 306 243 l 306 0 m 306 761 l 611 761 q 567 826 599 801 q 489 851 536 851 l 306 851 l 306 761 m 619 544 l 619 671 l 306 671 l 306 544 l 619 544 m 489 361 q 569 386 538 361 q 613 454 601 411 l 306 454 l 306 361 l 489 361 z "},"₲":{"ha":935,"x_min":76,"x_max":846,"o":"m 296 -114 l 321 31 q 187 125 240 64 q 105 276 133 186 q 76 485 76 365 q 105 693 76 603 q 185 844 133 783 q 312 936 238 906 q 479 967 386 967 l 485 967 l 504 1083 l 625 1083 l 601 950 q 722 890 661 935 q 828 754 783 844 l 704 689 q 641 783 678 751 q 572 824 604 814 l 518 515 l 846 515 l 846 356 q 811 187 846 254 q 722 78 776 119 q 603 20 668 38 q 479 3 539 3 q 438 4 458 3 l 417 -114 l 296 -114 m 303 768 q 239 561 239 696 l 239 408 q 269 256 239 317 q 350 164 300 194 l 468 839 q 303 768 363 835 m 479 131 q 639 183 578 131 q 700 336 700 236 l 700 386 l 496 386 l 451 131 l 479 131 z "},"₴":{"ha":882,"x_min":60,"x_max":822,"o":"m 450 -17 q 323 4 379 -17 q 228 63 267 25 q 169 150 189 100 q 149 258 149 200 q 152 299 149 281 q 160 333 156 318 l 60 333 l 60 440 l 222 440 l 432 556 l 60 556 l 60 663 l 571 663 q 578 691 575 676 q 581 722 581 706 q 542 824 581 792 q 432 856 503 856 q 332 837 379 856 q 247 774 285 818 l 161 868 q 287 957 214 928 q 440 986 360 986 q 558 967 506 986 q 649 915 611 949 q 706 836 686 882 q 726 736 726 790 q 724 698 726 717 q 717 663 722 679 l 822 663 l 822 556 l 651 556 l 446 440 l 822 440 l 822 333 l 310 333 q 294 265 294 303 q 339 152 294 190 q 458 114 383 114 q 560 135 511 114 q 664 214 610 156 l 749 118 q 620 19 696 54 q 450 -17 544 -17 z "},"₵":{"ha":860,"x_min":76,"x_max":807,"o":"m 296 -114 l 321 32 q 187 128 239 67 q 106 278 135 189 q 76 485 76 368 q 105 691 76 601 q 186 842 133 781 q 313 935 239 904 q 478 967 388 967 l 485 967 l 504 1083 l 625 1083 l 601 949 q 709 894 656 933 q 804 779 763 854 l 689 701 q 634 779 665 751 q 572 819 603 807 l 451 133 l 478 133 q 609 172 554 133 q 693 279 664 210 l 807 201 q 757 125 786 161 q 688 62 728 89 q 596 19 647 35 q 478 3 544 3 q 438 4 458 3 l 417 -114 l 296 -114 m 379 819 q 303 765 335 800 q 255 678 272 729 q 238 564 238 626 l 238 408 q 255 295 238 346 q 298 215 272 244 q 351 168 324 185 l 468 839 q 379 819 418 836 z "},"₸":{"ha":843,"x_min":54,"x_max":789,"o":"m 54 851 l 54 969 l 789 969 l 789 851 l 54 851 m 500 614 l 500 0 l 343 0 l 343 614 l 54 614 l 54 732 l 789 732 l 789 614 l 500 614 z "},"₹":{"ha":854,"x_min":79,"x_max":806,"o":"m 519 0 l 247 365 l 79 365 l 79 483 l 351 483 q 460 515 419 483 q 503 608 500 546 l 79 608 l 79 726 l 503 726 q 458 822 499 793 q 351 851 418 851 l 79 851 l 79 969 l 806 969 l 806 851 l 553 851 l 553 846 q 580 838 565 844 q 608 817 594 831 q 633 782 622 804 q 651 726 644 760 l 806 726 l 806 608 l 654 608 q 583 449 642 511 q 419 375 524 388 l 710 0 l 519 0 z "},"₺":{"ha":846,"x_min":21,"x_max":794,"o":"m 150 324 l 21 261 l 21 369 l 150 432 l 150 544 l 21 482 l 21 590 l 150 653 l 150 969 l 308 969 l 308 728 l 569 853 l 569 744 l 308 619 l 308 507 l 569 632 l 569 524 l 308 399 l 308 131 l 422 131 q 586 202 529 131 q 643 424 643 274 l 794 424 q 773 258 794 335 q 707 123 751 181 q 595 33 663 65 q 438 0 528 0 l 150 0 l 150 324 z "},"₽":{"ha":888,"x_min":33,"x_max":835,"o":"m 306 168 l 306 0 l 149 0 l 149 168 l 33 168 l 33 286 l 149 286 l 149 411 l 33 411 l 33 529 l 149 529 l 149 969 l 554 969 q 761 896 688 969 q 835 690 835 822 q 761 485 835 558 q 554 411 688 411 l 306 411 l 306 286 l 651 286 l 651 168 l 306 168 m 306 529 l 543 529 q 637 560 604 529 q 669 649 669 590 l 669 718 q 637 807 669 776 q 543 838 604 838 l 306 838 l 306 529 z "},"₿":{"ha":906,"x_min":119,"x_max":832,"o":"m 474 29 l 386 29 l 386 -114 l 265 -114 l 265 29 l 119 29 l 119 940 l 265 940 l 265 1083 l 386 1083 l 386 940 l 474 940 l 474 1083 l 594 1083 l 594 939 q 744 863 690 925 q 797 706 797 801 q 751 567 797 613 q 629 511 706 522 l 629 503 q 705 486 668 499 q 770 449 742 474 q 815 385 799 424 q 832 292 832 347 q 814 190 832 238 q 764 106 796 142 q 689 51 732 71 q 594 29 646 31 l 594 -114 l 474 -114 l 474 29 m 269 554 l 528 554 q 640 660 640 554 l 640 703 q 528 808 640 808 l 269 808 l 269 554 m 269 161 l 546 161 q 640 190 606 161 q 675 274 675 218 l 675 317 q 640 401 675 372 q 546 429 606 429 l 269 429 l 269 161 z "},"ﬁ":{"ha":835,"x_min":36,"x_max":740,"o":"m 146 599 l 36 599 l 36 722 l 146 722 l 146 842 q 192 978 146 929 q 329 1028 238 1028 l 449 1028 l 449 904 l 297 904 l 297 722 l 726 722 l 726 0 l 575 0 l 575 599 l 297 599 l 297 0 l 146 0 l 146 599 m 651 851 q 583 874 604 851 q 561 931 561 896 l 561 954 q 583 1011 561 989 q 651 1033 604 1033 q 719 1011 699 1033 q 740 954 740 989 l 740 931 q 719 874 740 896 q 651 851 699 851 z "},"ﬂ":{"ha":868,"x_min":36,"x_max":832,"o":"m 146 599 l 36 599 l 36 722 l 146 722 l 146 842 q 192 978 146 929 q 329 1028 238 1028 l 449 1028 l 449 904 l 297 904 l 297 722 l 449 722 l 449 599 l 297 599 l 297 0 l 146 0 l 146 599 m 735 0 q 619 40 657 0 q 581 150 581 79 l 581 1028 l 732 1028 l 732 124 l 832 124 l 832 0 l 735 0 z "},"á":{"ha":763,"x_min":56,"x_max":722,"o":"m 638 0 q 546 34 578 0 q 507 121 514 68 l 500 121 q 424 18 479 53 q 289 -17 368 -17 q 116 42 176 -17 q 56 199 56 100 q 134 361 56 307 q 364 415 213 415 l 494 415 l 494 476 q 458 579 494 543 q 346 615 422 615 q 242 588 282 615 q 174 517 201 560 l 83 599 q 185 699 119 660 q 356 739 250 739 q 571 674 496 739 q 646 486 646 608 l 646 124 l 722 124 l 722 0 l 638 0 m 332 99 q 449 130 403 99 q 494 214 494 161 l 494 318 l 367 318 q 210 221 210 318 l 210 196 q 242 123 210 147 q 332 99 275 99 m 376 808 l 282 854 l 408 1104 l 540 1040 l 376 808 z "},"â":{"ha":763,"x_min":56,"x_max":722,"o":"m 638 0 q 546 34 578 0 q 507 121 514 68 l 500 121 q 424 18 479 53 q 289 -17 368 -17 q 116 42 176 -17 q 56 199 56 100 q 134 361 56 307 q 364 415 213 415 l 494 415 l 494 476 q 458 579 494 543 q 346 615 422 615 q 242 588 282 615 q 174 517 201 560 l 83 599 q 185 699 119 660 q 356 739 250 739 q 571 674 496 739 q 646 486 646 608 l 646 124 l 722 124 l 722 0 l 638 0 m 332 99 q 449 130 403 99 q 494 214 494 161 l 494 318 l 367 318 q 210 221 210 318 l 210 196 q 242 123 210 147 q 332 99 275 99 m 438 1081 l 604 872 l 526 813 l 361 975 l 196 813 l 118 872 l 285 1081 l 438 1081 z "},"ä":{"ha":763,"x_min":56,"x_max":722,"o":"m 638 0 q 546 34 578 0 q 507 121 514 68 l 500 121 q 424 18 479 53 q 289 -17 368 -17 q 116 42 176 -17 q 56 199 56 100 q 134 361 56 307 q 364 415 213 415 l 494 415 l 494 476 q 458 579 494 543 q 346 615 422 615 q 242 588 282 615 q 174 517 201 560 l 83 599 q 185 699 119 660 q 356 739 250 739 q 571 674 496 739 q 646 486 646 608 l 646 124 l 722 124 l 722 0 l 638 0 m 332 99 q 449 130 403 99 q 494 214 494 161 l 494 318 l 367 318 q 210 221 210 318 l 210 196 q 242 123 210 147 q 332 99 275 99 m 222 847 q 156 868 175 847 q 136 921 136 889 l 136 946 q 156 999 136 978 q 222 1019 175 1019 q 289 999 269 1019 q 308 946 308 978 l 308 921 q 289 868 308 889 q 222 847 269 847 m 500 847 q 433 868 453 847 q 414 921 414 889 l 414 946 q 433 999 414 978 q 500 1019 453 1019 q 567 999 547 1019 q 586 946 586 978 l 586 921 q 567 868 586 889 q 500 847 547 847 z "},"à":{"ha":763,"x_min":56,"x_max":722,"o":"m 638 0 q 546 34 578 0 q 507 121 514 68 l 500 121 q 424 18 479 53 q 289 -17 368 -17 q 116 42 176 -17 q 56 199 56 100 q 134 361 56 307 q 364 415 213 415 l 494 415 l 494 476 q 458 579 494 543 q 346 615 422 615 q 242 588 282 615 q 174 517 201 560 l 83 599 q 185 699 119 660 q 356 739 250 739 q 571 674 496 739 q 646 486 646 608 l 646 124 l 722 124 l 722 0 l 638 0 m 332 99 q 449 130 403 99 q 494 214 494 161 l 494 318 l 367 318 q 210 221 210 318 l 210 196 q 242 123 210 147 q 332 99 275 99 m 182 1040 l 314 1104 l 440 854 l 346 808 l 182 1040 z "},"å":{"ha":763,"x_min":56,"x_max":722,"o":"m 638 0 q 546 34 578 0 q 507 121 514 68 l 500 121 q 424 18 479 53 q 289 -17 368 -17 q 116 42 176 -17 q 56 199 56 100 q 134 361 56 307 q 364 415 213 415 l 494 415 l 494 476 q 458 579 494 543 q 346 615 422 615 q 242 588 282 615 q 174 517 201 560 l 83 599 q 185 699 119 660 q 356 739 250 739 q 571 674 496 739 q 646 486 646 608 l 646 124 l 722 124 l 722 0 l 638 0 m 332 99 q 449 130 403 99 q 494 214 494 161 l 494 318 l 367 318 q 210 221 210 318 l 210 196 q 242 123 210 147 q 332 99 275 99 m 361 789 q 290 802 324 789 q 233 839 257 815 q 194 895 208 863 q 181 965 181 928 q 194 1035 181 1003 q 233 1092 208 1068 q 290 1128 257 1115 q 361 1142 324 1142 q 432 1128 399 1142 q 490 1092 465 1115 q 528 1035 514 1068 q 542 965 542 1003 q 528 895 542 928 q 490 839 514 863 q 432 802 465 815 q 361 789 399 789 m 361 872 q 438 946 438 872 l 438 985 q 361 1058 438 1058 q 285 985 285 1058 l 285 946 q 361 872 285 872 z "},"ã":{"ha":763,"x_min":56,"x_max":722,"o":"m 638 0 q 546 34 578 0 q 507 121 514 68 l 500 121 q 424 18 479 53 q 289 -17 368 -17 q 116 42 176 -17 q 56 199 56 100 q 134 361 56 307 q 364 415 213 415 l 494 415 l 494 476 q 458 579 494 543 q 346 615 422 615 q 242 588 282 615 q 174 517 201 560 l 83 599 q 185 699 119 660 q 356 739 250 739 q 571 674 496 739 q 646 486 646 608 l 646 124 l 722 124 l 722 0 l 638 0 m 332 99 q 449 130 403 99 q 494 214 494 161 l 494 318 l 367 318 q 210 221 210 318 l 210 196 q 242 123 210 147 q 332 99 275 99 m 464 843 q 404 854 429 843 q 356 876 379 865 q 299 901 324 892 q 253 910 275 910 q 211 900 229 910 q 172 872 193 890 l 115 944 q 172 1001 136 976 q 258 1025 207 1025 q 318 1014 293 1025 q 367 992 343 1003 q 423 967 399 976 q 469 958 447 958 q 511 968 493 958 q 550 996 529 978 l 607 924 q 551 867 586 892 q 464 843 515 843 z "},"æ":{"ha":1201,"x_min":56,"x_max":1142,"o":"m 367 322 q 210 224 210 319 l 210 199 q 242 124 210 150 q 335 99 275 99 q 448 130 401 99 q 494 214 494 161 l 494 322 l 367 322 m 982 422 l 982 436 q 939 570 982 519 q 821 621 896 621 q 749 607 782 621 q 694 568 717 593 q 658 508 671 543 q 646 432 646 474 l 646 422 l 982 422 m 839 108 q 952 138 906 108 q 1028 215 999 167 l 1117 129 q 1002 23 1076 63 q 832 -17 928 -17 q 731 -3 778 -17 q 649 33 685 11 q 591 83 614 56 q 558 136 568 110 l 550 136 q 523 84 543 111 q 471 35 503 57 q 393 -2 439 13 q 289 -17 347 -17 q 117 43 179 -17 q 56 199 56 103 q 136 365 56 308 q 364 422 217 422 l 494 422 l 494 476 q 458 579 494 543 q 347 615 422 615 q 241 588 281 615 q 174 518 201 561 l 83 599 q 185 699 119 660 q 356 739 250 739 q 442 726 406 739 q 503 694 478 714 q 545 651 529 675 q 572 603 561 626 l 581 603 q 614 652 592 628 q 667 696 636 676 q 740 727 699 715 q 829 739 781 739 q 965 711 907 739 q 1063 634 1024 683 q 1122 519 1103 585 q 1142 379 1142 454 l 1142 322 l 646 322 l 646 299 q 697 162 646 215 q 839 108 747 108 z "},"ç":{"ha":708,"x_min":60,"x_max":672,"o":"m 388 739 q 565 690 496 739 q 667 561 635 642 l 542 503 q 488 583 526 553 q 388 613 450 613 q 262 560 304 613 q 219 425 219 508 l 219 296 q 262 160 219 213 q 388 108 304 108 q 494 141 454 108 q 557 228 533 174 l 672 167 q 573 37 639 83 q 411 -17 507 -10 l 399 -81 l 403 -86 q 433 -79 418 -82 q 463 -76 447 -76 q 531 -99 503 -76 q 560 -171 560 -122 q 546 -225 560 -203 q 509 -262 532 -247 q 456 -283 486 -276 q 393 -290 426 -290 q 294 -271 331 -290 q 240 -232 257 -251 l 299 -165 q 333 -194 311 -182 q 386 -206 354 -206 q 430 -196 413 -206 q 447 -165 447 -186 q 428 -133 447 -149 q 349 -110 408 -117 l 314 -106 l 332 -12 q 131 104 201 6 q 60 361 60 203 q 82 517 60 447 q 146 637 104 588 q 249 713 188 686 q 388 739 310 739 z "},"ð":{"ha":797,"x_min":61,"x_max":729,"o":"m 615 978 l 510 907 q 596 803 556 860 q 666 681 636 747 q 713 540 696 615 q 729 381 729 465 q 705 205 729 279 q 637 81 681 131 q 532 8 593 32 q 397 -17 471 -17 q 256 9 318 -17 q 151 83 194 35 q 84 197 107 131 q 61 346 61 264 q 82 490 61 425 q 142 600 103 554 q 236 672 181 646 q 360 697 292 697 q 481 661 432 697 q 556 561 529 625 l 564 565 q 503 706 547 639 q 396 833 458 774 l 279 758 l 225 826 l 328 894 q 231 965 281 932 q 129 1028 181 999 l 361 1028 q 401 1001 381 1015 q 443 968 422 986 l 560 1046 l 615 978 m 396 104 q 523 155 475 104 q 571 297 571 206 l 571 383 q 523 526 571 475 q 396 576 475 576 q 269 526 317 576 q 221 383 221 475 l 221 297 q 269 155 221 206 q 396 104 317 104 z "},"é":{"ha":772,"x_min":60,"x_max":713,"o":"m 392 -17 q 253 10 314 -17 q 149 85 192 36 q 83 205 106 135 q 60 361 60 275 q 83 517 60 447 q 149 637 106 588 q 253 713 192 686 q 392 739 314 739 q 531 711 471 739 q 632 634 592 683 q 692 519 672 585 q 713 379 713 454 l 713 322 l 217 322 l 217 299 q 266 162 217 215 q 407 108 315 108 q 519 138 474 108 q 597 217 565 167 l 686 129 q 569 23 646 63 q 392 -17 493 -17 m 392 621 q 320 607 353 621 q 265 568 288 593 q 229 508 242 543 q 217 432 217 474 l 217 422 l 553 422 l 553 436 q 510 570 553 519 q 392 621 467 621 m 410 808 l 315 854 l 442 1104 l 574 1040 l 410 808 z "},"ê":{"ha":772,"x_min":60,"x_max":713,"o":"m 392 -17 q 253 10 314 -17 q 149 85 192 36 q 83 205 106 135 q 60 361 60 275 q 83 517 60 447 q 149 637 106 588 q 253 713 192 686 q 392 739 314 739 q 531 711 471 739 q 632 634 592 683 q 692 519 672 585 q 713 379 713 454 l 713 322 l 217 322 l 217 299 q 266 162 217 215 q 407 108 315 108 q 519 138 474 108 q 597 217 565 167 l 686 129 q 569 23 646 63 q 392 -17 493 -17 m 392 621 q 320 607 353 621 q 265 568 288 593 q 229 508 242 543 q 217 432 217 474 l 217 422 l 553 422 l 553 436 q 510 570 553 519 q 392 621 467 621 m 471 1081 l 638 872 l 560 813 l 394 975 l 229 813 l 151 872 l 318 1081 l 471 1081 z "},"ë":{"ha":772,"x_min":60,"x_max":713,"o":"m 392 -17 q 253 10 314 -17 q 149 85 192 36 q 83 205 106 135 q 60 361 60 275 q 83 517 60 447 q 149 637 106 588 q 253 713 192 686 q 392 739 314 739 q 531 711 471 739 q 632 634 592 683 q 692 519 672 585 q 713 379 713 454 l 713 322 l 217 322 l 217 299 q 266 162 217 215 q 407 108 315 108 q 519 138 474 108 q 597 217 565 167 l 686 129 q 569 23 646 63 q 392 -17 493 -17 m 392 621 q 320 607 353 621 q 265 568 288 593 q 229 508 242 543 q 217 432 217 474 l 217 422 l 553 422 l 553 436 q 510 570 553 519 q 392 621 467 621 m 256 847 q 189 868 208 847 q 169 921 169 889 l 169 946 q 189 999 169 978 q 256 1019 208 1019 q 322 999 303 1019 q 342 946 342 978 l 342 921 q 322 868 342 889 q 256 847 303 847 m 533 847 q 467 868 486 847 q 447 921 447 889 l 447 946 q 467 999 447 978 q 533 1019 486 1019 q 600 999 581 1019 q 619 946 619 978 l 619 921 q 600 868 619 889 q 533 847 581 847 z "},"è":{"ha":772,"x_min":60,"x_max":713,"o":"m 392 -17 q 253 10 314 -17 q 149 85 192 36 q 83 205 106 135 q 60 361 60 275 q 83 517 60 447 q 149 637 106 588 q 253 713 192 686 q 392 739 314 739 q 531 711 471 739 q 632 634 592 683 q 692 519 672 585 q 713 379 713 454 l 713 322 l 217 322 l 217 299 q 266 162 217 215 q 407 108 315 108 q 519 138 474 108 q 597 217 565 167 l 686 129 q 569 23 646 63 q 392 -17 493 -17 m 392 621 q 320 607 353 621 q 265 568 288 593 q 229 508 242 543 q 217 432 217 474 l 217 422 l 553 422 l 553 436 q 510 570 553 519 q 392 621 467 621 m 215 1040 l 347 1104 l 474 854 l 379 808 l 215 1040 z "},"ı":{"ha":368,"x_min":108,"x_max":260,"o":"m 108 0 l 108 722 l 260 722 l 260 0 l 108 0 z "},"í":{"ha":368,"x_min":107,"x_max":365,"o":"m 108 0 l 108 722 l 260 722 l 260 0 l 108 0 m 201 808 l 107 854 l 233 1104 l 365 1040 l 201 808 z "},"î":{"ha":368,"x_min":-57,"x_max":429,"o":"m 108 0 l 108 722 l 260 722 l 260 0 l 108 0 m 263 1081 l 429 872 l 351 813 l 186 975 l 21 813 l -57 872 l 110 1081 l 263 1081 z "},"ï":{"ha":368,"x_min":-39,"x_max":411,"o":"m 108 0 l 108 722 l 260 722 l 260 0 l 108 0 m 47 847 q -19 868 0 847 q -39 921 -39 889 l -39 946 q -19 999 -39 978 q 47 1019 0 1019 q 114 999 94 1019 q 133 946 133 978 l 133 921 q 114 868 133 889 q 47 847 94 847 m 325 847 q 258 868 278 847 q 239 921 239 889 l 239 946 q 258 999 239 978 q 325 1019 278 1019 q 392 999 372 1019 q 411 946 411 978 l 411 921 q 392 868 411 889 q 325 847 372 847 z "},"ì":{"ha":368,"x_min":7,"x_max":265,"o":"m 108 0 l 108 722 l 260 722 l 260 0 l 108 0 m 7 1040 l 139 1104 l 265 854 l 171 808 l 7 1040 z "},"ĳ":{"ha":731,"x_min":94,"x_max":636,"o":"m 185 851 q 116 874 138 851 q 94 931 94 896 l 94 954 q 116 1011 94 989 q 185 1033 138 1033 q 253 1011 232 1033 q 274 954 274 989 l 274 931 q 253 874 274 896 q 185 851 232 851 m 108 722 l 260 722 l 260 0 l 108 0 l 108 722 m 471 722 l 622 722 l 622 -97 q 580 -229 622 -181 q 446 -278 538 -278 l 358 -278 l 358 -154 l 471 -154 l 471 722 m 547 851 q 478 874 500 851 q 457 931 457 896 l 457 954 q 478 1011 457 989 q 547 1033 500 1033 q 615 1011 594 1033 q 636 954 636 989 l 636 931 q 615 874 636 896 q 547 851 594 851 z "},"ȷ":{"ha":368,"x_min":-4,"x_max":260,"o":"m -4 -154 l 108 -154 l 108 722 l 260 722 l 260 -97 q 217 -229 260 -181 q 83 -278 175 -278 l -4 -278 l -4 -154 z "},"ĵ":{"ha":368,"x_min":-57,"x_max":429,"o":"m -4 -154 l 108 -154 l 108 722 l 260 722 l 260 -97 q 217 -229 260 -181 q 83 -278 175 -278 l -4 -278 l -4 -154 m 263 1081 l 429 872 l 351 813 l 186 975 l 21 813 l -57 872 l 110 1081 l 263 1081 z "},"ŀ":{"ha":550,"x_min":108,"x_max":551,"o":"m 263 0 q 147 40 185 0 q 108 150 108 79 l 108 1028 l 260 1028 l 260 124 l 360 124 l 360 0 l 263 0 m 458 365 q 387 388 408 365 q 365 444 365 410 l 365 469 q 387 526 365 504 q 458 549 408 549 q 530 526 508 549 q 551 469 551 504 l 551 444 q 530 388 551 410 q 458 365 508 365 z "},"ł":{"ha":406,"x_min":13,"x_max":408,"o":"m 365 0 l 268 0 q 152 40 190 0 q 114 150 114 79 l 114 433 l 13 400 l 13 519 l 114 553 l 114 1028 l 265 1028 l 265 603 l 408 650 l 408 531 l 265 483 l 265 124 l 365 124 l 365 0 z "},"ñ":{"ha":806,"x_min":108,"x_max":704,"o":"m 108 0 l 108 722 l 260 722 l 260 603 l 267 603 q 338 700 290 661 q 469 739 386 739 q 642 666 581 739 q 704 458 704 593 l 704 0 l 553 0 l 553 439 q 417 608 553 608 q 359 601 388 608 q 308 578 331 593 q 273 539 286 563 q 260 483 260 515 l 260 0 l 108 0 m 511 843 q 451 854 476 843 q 403 876 426 865 q 347 901 371 892 q 300 910 322 910 q 258 900 276 910 q 219 872 240 890 l 163 944 q 219 1001 183 976 q 306 1025 254 1025 q 365 1014 340 1025 q 414 992 390 1003 q 470 967 446 976 q 517 958 494 958 q 558 968 540 958 q 597 996 576 978 l 654 924 q 598 867 633 892 q 511 843 563 843 z "},"ó":{"ha":783,"x_min":60,"x_max":724,"o":"m 392 -17 q 255 10 317 -17 q 150 85 193 36 q 83 205 107 135 q 60 361 60 275 q 83 517 60 447 q 150 637 107 588 q 255 713 193 686 q 392 739 317 739 q 528 713 467 739 q 633 637 590 686 q 700 517 676 588 q 724 361 724 447 q 700 205 724 275 q 633 85 676 135 q 528 10 590 36 q 392 -17 467 -17 m 392 108 q 517 156 469 108 q 564 300 564 204 l 564 422 q 517 566 564 518 q 392 614 469 614 q 267 566 314 614 q 219 422 219 518 l 219 300 q 267 156 219 204 q 392 108 314 108 m 407 808 l 313 854 l 439 1104 l 571 1040 l 407 808 z "},"ô":{"ha":783,"x_min":60,"x_max":724,"o":"m 392 -17 q 255 10 317 -17 q 150 85 193 36 q 83 205 107 135 q 60 361 60 275 q 83 517 60 447 q 150 637 107 588 q 255 713 193 686 q 392 739 317 739 q 528 713 467 739 q 633 637 590 686 q 700 517 676 588 q 724 361 724 447 q 700 205 724 275 q 633 85 676 135 q 528 10 590 36 q 392 -17 467 -17 m 392 108 q 517 156 469 108 q 564 300 564 204 l 564 422 q 517 566 564 518 q 392 614 469 614 q 267 566 314 614 q 219 422 219 518 l 219 300 q 267 156 219 204 q 392 108 314 108 m 468 1081 l 635 872 l 557 813 l 392 975 l 226 813 l 149 872 l 315 1081 l 468 1081 z "},"ö":{"ha":783,"x_min":60,"x_max":724,"o":"m 392 -17 q 255 10 317 -17 q 150 85 193 36 q 83 205 107 135 q 60 361 60 275 q 83 517 60 447 q 150 637 107 588 q 255 713 193 686 q 392 739 317 739 q 528 713 467 739 q 633 637 590 686 q 700 517 676 588 q 724 361 724 447 q 700 205 724 275 q 633 85 676 135 q 528 10 590 36 q 392 -17 467 -17 m 392 108 q 517 156 469 108 q 564 300 564 204 l 564 422 q 517 566 564 518 q 392 614 469 614 q 267 566 314 614 q 219 422 219 518 l 219 300 q 267 156 219 204 q 392 108 314 108 m 253 847 q 186 868 206 847 q 167 921 167 889 l 167 946 q 186 999 167 978 q 253 1019 206 1019 q 319 999 300 1019 q 339 946 339 978 l 339 921 q 319 868 339 889 q 253 847 300 847 m 531 847 q 464 868 483 847 q 444 921 444 889 l 444 946 q 464 999 444 978 q 531 1019 483 1019 q 597 999 578 1019 q 617 946 617 978 l 617 921 q 597 868 617 889 q 531 847 578 847 z "},"ò":{"ha":783,"x_min":60,"x_max":724,"o":"m 392 -17 q 255 10 317 -17 q 150 85 193 36 q 83 205 107 135 q 60 361 60 275 q 83 517 60 447 q 150 637 107 588 q 255 713 193 686 q 392 739 317 739 q 528 713 467 739 q 633 637 590 686 q 700 517 676 588 q 724 361 724 447 q 700 205 724 275 q 633 85 676 135 q 528 10 590 36 q 392 -17 467 -17 m 392 108 q 517 156 469 108 q 564 300 564 204 l 564 422 q 517 566 564 518 q 392 614 469 614 q 267 566 314 614 q 219 422 219 518 l 219 300 q 267 156 219 204 q 392 108 314 108 m 213 1040 l 344 1104 l 471 854 l 376 808 l 213 1040 z "},"ø":{"ha":792,"x_min":36,"x_max":756,"o":"m 36 1 l 129 117 q 81 226 97 165 q 64 361 64 286 q 88 517 64 447 q 154 637 111 588 q 259 713 197 686 q 396 739 321 739 q 588 681 506 739 l 672 783 l 756 721 l 661 604 q 710 496 693 557 q 728 361 728 435 q 704 205 728 275 q 638 85 681 135 q 533 10 594 36 q 396 -17 471 -17 q 291 -2 339 -17 q 204 40 243 13 l 119 -61 l 36 1 m 396 104 q 523 155 475 104 q 571 303 571 206 l 571 419 q 563 489 571 457 l 281 143 q 396 104 324 104 m 221 303 q 229 233 221 264 l 511 578 q 396 618 464 618 q 269 567 317 618 q 221 419 221 517 l 221 303 z "},"õ":{"ha":783,"x_min":60,"x_max":724,"o":"m 392 -17 q 255 10 317 -17 q 150 85 193 36 q 83 205 107 135 q 60 361 60 275 q 83 517 60 447 q 150 637 107 588 q 255 713 193 686 q 392 739 317 739 q 528 713 467 739 q 633 637 590 686 q 700 517 676 588 q 724 361 724 447 q 700 205 724 275 q 633 85 676 135 q 528 10 590 36 q 392 -17 467 -17 m 392 108 q 517 156 469 108 q 564 300 564 204 l 564 422 q 517 566 564 518 q 392 614 469 614 q 267 566 314 614 q 219 422 219 518 l 219 300 q 267 156 219 204 q 392 108 314 108 m 494 843 q 435 854 460 843 q 386 876 410 865 q 330 901 354 892 q 283 910 306 910 q 242 900 260 910 q 203 872 224 890 l 146 944 q 202 1001 167 976 q 289 1025 238 1025 q 349 1014 324 1025 q 397 992 374 1003 q 453 967 429 976 q 500 958 478 958 q 542 968 524 958 q 581 996 560 978 l 638 924 q 581 867 617 892 q 494 843 546 843 z "},"œ":{"ha":1279,"x_min":60,"x_max":1219,"o":"m 392 108 q 517 156 469 108 q 564 300 564 204 l 564 422 q 517 566 564 518 q 392 614 469 614 q 267 566 314 614 q 219 422 219 518 l 219 300 q 267 156 219 204 q 392 108 314 108 m 1060 422 l 1060 436 q 1017 570 1060 519 q 899 621 974 621 q 827 607 860 621 q 772 568 794 593 q 736 508 749 543 q 724 432 724 474 l 724 422 l 1060 422 m 907 -17 q 741 22 807 -17 q 647 118 675 61 l 639 118 q 545 21 610 58 q 392 -17 481 -17 q 255 10 317 -17 q 150 85 193 36 q 83 205 107 135 q 60 361 60 275 q 83 517 60 447 q 150 637 107 588 q 255 713 193 686 q 392 739 317 739 q 542 705 478 739 q 639 603 606 671 l 647 603 q 743 702 678 665 q 900 739 808 739 q 1034 713 975 739 q 1135 639 1093 686 q 1198 526 1176 592 q 1219 379 1219 460 l 1219 322 l 724 322 l 724 299 q 773 162 724 215 q 917 108 822 108 q 1029 138 983 108 q 1107 217 1075 167 l 1196 129 q 1081 23 1156 63 q 907 -17 1007 -17 z "},"š":{"ha":686,"x_min":44,"x_max":624,"o":"m 338 -17 q 165 19 235 -17 q 44 119 96 56 l 142 208 q 231 133 182 160 q 346 106 281 106 q 445 131 413 106 q 478 203 478 157 q 455 262 478 238 q 375 293 432 286 l 308 301 q 134 366 197 315 q 71 517 71 417 q 90 610 71 569 q 145 680 110 651 q 230 724 181 708 q 339 739 279 739 q 498 708 436 739 q 608 624 560 678 l 515 535 q 442 592 488 568 q 339 617 397 617 q 247 592 276 617 q 217 526 217 567 q 243 464 217 485 q 328 433 269 443 l 394 425 q 569 355 514 407 q 624 215 624 303 q 603 120 624 163 q 546 47 583 78 q 456 0 508 17 q 338 -17 403 -17 m 263 825 l 96 1033 l 174 1092 l 339 931 l 504 1092 l 582 1033 l 415 825 l 263 825 z "},"ß":{"ha":919,"x_min":36,"x_max":883,"o":"m 883 221 q 865 122 883 165 q 813 47 846 78 q 731 0 779 17 q 625 -17 683 -17 q 477 12 539 -17 q 374 94 415 40 l 465 183 q 628 103 532 103 q 711 128 681 103 q 742 203 742 154 q 721 267 742 243 q 647 306 700 292 l 604 317 q 531 344 564 328 q 473 383 497 360 q 435 441 449 407 q 421 521 421 475 q 481 665 421 611 q 646 729 542 718 l 646 735 q 471 925 646 925 q 297 735 297 925 l 297 0 l 146 0 l 146 599 l 36 599 l 36 722 l 146 722 l 146 728 q 232 960 146 875 q 469 1044 318 1044 q 602 1022 543 1044 q 703 960 661 1000 q 767 860 744 919 q 789 729 789 801 l 789 624 l 718 624 q 601 603 640 624 q 563 532 563 582 q 588 468 563 488 q 663 435 614 449 l 704 422 q 840 351 796 399 q 883 221 883 304 z "},"þ":{"ha":822,"x_min":108,"x_max":757,"o":"m 108 1028 l 260 1028 l 260 603 l 267 603 q 344 703 290 668 q 469 739 397 739 q 682 640 607 739 q 757 361 757 540 q 682 83 757 182 q 469 -17 607 -17 q 344 19 397 -17 q 267 119 290 56 l 260 119 l 260 -278 l 108 -278 l 108 1028 m 424 114 q 550 165 503 114 q 597 299 597 215 l 597 424 q 550 558 597 507 q 424 608 503 608 q 307 574 354 608 q 260 485 260 540 l 260 238 q 307 148 260 182 q 424 114 354 114 z "},"ú":{"ha":806,"x_min":101,"x_max":697,"o":"m 546 119 l 540 119 q 515 68 531 93 q 474 24 499 43 q 416 -6 450 6 q 338 -17 382 -17 q 163 56 225 -17 q 101 263 101 128 l 101 722 l 253 722 l 253 282 q 392 114 253 114 q 449 122 421 114 q 498 144 476 129 q 533 183 519 160 q 546 239 546 207 l 546 722 l 697 722 l 697 0 l 546 0 l 546 119 m 417 808 l 322 854 l 449 1104 l 581 1040 l 417 808 z "},"û":{"ha":806,"x_min":101,"x_max":697,"o":"m 546 119 l 540 119 q 515 68 531 93 q 474 24 499 43 q 416 -6 450 6 q 338 -17 382 -17 q 163 56 225 -17 q 101 263 101 128 l 101 722 l 253 722 l 253 282 q 392 114 253 114 q 449 122 421 114 q 498 144 476 129 q 533 183 519 160 q 546 239 546 207 l 546 722 l 697 722 l 697 0 l 546 0 l 546 119 m 478 1081 l 644 872 l 567 813 l 401 975 l 236 813 l 158 872 l 325 1081 l 478 1081 z "},"ü":{"ha":806,"x_min":101,"x_max":697,"o":"m 546 119 l 540 119 q 515 68 531 93 q 474 24 499 43 q 416 -6 450 6 q 338 -17 382 -17 q 163 56 225 -17 q 101 263 101 128 l 101 722 l 253 722 l 253 282 q 392 114 253 114 q 449 122 421 114 q 498 144 476 129 q 533 183 519 160 q 546 239 546 207 l 546 722 l 697 722 l 697 0 l 546 0 l 546 119 m 263 847 q 196 868 215 847 q 176 921 176 889 l 176 946 q 196 999 176 978 q 263 1019 215 1019 q 329 999 310 1019 q 349 946 349 978 l 349 921 q 329 868 349 889 q 263 847 310 847 m 540 847 q 474 868 493 847 q 454 921 454 889 l 454 946 q 474 999 454 978 q 540 1019 493 1019 q 607 999 588 1019 q 626 946 626 978 l 626 921 q 607 868 626 889 q 540 847 588 847 z "},"ù":{"ha":806,"x_min":101,"x_max":697,"o":"m 546 119 l 540 119 q 515 68 531 93 q 474 24 499 43 q 416 -6 450 6 q 338 -17 382 -17 q 163 56 225 -17 q 101 263 101 128 l 101 722 l 253 722 l 253 282 q 392 114 253 114 q 449 122 421 114 q 498 144 476 129 q 533 183 519 160 q 546 239 546 207 l 546 722 l 697 722 l 697 0 l 546 0 l 546 119 m 222 1040 l 354 1104 l 481 854 l 386 808 l 222 1040 z "},"ý":{"ha":714,"x_min":17,"x_max":697,"o":"m 551 722 l 697 722 l 393 -143 q 365 -205 381 -179 q 327 -247 349 -231 q 275 -270 306 -262 q 203 -278 244 -278 l 115 -278 l 115 -154 l 238 -154 l 279 -32 l 17 722 l 168 722 l 313 297 l 354 140 l 361 140 l 407 297 l 551 722 m 376 808 l 282 854 l 408 1104 l 540 1040 l 376 808 z "},"ÿ":{"ha":714,"x_min":17,"x_max":697,"o":"m 551 722 l 697 722 l 393 -143 q 365 -205 381 -179 q 327 -247 349 -231 q 275 -270 306 -262 q 203 -278 244 -278 l 115 -278 l 115 -154 l 238 -154 l 279 -32 l 17 722 l 168 722 l 313 297 l 354 140 l 361 140 l 407 297 l 551 722 m 222 847 q 156 868 175 847 q 136 921 136 889 l 136 946 q 156 999 136 978 q 222 1019 175 1019 q 289 999 269 1019 q 308 946 308 978 l 308 921 q 289 868 308 889 q 222 847 269 847 m 500 847 q 433 868 453 847 q 414 921 414 889 l 414 946 q 433 999 414 978 q 500 1019 453 1019 q 567 999 547 1019 q 586 946 586 978 l 586 921 q 567 868 586 889 q 500 847 547 847 z "},"ž":{"ha":676,"x_min":50,"x_max":626,"o":"m 50 0 l 50 122 l 438 599 l 63 599 l 63 722 l 617 722 l 617 606 l 224 124 l 626 124 l 626 0 l 50 0 m 264 825 l 97 1033 l 175 1092 l 340 931 l 506 1092 l 583 1033 l 417 825 l 264 825 z "},"Á":{"ha":919,"x_min":31,"x_max":889,"o":"m 725 0 l 638 263 l 275 263 l 190 0 l 31 0 l 361 969 l 558 969 l 889 0 l 725 0 m 460 825 l 453 825 l 313 397 l 599 397 l 460 825 m 474 1040 l 379 1085 l 506 1335 l 638 1271 l 474 1040 z "},"Â":{"ha":919,"x_min":31,"x_max":889,"o":"m 725 0 l 638 263 l 275 263 l 190 0 l 31 0 l 361 969 l 558 969 l 889 0 l 725 0 m 460 825 l 453 825 l 313 397 l 599 397 l 460 825 m 535 1311 l 701 1103 l 624 1044 l 458 1206 l 293 1044 l 215 1103 l 382 1311 l 535 1311 z "},"Ä":{"ha":919,"x_min":31,"x_max":889,"o":"m 725 0 l 638 263 l 275 263 l 190 0 l 31 0 l 361 969 l 558 969 l 889 0 l 725 0 m 460 825 l 453 825 l 313 397 l 599 397 l 460 825 m 319 1078 q 252 1099 272 1078 q 232 1153 232 1121 l 232 1178 q 252 1231 232 1210 q 319 1253 272 1253 q 387 1231 367 1253 q 407 1178 407 1210 l 407 1153 q 387 1099 407 1121 q 319 1078 367 1078 m 597 1078 q 530 1099 550 1078 q 510 1153 510 1121 l 510 1178 q 530 1231 510 1210 q 597 1253 550 1253 q 665 1231 644 1253 q 685 1178 685 1210 l 685 1153 q 665 1099 685 1121 q 597 1078 644 1078 z "},"À":{"ha":919,"x_min":31,"x_max":889,"o":"m 725 0 l 638 263 l 275 263 l 190 0 l 31 0 l 361 969 l 558 969 l 889 0 l 725 0 m 460 825 l 453 825 l 313 397 l 599 397 l 460 825 m 279 1271 l 411 1335 l 538 1085 l 443 1040 l 279 1271 z "},"Å":{"ha":919,"x_min":31,"x_max":889,"o":"m 725 0 l 638 263 l 275 263 l 190 0 l 31 0 l 361 969 l 558 969 l 889 0 l 725 0 m 460 825 l 453 825 l 313 397 l 599 397 l 460 825 m 458 1019 q 388 1033 421 1019 q 330 1069 354 1046 q 292 1126 306 1093 q 278 1196 278 1158 q 292 1266 278 1233 q 330 1322 306 1299 q 388 1359 354 1346 q 458 1372 421 1372 q 529 1359 496 1372 q 587 1322 563 1346 q 625 1266 611 1299 q 639 1196 639 1233 q 625 1126 639 1158 q 587 1069 611 1093 q 529 1033 563 1046 q 458 1019 496 1019 m 458 1104 q 515 1124 494 1104 q 535 1178 535 1143 l 535 1215 q 515 1269 535 1250 q 458 1289 494 1289 q 402 1269 422 1289 q 382 1215 382 1250 l 382 1178 q 402 1124 382 1143 q 458 1104 422 1104 z "},"Ã":{"ha":919,"x_min":31,"x_max":889,"o":"m 725 0 l 638 263 l 275 263 l 190 0 l 31 0 l 361 969 l 558 969 l 889 0 l 725 0 m 460 825 l 453 825 l 313 397 l 599 397 l 460 825 m 561 1074 q 501 1085 526 1074 q 453 1107 476 1096 q 397 1131 421 1122 q 350 1139 372 1139 q 308 1130 326 1139 q 269 1103 290 1121 l 213 1175 q 269 1231 233 1207 q 356 1256 304 1256 q 415 1244 390 1256 q 464 1222 440 1233 q 520 1199 496 1207 q 567 1190 544 1190 q 608 1199 590 1190 q 647 1226 626 1208 l 704 1154 q 648 1098 683 1122 q 561 1074 613 1074 z "},"Æ":{"ha":1296,"x_min":3,"x_max":1213,"o":"m 592 261 l 289 261 l 161 0 l 3 0 l 489 969 l 1213 969 l 1213 831 l 749 831 l 749 561 l 1169 561 l 1169 422 l 749 422 l 749 139 l 1213 139 l 1213 0 l 592 0 l 592 261 m 568 831 l 353 397 l 592 397 l 592 831 l 568 831 z "},"Ç":{"ha":881,"x_min":76,"x_max":833,"o":"m 483 846 q 307 769 371 846 q 243 558 243 693 l 243 411 q 307 200 243 276 q 483 124 371 124 q 626 169 571 124 q 707 285 681 214 l 833 208 q 704 48 786 107 q 503 -17 622 -11 l 490 -81 l 494 -86 q 524 -79 510 -82 q 554 -76 539 -76 q 623 -99 594 -76 q 651 -171 651 -122 q 638 -225 651 -203 q 601 -262 624 -247 q 548 -283 578 -276 q 485 -290 518 -290 q 385 -271 422 -290 q 332 -232 349 -251 l 390 -165 q 424 -194 403 -182 q 478 -206 446 -206 q 522 -196 504 -206 q 539 -165 539 -186 q 520 -133 539 -149 q 440 -110 501 -117 l 406 -106 l 424 -12 q 168 133 260 7 q 76 485 76 260 q 104 700 76 607 q 185 857 132 793 q 313 953 238 921 q 483 986 389 986 q 695 931 610 986 q 829 767 781 875 l 697 694 q 620 805 672 764 q 483 846 568 846 z "},"Đ":{"ha":954,"x_min":18,"x_max":878,"o":"m 125 444 l 18 444 l 18 564 l 125 564 l 125 969 l 468 969 q 637 939 561 969 q 766 848 713 908 q 849 697 819 788 q 878 485 878 606 q 849 273 878 364 q 766 122 819 182 q 637 31 713 61 q 468 0 561 0 l 125 0 l 125 444 m 468 139 q 643 207 576 139 q 710 407 710 275 l 710 563 q 643 763 710 694 q 468 831 576 831 l 282 831 l 282 564 l 463 564 l 463 444 l 282 444 l 282 139 l 468 139 z "},"Ð":{"ha":954,"x_min":18,"x_max":878,"o":"m 125 444 l 18 444 l 18 564 l 125 564 l 125 969 l 468 969 q 637 939 561 969 q 766 848 713 908 q 849 697 819 788 q 878 485 878 606 q 849 273 878 364 q 766 122 819 182 q 637 31 713 61 q 468 0 561 0 l 125 0 l 125 444 m 468 139 q 643 207 576 139 q 710 407 710 275 l 710 563 q 643 763 710 694 q 468 831 576 831 l 282 831 l 282 564 l 463 564 l 463 444 l 282 444 l 282 139 l 468 139 z "},"É":{"ha":824,"x_min":119,"x_max":740,"o":"m 119 0 l 119 969 l 740 969 l 740 831 l 276 831 l 276 561 l 697 561 l 697 422 l 276 422 l 276 139 l 740 139 l 740 0 l 119 0 m 444 1040 l 350 1085 l 476 1335 l 608 1271 l 444 1040 z "},"Ê":{"ha":824,"x_min":119,"x_max":740,"o":"m 119 0 l 119 969 l 740 969 l 740 831 l 276 831 l 276 561 l 697 561 l 697 422 l 276 422 l 276 139 l 740 139 l 740 0 l 119 0 m 506 1311 l 672 1103 l 594 1044 l 429 1206 l 264 1044 l 186 1103 l 353 1311 l 506 1311 z "},"Ë":{"ha":824,"x_min":119,"x_max":740,"o":"m 119 0 l 119 969 l 740 969 l 740 831 l 276 831 l 276 561 l 697 561 l 697 422 l 276 422 l 276 139 l 740 139 l 740 0 l 119 0 m 290 1078 q 223 1099 243 1078 q 203 1153 203 1121 l 203 1178 q 223 1231 203 1210 q 290 1253 243 1253 q 358 1231 338 1253 q 378 1178 378 1210 l 378 1153 q 358 1099 378 1121 q 290 1078 338 1078 m 568 1078 q 501 1099 521 1078 q 481 1153 481 1121 l 481 1178 q 501 1231 481 1210 q 568 1253 521 1253 q 635 1231 615 1253 q 656 1178 656 1210 l 656 1153 q 635 1099 656 1121 q 568 1078 615 1078 z "},"È":{"ha":824,"x_min":119,"x_max":740,"o":"m 119 0 l 119 969 l 740 969 l 740 831 l 276 831 l 276 561 l 697 561 l 697 422 l 276 422 l 276 139 l 740 139 l 740 0 l 119 0 m 250 1271 l 382 1335 l 508 1085 l 414 1040 l 250 1271 z "},"Í":{"ha":578,"x_min":78,"x_max":500,"o":"m 78 0 l 78 128 l 210 128 l 210 842 l 78 842 l 78 969 l 500 969 l 500 842 l 367 842 l 367 128 l 500 128 l 500 0 l 78 0 m 304 1040 l 210 1085 l 336 1335 l 468 1271 l 304 1040 z "},"Î":{"ha":578,"x_min":46,"x_max":532,"o":"m 78 0 l 78 128 l 210 128 l 210 842 l 78 842 l 78 969 l 500 969 l 500 842 l 367 842 l 367 128 l 500 128 l 500 0 l 78 0 m 365 1311 l 532 1103 l 454 1044 l 289 1206 l 124 1044 l 46 1103 l 213 1311 l 365 1311 z "},"Ï":{"ha":578,"x_min":63,"x_max":515,"o":"m 78 0 l 78 128 l 210 128 l 210 842 l 78 842 l 78 969 l 500 969 l 500 842 l 367 842 l 367 128 l 500 128 l 500 0 l 78 0 m 150 1078 q 83 1099 103 1078 q 63 1153 63 1121 l 63 1178 q 83 1231 63 1210 q 150 1253 103 1253 q 217 1231 197 1253 q 238 1178 238 1210 l 238 1153 q 217 1099 238 1121 q 150 1078 197 1078 m 428 1078 q 360 1099 381 1078 q 340 1153 340 1121 l 340 1178 q 360 1231 340 1210 q 428 1253 381 1253 q 495 1231 475 1253 q 515 1178 515 1210 l 515 1153 q 495 1099 515 1121 q 428 1078 475 1078 z "},"Ì":{"ha":578,"x_min":78,"x_max":500,"o":"m 78 0 l 78 128 l 210 128 l 210 842 l 78 842 l 78 969 l 500 969 l 500 842 l 367 842 l 367 128 l 500 128 l 500 0 l 78 0 m 110 1271 l 242 1335 l 368 1085 l 274 1040 l 110 1271 z "},"Ĳ":{"ha":903,"x_min":114,"x_max":789,"o":"m 789 969 l 789 304 q 765 170 789 229 q 698 69 742 111 q 592 6 654 28 q 451 -17 529 -17 q 322 2 378 -17 q 224 53 265 21 q 158 132 183 86 q 122 232 132 178 l 267 264 q 326 163 281 201 q 453 124 371 124 q 582 165 532 124 q 632 296 632 206 l 632 838 l 460 838 l 460 969 l 789 969 m 114 969 l 271 969 l 271 414 l 114 414 l 114 969 z "},"Ł":{"ha":725,"x_min":-10,"x_max":676,"o":"m 676 0 l 125 0 l 125 360 l -10 315 l -10 436 l 125 481 l 125 969 l 282 969 l 282 532 l 519 611 l 519 488 l 282 410 l 282 139 l 676 139 l 676 0 z "},"Ñ":{"ha":992,"x_min":119,"x_max":872,"o":"m 381 536 l 274 742 l 269 742 l 269 0 l 119 0 l 119 969 l 294 969 l 611 433 l 718 228 l 722 228 l 722 969 l 872 969 l 872 0 l 697 0 l 381 536 m 599 1074 q 539 1085 564 1074 q 490 1107 514 1096 q 434 1131 458 1122 q 388 1139 410 1139 q 346 1130 364 1139 q 307 1103 328 1121 l 250 1175 q 306 1231 271 1207 q 393 1256 342 1256 q 453 1244 428 1256 q 501 1222 478 1233 q 558 1199 533 1207 q 604 1190 582 1190 q 646 1199 628 1190 q 685 1226 664 1208 l 742 1154 q 685 1098 721 1122 q 599 1074 650 1074 z "},"Ó":{"ha":989,"x_min":76,"x_max":913,"o":"m 494 -17 q 323 16 400 -17 q 191 112 246 49 q 106 269 136 175 q 76 485 76 363 q 106 701 76 607 q 191 858 136 794 q 323 953 246 921 q 494 986 400 986 q 666 953 589 986 q 798 858 743 921 q 883 701 853 794 q 913 485 913 607 q 883 269 913 363 q 798 112 853 175 q 666 16 743 49 q 494 -17 589 -17 m 494 124 q 597 143 550 124 q 676 199 643 163 q 726 289 708 236 q 744 408 744 342 l 744 561 q 726 681 744 628 q 676 770 708 733 q 597 826 643 807 q 494 846 550 846 q 392 826 438 846 q 313 770 346 807 q 263 681 281 733 q 244 561 244 628 l 244 408 q 263 289 244 342 q 313 199 281 236 q 392 143 346 163 q 494 124 438 124 m 510 1040 l 415 1085 l 542 1335 l 674 1271 l 510 1040 z "},"Ô":{"ha":989,"x_min":76,"x_max":913,"o":"m 494 -17 q 323 16 400 -17 q 191 112 246 49 q 106 269 136 175 q 76 485 76 363 q 106 701 76 607 q 191 858 136 794 q 323 953 246 921 q 494 986 400 986 q 666 953 589 986 q 798 858 743 921 q 883 701 853 794 q 913 485 913 607 q 883 269 913 363 q 798 112 853 175 q 666 16 743 49 q 494 -17 589 -17 m 494 124 q 597 143 550 124 q 676 199 643 163 q 726 289 708 236 q 744 408 744 342 l 744 561 q 726 681 744 628 q 676 770 708 733 q 597 826 643 807 q 494 846 550 846 q 392 826 438 846 q 313 770 346 807 q 263 681 281 733 q 244 561 244 628 l 244 408 q 263 289 244 342 q 313 199 281 236 q 392 143 346 163 q 494 124 438 124 m 571 1311 l 738 1103 l 660 1044 l 494 1206 l 329 1044 l 251 1103 l 418 1311 l 571 1311 z "},"Ö":{"ha":989,"x_min":76,"x_max":913,"o":"m 494 -17 q 323 16 400 -17 q 191 112 246 49 q 106 269 136 175 q 76 485 76 363 q 106 701 76 607 q 191 858 136 794 q 323 953 246 921 q 494 986 400 986 q 666 953 589 986 q 798 858 743 921 q 883 701 853 794 q 913 485 913 607 q 883 269 913 363 q 798 112 853 175 q 666 16 743 49 q 494 -17 589 -17 m 494 124 q 597 143 550 124 q 676 199 643 163 q 726 289 708 236 q 744 408 744 342 l 744 561 q 726 681 744 628 q 676 770 708 733 q 597 826 643 807 q 494 846 550 846 q 392 826 438 846 q 313 770 346 807 q 263 681 281 733 q 244 561 244 628 l 244 408 q 263 289 244 342 q 313 199 281 236 q 392 143 346 163 q 494 124 438 124 m 356 1078 q 288 1099 308 1078 q 268 1153 268 1121 l 268 1178 q 288 1231 268 1210 q 356 1253 308 1253 q 423 1231 403 1253 q 443 1178 443 1210 l 443 1153 q 423 1099 443 1121 q 356 1078 403 1078 m 633 1078 q 566 1099 586 1078 q 546 1153 546 1121 l 546 1178 q 566 1231 546 1210 q 633 1253 586 1253 q 701 1231 681 1253 q 721 1178 721 1210 l 721 1153 q 701 1099 721 1121 q 633 1078 681 1078 z "},"Ò":{"ha":989,"x_min":76,"x_max":913,"o":"m 494 -17 q 323 16 400 -17 q 191 112 246 49 q 106 269 136 175 q 76 485 76 363 q 106 701 76 607 q 191 858 136 794 q 323 953 246 921 q 494 986 400 986 q 666 953 589 986 q 798 858 743 921 q 883 701 853 794 q 913 485 913 607 q 883 269 913 363 q 798 112 853 175 q 666 16 743 49 q 494 -17 589 -17 m 494 124 q 597 143 550 124 q 676 199 643 163 q 726 289 708 236 q 744 408 744 342 l 744 561 q 726 681 744 628 q 676 770 708 733 q 597 826 643 807 q 494 846 550 846 q 392 826 438 846 q 313 770 346 807 q 263 681 281 733 q 244 561 244 628 l 244 408 q 263 289 244 342 q 313 199 281 236 q 392 143 346 163 q 494 124 438 124 m 315 1271 l 447 1335 l 574 1085 l 479 1040 l 315 1271 z "},"Ø":{"ha":989,"x_min":76,"x_max":913,"o":"m 494 -17 q 268 44 363 -17 l 189 -69 l 89 -4 l 179 126 q 103 278 131 189 q 76 485 76 368 q 106 701 76 607 q 191 858 136 794 q 323 953 246 921 q 494 986 400 986 q 721 925 626 986 l 800 1039 l 900 974 l 810 843 q 885 691 858 781 q 913 485 913 601 q 883 269 913 363 q 798 112 853 175 q 666 16 743 49 q 494 -17 589 -17 m 240 406 q 272 251 240 318 l 644 806 q 494 853 582 853 q 390 833 438 853 q 310 775 343 813 q 258 684 276 738 q 240 564 240 631 l 240 406 m 749 564 q 717 718 749 651 l 344 164 q 494 117 407 117 q 599 137 551 117 q 679 194 646 157 q 731 285 713 232 q 749 406 749 339 l 749 564 z "},"Õ":{"ha":989,"x_min":76,"x_max":913,"o":"m 494 -17 q 323 16 400 -17 q 191 112 246 49 q 106 269 136 175 q 76 485 76 363 q 106 701 76 607 q 191 858 136 794 q 323 953 246 921 q 494 986 400 986 q 666 953 589 986 q 798 858 743 921 q 883 701 853 794 q 913 485 913 607 q 883 269 913 363 q 798 112 853 175 q 666 16 743 49 q 494 -17 589 -17 m 494 124 q 597 143 550 124 q 676 199 643 163 q 726 289 708 236 q 744 408 744 342 l 744 561 q 726 681 744 628 q 676 770 708 733 q 597 826 643 807 q 494 846 550 846 q 392 826 438 846 q 313 770 346 807 q 263 681 281 733 q 244 561 244 628 l 244 408 q 263 289 244 342 q 313 199 281 236 q 392 143 346 163 q 494 124 438 124 m 597 1074 q 538 1085 563 1074 q 489 1107 513 1096 q 433 1131 457 1122 q 386 1139 408 1139 q 344 1130 363 1139 q 306 1103 326 1121 l 249 1175 q 305 1231 269 1207 q 392 1256 340 1256 q 451 1244 426 1256 q 500 1222 476 1233 q 556 1199 532 1207 q 603 1190 581 1190 q 644 1199 626 1190 q 683 1226 663 1208 l 740 1154 q 684 1098 719 1122 q 597 1074 649 1074 z "},"Œ":{"ha":1375,"x_min":76,"x_max":1292,"o":"m 675 0 q 594 -12 639 -7 q 504 -17 549 -17 q 326 15 406 -17 q 192 111 247 47 q 106 268 136 175 q 76 485 76 361 q 106 701 76 607 q 192 858 136 794 q 326 954 247 922 q 504 986 406 986 q 594 981 549 986 q 679 969 640 976 l 1292 969 l 1292 831 l 828 831 l 828 561 l 1249 561 l 1249 422 l 828 422 l 828 139 l 1292 139 l 1292 0 l 675 0 m 513 124 q 594 128 553 124 q 671 143 635 132 l 671 826 q 594 841 635 836 q 513 846 553 846 q 311 770 378 846 q 244 561 244 694 l 244 408 q 311 199 244 275 q 513 124 378 124 z "},"Š":{"ha":831,"x_min":56,"x_max":761,"o":"m 410 -17 q 202 28 288 -17 q 56 147 117 72 l 164 249 q 277 154 215 186 q 418 122 339 122 q 558 164 511 122 q 606 276 606 206 q 572 367 606 333 q 454 417 539 400 l 368 432 q 156 525 226 458 q 85 708 85 592 q 109 824 85 772 q 177 912 133 876 q 283 967 221 947 q 424 986 346 986 q 614 948 533 986 q 751 838 694 910 l 642 740 q 550 818 604 789 q 415 847 496 847 q 286 814 332 847 q 240 717 240 781 q 278 626 240 656 q 394 581 315 596 l 481 563 q 694 468 626 535 q 761 285 761 401 q 738 161 761 217 q 669 66 714 106 q 558 5 624 26 q 410 -17 493 -17 m 335 1056 l 168 1264 l 246 1322 l 411 1161 l 576 1322 l 654 1264 l 488 1056 l 335 1056 z "},"ẞ":{"ha":990,"x_min":119,"x_max":932,"o":"m 932 285 q 910 161 932 217 q 848 66 889 106 q 749 5 807 26 q 621 -17 692 -17 q 344 104 438 -17 l 447 201 q 522 137 481 160 q 621 114 564 114 q 731 154 692 114 q 769 258 769 194 l 769 303 q 730 405 769 367 q 608 443 690 443 l 476 443 l 476 574 l 701 835 l 276 835 l 276 0 l 119 0 l 119 969 l 858 969 l 858 822 l 640 568 l 640 563 q 753 543 700 561 q 847 490 807 525 q 909 404 886 456 q 932 285 932 353 z "},"Þ":{"ha":871,"x_min":119,"x_max":818,"o":"m 119 0 l 119 969 l 276 969 l 276 783 l 536 783 q 655 763 603 783 q 744 703 707 742 q 799 611 781 665 q 818 492 818 557 q 799 372 818 426 q 744 280 781 318 q 655 221 707 242 q 536 200 603 200 l 276 200 l 276 0 l 119 0 m 276 338 l 526 338 q 619 369 586 338 q 653 458 653 400 l 653 525 q 619 615 653 583 q 526 646 586 646 l 276 646 l 276 338 z "},"Ú":{"ha":953,"x_min":114,"x_max":839,"o":"m 268 969 l 268 372 q 315 186 268 249 q 476 124 363 124 q 638 186 590 124 q 685 372 685 249 l 685 969 l 839 969 l 839 397 q 819 213 839 290 q 757 84 800 135 q 645 8 714 33 q 476 -17 576 -17 q 308 8 376 -17 q 196 84 239 33 q 133 213 153 135 q 114 397 114 290 l 114 969 l 268 969 m 492 1040 l 397 1085 l 524 1335 l 656 1271 l 492 1040 z "},"Û":{"ha":953,"x_min":114,"x_max":839,"o":"m 268 969 l 268 372 q 315 186 268 249 q 476 124 363 124 q 638 186 590 124 q 685 372 685 249 l 685 969 l 839 969 l 839 397 q 819 213 839 290 q 757 84 800 135 q 645 8 714 33 q 476 -17 576 -17 q 308 8 376 -17 q 196 84 239 33 q 133 213 153 135 q 114 397 114 290 l 114 969 l 268 969 m 553 1311 l 719 1103 l 642 1044 l 476 1206 l 311 1044 l 233 1103 l 400 1311 l 553 1311 z "},"Ü":{"ha":953,"x_min":114,"x_max":839,"o":"m 268 969 l 268 372 q 315 186 268 249 q 476 124 363 124 q 638 186 590 124 q 685 372 685 249 l 685 969 l 839 969 l 839 397 q 819 213 839 290 q 757 84 800 135 q 645 8 714 33 q 476 -17 576 -17 q 308 8 376 -17 q 196 84 239 33 q 133 213 153 135 q 114 397 114 290 l 114 969 l 268 969 m 338 1078 q 270 1099 290 1078 q 250 1153 250 1121 l 250 1178 q 270 1231 250 1210 q 338 1253 290 1253 q 405 1231 385 1253 q 425 1178 425 1210 l 425 1153 q 405 1099 425 1121 q 338 1078 385 1078 m 615 1078 q 548 1099 568 1078 q 528 1153 528 1121 l 528 1178 q 548 1231 528 1210 q 615 1253 568 1253 q 683 1231 663 1253 q 703 1178 703 1210 l 703 1153 q 683 1099 703 1121 q 615 1078 663 1078 z "},"Ù":{"ha":953,"x_min":114,"x_max":839,"o":"m 268 969 l 268 372 q 315 186 268 249 q 476 124 363 124 q 638 186 590 124 q 685 372 685 249 l 685 969 l 839 969 l 839 397 q 819 213 839 290 q 757 84 800 135 q 645 8 714 33 q 476 -17 576 -17 q 308 8 376 -17 q 196 84 239 33 q 133 213 153 135 q 114 397 114 290 l 114 969 l 268 969 m 297 1271 l 429 1335 l 556 1085 l 461 1040 l 297 1271 z "},"Ý":{"ha":857,"x_min":15,"x_max":842,"o":"m 349 0 l 349 382 l 15 969 l 194 969 l 431 538 l 435 538 l 669 969 l 842 969 l 506 385 l 506 0 l 349 0 m 444 1040 l 350 1085 l 476 1335 l 608 1271 l 444 1040 z "},"Ÿ":{"ha":857,"x_min":15,"x_max":842,"o":"m 349 0 l 349 382 l 15 969 l 194 969 l 431 538 l 435 538 l 669 969 l 842 969 l 506 385 l 506 0 l 349 0 m 290 1078 q 223 1099 243 1078 q 203 1153 203 1121 l 203 1178 q 223 1231 203 1210 q 290 1253 243 1253 q 358 1231 338 1253 q 378 1178 378 1210 l 378 1153 q 358 1099 378 1121 q 290 1078 338 1078 m 568 1078 q 501 1099 521 1078 q 481 1153 481 1121 l 481 1178 q 501 1231 481 1210 q 568 1253 521 1253 q 635 1231 615 1253 q 656 1178 656 1210 l 656 1153 q 635 1099 656 1121 q 568 1078 615 1078 z "},"Ž":{"ha":821,"x_min":51,"x_max":769,"o":"m 769 0 l 51 0 l 51 140 l 578 831 l 79 831 l 79 969 l 754 969 l 754 829 l 228 139 l 769 139 l 769 0 m 340 1056 l 174 1264 l 251 1322 l 417 1161 l 582 1322 l 660 1264 l 493 1056 l 340 1056 z "},"µ":{"ha":813,"x_min":108,"x_max":704,"o":"m 108 -278 l 108 722 l 260 722 l 260 282 q 399 114 260 114 q 456 122 428 114 q 505 144 483 129 q 540 183 526 160 q 553 239 553 207 l 553 722 l 704 722 l 704 0 l 553 0 l 553 119 l 547 119 q 522 68 538 93 q 485 24 507 43 q 433 -6 463 6 q 365 -17 403 -17 q 243 50 275 -17 l 238 50 l 260 -99 l 260 -278 l 108 -278 z "},"∆":{"ha":917,"x_min":64,"x_max":853,"o":"m 64 132 l 360 969 l 557 969 l 853 132 l 853 0 l 64 0 l 64 132 m 460 825 l 453 825 l 224 139 l 688 139 l 460 825 z "},"∏":{"ha":993,"x_min":53,"x_max":940,"o":"m 175 -278 l 175 831 l 53 831 l 53 969 l 940 969 l 940 831 l 818 831 l 818 -278 l 661 -278 l 661 831 l 332 831 l 332 -278 l 175 -278 z "},"∑":{"ha":732,"x_min":43,"x_max":682,"o":"m 682 -278 l 43 -278 l 43 -135 l 379 343 l 379 349 l 43 826 l 43 969 l 682 969 l 682 831 l 213 831 l 522 397 l 522 294 l 213 -139 l 682 -139 l 682 -278 z "},"Ω":{"ha":1000,"x_min":76,"x_max":924,"o":"m 76 139 l 297 139 l 297 153 q 142 297 203 200 q 82 538 82 393 q 108 706 82 625 q 185 849 133 788 q 316 949 238 911 q 500 986 394 986 q 684 949 606 986 q 815 849 763 911 q 892 706 867 788 q 918 538 918 625 q 902 405 918 465 q 858 297 886 344 q 790 213 829 249 q 703 153 750 176 l 703 139 l 924 139 l 924 0 l 582 0 l 582 210 q 646 247 615 221 q 700 310 676 274 q 738 390 724 346 q 751 479 751 433 l 751 599 q 734 689 751 644 q 685 768 717 733 q 606 824 653 803 q 500 846 560 846 q 394 824 440 846 q 315 768 347 803 q 265 689 282 733 q 249 599 249 644 l 249 479 q 263 390 249 433 q 300 310 276 346 q 354 247 324 274 q 418 210 385 221 l 418 0 l 76 0 l 76 139 z "},"π":{"ha":883,"x_min":33,"x_max":838,"o":"m 700 124 l 790 124 l 790 0 l 708 0 q 589 42 629 0 q 549 156 549 83 l 549 599 l 307 599 l 307 0 l 156 0 l 156 599 l 33 599 l 33 722 l 838 722 l 838 599 l 700 599 l 700 124 z "},"⁰":{"ha":519,"x_min":50,"x_max":469,"o":"m 260 450 q 101 519 151 450 q 50 714 50 588 q 101 909 50 840 q 260 978 151 978 q 419 909 368 978 q 469 714 469 840 q 419 519 469 588 q 260 450 368 450 m 260 540 q 331 573 311 540 q 350 665 350 606 l 350 763 q 331 855 350 822 q 260 888 311 888 q 189 855 208 888 q 169 763 169 822 l 169 665 q 189 573 169 606 q 260 540 208 540 z "},"ء":{"ha":581,"x_min":39,"x_max":542,"o":"m 39 139 l 122 139 l 125 144 q 94 209 104 176 q 83 279 83 242 q 100 364 83 325 q 146 432 117 403 q 216 478 175 461 q 306 494 257 494 q 427 466 374 494 q 517 386 481 438 l 411 285 q 360 329 389 317 q 294 342 331 342 q 224 319 253 342 q 196 258 196 296 q 240 181 196 210 q 361 151 283 151 l 542 151 l 542 0 l 39 0 l 39 139 z "},"ﺀ":{"ha":581,"x_min":39,"x_max":542,"o":"m 39 139 l 122 139 l 125 144 q 94 209 104 176 q 83 279 83 242 q 100 364 83 325 q 146 432 117 403 q 216 478 175 461 q 306 494 257 494 q 427 466 374 494 q 517 386 481 438 l 411 285 q 360 329 389 317 q 294 342 331 342 q 224 319 253 342 q 196 258 196 296 q 240 181 196 210 q 361 151 283 151 l 542 151 l 542 0 l 39 0 l 39 139 z "},"۽":{"ha":581,"x_min":39,"x_max":542,"o":"m 39 139 l 122 139 l 125 144 q 94 209 104 176 q 83 279 83 242 q 100 364 83 325 q 146 432 117 403 q 216 478 175 461 q 306 494 257 494 q 427 466 374 494 q 517 386 481 438 l 411 285 q 360 329 389 317 q 294 342 331 342 q 224 319 253 342 q 196 258 196 296 q 240 181 196 210 q 361 151 283 151 l 542 151 l 542 0 l 39 0 l 39 139 m 208 -87 l 290 -87 l 290 -332 l 208 -332 l 208 -87 m 351 -87 l 433 -87 l 433 -332 l 351 -332 l 351 -87 z "},"ا":{"ha":321,"x_min":96,"x_max":225,"o":"m 96 1028 l 225 1028 l 225 0 l 96 0 l 96 1028 z "},"ﺍ":{"ha":321,"x_min":96,"x_max":225,"o":"m 96 1028 l 225 1028 l 225 0 l 96 0 l 96 1028 z "},"إ":{"ha":321,"x_min":15,"x_max":319,"o":"m 96 1028 l 225 1028 l 225 0 l 96 0 l 96 1028 m 15 -268 l 69 -268 l 71 -261 q 44 -189 44 -232 q 83 -97 44 -133 q 182 -60 122 -60 q 253 -76 218 -60 q 310 -119 288 -92 l 251 -194 q 182 -162 219 -162 q 142 -174 157 -162 q 126 -204 126 -186 q 224 -260 126 -260 l 319 -260 l 319 -364 l 15 -364 l 15 -268 z "},"ﺇ":{"ha":321,"x_min":15,"x_max":319,"o":"m 96 1028 l 225 1028 l 225 0 l 96 0 l 96 1028 m 15 -268 l 69 -268 l 71 -261 q 44 -189 44 -232 q 83 -97 44 -133 q 182 -60 122 -60 q 253 -76 218 -60 q 310 -119 288 -92 l 251 -194 q 182 -162 219 -162 q 142 -174 157 -162 q 126 -204 126 -186 q 224 -260 126 -260 l 319 -260 l 319 -364 l 15 -364 l 15 -268 z "},"ٳ":{"ha":321,"x_min":-37,"x_max":358,"o":"m 96 1028 l 225 1028 l 225 0 l 96 0 l 96 1028 m 44 -364 l 44 -411 l -37 -411 l -37 -364 q -17 -295 -37 -322 q 47 -268 3 -268 l 108 -268 l 110 -261 q 91 -228 99 -247 q 83 -189 83 -208 q 122 -97 83 -133 q 222 -60 161 -60 q 293 -76 258 -60 q 349 -119 328 -92 l 292 -194 q 222 -162 260 -162 q 181 -174 197 -162 q 165 -204 165 -186 q 264 -260 165 -260 l 358 -260 l 358 -364 l 44 -364 z "},"ٵ":{"ha":321,"x_min":96,"x_max":593,"o":"m 96 1028 l 225 1028 l 225 0 l 96 0 l 96 1028 m 289 900 l 343 900 l 344 907 q 318 979 318 936 q 357 1072 318 1035 q 456 1108 396 1108 q 526 1092 492 1108 q 583 1049 561 1076 l 525 974 q 456 1006 493 1006 q 415 994 431 1006 q 400 964 400 982 q 497 908 400 908 l 593 908 l 593 804 l 289 804 l 289 900 z "},"ﺎ":{"ha":388,"x_min":96,"x_max":388,"o":"m 351 0 q 156 56 215 0 q 96 244 96 113 l 96 1028 l 225 1028 l 225 257 q 252 178 225 199 q 342 157 279 157 l 388 157 l 388 33 l 353 0 l 351 0 z "},"ﺈ":{"ha":388,"x_min":35,"x_max":388,"o":"m 351 0 q 156 56 215 0 q 96 244 96 113 l 96 1028 l 225 1028 l 225 257 q 252 178 225 199 q 342 157 279 157 l 388 157 l 388 33 l 353 0 l 351 0 m 35 -268 l 89 -268 l 90 -261 q 64 -189 64 -232 q 103 -97 64 -133 q 201 -60 142 -60 q 272 -76 238 -60 q 329 -119 307 -92 l 271 -194 q 201 -162 239 -162 q 161 -174 176 -162 q 146 -204 146 -186 q 243 -260 146 -260 l 339 -260 l 339 -364 l 35 -364 l 35 -268 z "},"أ":{"ha":332,"x_min":14,"x_max":318,"o":"m 101 858 l 232 858 l 232 0 l 101 0 l 101 858 m 14 1065 l 68 1065 l 69 1072 q 43 1144 43 1101 q 82 1237 43 1200 q 181 1274 121 1274 q 251 1258 217 1274 q 308 1214 286 1242 l 250 1139 q 181 1171 218 1171 q 140 1159 156 1171 q 125 1129 125 1147 q 222 1074 125 1074 l 318 1074 l 318 969 l 14 969 l 14 1065 z "},"ﺃ":{"ha":332,"x_min":14,"x_max":318,"o":"m 101 858 l 232 858 l 232 0 l 101 0 l 101 858 m 14 1065 l 68 1065 l 69 1072 q 43 1144 43 1101 q 82 1237 43 1200 q 181 1274 121 1274 q 251 1258 217 1274 q 308 1214 286 1242 l 250 1139 q 181 1171 218 1171 q 140 1159 156 1171 q 125 1129 125 1147 q 222 1074 125 1074 l 318 1074 l 318 969 l 14 969 l 14 1065 z "},"ٲ":{"ha":332,"x_min":-50,"x_max":346,"o":"m 101 858 l 232 858 l 232 0 l 101 0 l 101 858 m 32 969 l 32 922 l -50 922 l -50 969 q -30 1038 -50 1011 q 35 1065 -10 1065 l 96 1065 l 97 1072 q 78 1106 86 1086 q 71 1144 71 1125 q 110 1237 71 1200 q 210 1274 149 1274 q 281 1258 246 1274 q 336 1214 315 1242 l 279 1139 q 210 1171 247 1171 q 169 1159 185 1171 q 153 1129 153 1147 q 251 1074 153 1074 l 346 1074 l 346 969 l 32 969 z "},"آ":{"ha":332,"x_min":-35,"x_max":376,"o":"m 101 858 l 232 858 l 232 0 l 101 0 l 101 858 m -35 1007 q -7 1085 -35 1057 q 85 1100 21 1113 l 167 1083 q 215 1074 199 1076 q 240 1072 231 1072 q 282 1085 268 1072 q 307 1131 296 1097 l 376 1097 q 240 971 351 971 q 206 973 225 971 q 150 982 188 975 l 47 1001 l 47 960 l -35 960 l -35 1007 z "},"ﺁ":{"ha":332,"x_min":-35,"x_max":376,"o":"m 101 858 l 232 858 l 232 0 l 101 0 l 101 858 m -35 1007 q -7 1085 -35 1057 q 85 1100 21 1113 l 167 1083 q 215 1074 199 1076 q 240 1072 231 1072 q 282 1085 268 1072 q 307 1131 296 1097 l 376 1097 q 240 971 351 971 q 206 973 225 971 q 150 982 188 975 l 47 1001 l 47 960 l -35 960 l -35 1007 z "},"ٱ":{"ha":332,"x_min":-35,"x_max":374,"o":"m 101 858 l 232 858 l 232 0 l 101 0 l 101 858 m -35 1007 q -11 1081 -35 1053 q 65 1103 13 1108 l 74 1121 q 246 1260 135 1260 q 339 1224 304 1260 q 374 1122 374 1189 q 338 1010 374 1050 q 239 971 303 971 q 204 973 224 971 q 150 982 185 975 l 47 1001 l 47 960 l -35 960 l -35 1007 m 235 1157 q 140 1089 172 1157 l 167 1083 q 215 1075 200 1076 q 240 1074 231 1074 q 278 1084 264 1074 q 293 1114 293 1094 q 278 1145 293 1133 q 235 1157 263 1157 z "},"ﴽ":{"ha":332,"x_min":-11,"x_max":346,"o":"m 101 858 l 232 858 l 232 0 l 101 0 l 101 858 m 346 1101 l 25 953 l -11 1031 l 310 1179 l 346 1101 m 346 1296 l 25 1147 l -11 1225 l 310 1374 l 346 1296 z "},"ݳ":{"ha":332,"x_min":53,"x_max":322,"o":"m 101 858 l 232 858 l 232 0 l 101 0 l 101 858 m 140 1232 l 190 1232 q 236 1240 222 1232 q 250 1269 250 1249 q 248 1288 250 1276 q 238 1332 246 1300 l 313 1347 q 322 1261 322 1294 q 291 1166 322 1199 q 190 1133 260 1133 l 146 1133 l 157 969 l 78 969 l 53 1338 l 133 1338 l 140 1232 z "},"ݴ":{"ha":332,"x_min":28,"x_max":378,"o":"m 101 858 l 232 858 l 232 0 l 101 0 l 101 858 m 114 1240 l 136 1240 q 169 1249 158 1240 q 179 1282 179 1257 l 179 1314 l 251 1314 l 251 1278 q 257 1245 251 1257 q 279 1233 263 1233 q 304 1269 304 1233 q 301 1297 304 1282 q 290 1340 297 1313 l 364 1356 q 374 1306 371 1325 q 378 1263 378 1286 q 279 1132 378 1132 q 188 1222 201 1132 l 183 1222 q 121 1140 176 1140 l 132 969 l 53 969 l 28 1338 l 108 1338 l 114 1240 z "},"ﺄ":{"ha":381,"x_min":14,"x_max":381,"o":"m 347 0 q 158 54 215 0 q 101 233 101 108 l 101 858 l 232 858 l 232 244 q 256 176 232 196 q 335 157 281 157 l 381 157 l 381 33 l 347 0 m 14 1065 l 68 1065 l 69 1072 q 43 1144 43 1101 q 82 1237 43 1200 q 181 1274 121 1274 q 251 1258 217 1274 q 308 1214 286 1242 l 250 1139 q 181 1171 218 1171 q 140 1159 156 1171 q 125 1129 125 1147 q 222 1074 125 1074 l 318 1074 l 318 969 l 14 969 l 14 1065 z "},"ﺂ":{"ha":381,"x_min":-35,"x_max":381,"o":"m 347 0 q 158 54 215 0 q 101 233 101 108 l 101 858 l 232 858 l 232 244 q 256 176 232 196 q 335 157 281 157 l 381 157 l 381 33 l 347 0 m -35 1007 q -7 1085 -35 1057 q 85 1100 21 1113 l 167 1083 q 215 1074 199 1076 q 240 1072 231 1072 q 282 1085 268 1072 q 307 1131 296 1097 l 376 1097 q 240 971 351 971 q 206 973 225 971 q 150 982 188 975 l 47 1001 l 47 960 l -35 960 l -35 1007 z "},"ﭑ":{"ha":381,"x_min":-35,"x_max":381,"o":"m 347 0 q 158 54 215 0 q 101 233 101 108 l 101 858 l 232 858 l 232 244 q 256 176 232 196 q 335 157 281 157 l 381 157 l 381 33 l 347 0 m -35 1007 q -11 1081 -35 1053 q 65 1103 13 1108 l 74 1121 q 246 1260 135 1260 q 339 1224 304 1260 q 374 1122 374 1189 q 338 1010 374 1050 q 239 971 303 971 q 204 973 224 971 q 150 982 185 975 l 47 1001 l 47 960 l -35 960 l -35 1007 m 235 1157 q 140 1089 172 1157 l 167 1083 q 215 1075 200 1076 q 240 1074 231 1074 q 278 1084 264 1074 q 293 1114 293 1094 q 278 1145 293 1133 q 235 1157 263 1157 z "},"ﴼ":{"ha":381,"x_min":-11,"x_max":381,"o":"m 347 0 q 158 54 215 0 q 101 233 101 108 l 101 858 l 232 858 l 232 244 q 256 176 232 196 q 335 157 281 157 l 381 157 l 381 33 l 347 0 m 346 1101 l 25 953 l -11 1031 l 310 1179 l 346 1101 m 346 1296 l 25 1147 l -11 1225 l 310 1374 l 346 1296 z "},"ﺒ":{"ha":443,"x_min":-33,"x_max":443,"o":"m -33 124 l 0 157 l 46 157 q 161 267 161 157 l 161 478 l 282 478 l 282 267 q 390 157 282 157 l 443 157 l 443 33 l 408 0 q 249 38 306 0 q 175 158 193 76 l 167 158 q 105 36 150 72 q -33 0 60 0 l -33 124 m 210 -287 q 159 -268 178 -287 q 140 -208 140 -249 q 159 -148 140 -167 q 210 -129 178 -129 l 231 -129 q 282 -148 263 -129 q 301 -208 301 -167 q 282 -268 301 -249 q 231 -287 263 -287 l 210 -287 z "},"ﭙ":{"ha":443,"x_min":-33,"x_max":443,"o":"m -33 124 l 0 157 l 46 157 q 161 267 161 157 l 161 478 l 282 478 l 282 267 q 390 157 282 157 l 443 157 l 443 33 l 408 0 q 249 38 306 0 q 175 158 193 76 l 167 158 q 105 36 150 72 q -33 0 60 0 l -33 124 m 307 -286 q 256 -267 275 -286 q 236 -207 236 -249 q 256 -148 236 -167 q 307 -129 275 -129 l 326 -129 q 378 -148 358 -129 q 397 -207 397 -167 q 378 -267 397 -249 q 326 -286 358 -286 l 307 -286 m 208 -467 q 158 -448 178 -467 q 139 -389 139 -429 q 158 -330 139 -349 q 208 -311 178 -311 l 229 -311 q 278 -330 260 -311 q 297 -389 297 -349 q 278 -448 297 -429 q 229 -467 260 -467 l 208 -467 m 110 -286 q 60 -267 79 -286 q 40 -207 40 -249 q 60 -148 40 -167 q 110 -129 79 -129 l 131 -129 q 182 -148 163 -129 q 201 -207 201 -167 q 182 -267 201 -249 q 131 -286 163 -286 l 110 -286 z "},"ﭕ":{"ha":443,"x_min":-33,"x_max":443,"o":"m -33 124 l 0 157 l 46 157 q 161 267 161 157 l 161 478 l 282 478 l 282 267 q 390 157 282 157 l 443 157 l 443 33 l 408 0 q 249 38 306 0 q 175 158 193 76 l 167 158 q 105 36 150 72 q -33 0 60 0 l -33 124 m 213 -422 q 162 -403 181 -422 q 143 -343 143 -383 q 162 -283 143 -301 q 213 -264 181 -264 l 233 -264 q 285 -283 265 -264 q 304 -343 304 -301 q 285 -403 304 -383 q 233 -422 265 -422 l 213 -422 m 213 -228 q 162 -209 181 -228 q 143 -150 143 -190 q 162 -90 143 -108 q 213 -71 181 -71 l 233 -71 q 285 -90 265 -71 q 304 -150 304 -108 q 285 -209 304 -190 q 233 -228 265 -228 l 213 -228 z "},"ﭝ":{"ha":443,"x_min":-33,"x_max":443,"o":"m -33 124 l 0 157 l 46 157 q 161 267 161 157 l 161 478 l 282 478 l 282 267 q 390 157 282 157 l 443 157 l 443 33 l 408 0 q 249 38 306 0 q 175 158 193 76 l 167 158 q 105 36 150 72 q -33 0 60 0 l -33 124 m 308 -422 q 258 -403 276 -422 q 239 -343 239 -383 q 258 -283 239 -301 q 308 -264 276 -264 l 329 -264 q 381 -283 361 -264 q 400 -343 400 -301 q 381 -403 400 -383 q 329 -422 361 -422 l 308 -422 m 308 -228 q 258 -209 276 -228 q 239 -150 239 -190 q 258 -90 239 -108 q 308 -71 276 -71 l 329 -71 q 381 -90 361 -71 q 400 -150 400 -108 q 381 -209 400 -190 q 329 -228 361 -228 l 308 -228 m 113 -422 q 62 -403 81 -422 q 43 -343 43 -383 q 62 -283 43 -301 q 113 -264 81 -264 l 133 -264 q 185 -283 165 -264 q 204 -343 204 -301 q 185 -403 204 -383 q 133 -422 165 -422 l 113 -422 m 113 -228 q 62 -209 81 -228 q 43 -150 43 -190 q 62 -90 43 -108 q 113 -71 81 -71 l 133 -71 q 185 -90 165 -71 q 204 -150 204 -108 q 185 -209 204 -190 q 133 -228 165 -228 l 113 -228 z "},"ﯩ":{"ha":443,"x_min":-33,"x_max":443,"o":"m -33 124 l 0 157 l 46 157 q 161 267 161 157 l 161 478 l 282 478 l 282 267 q 390 157 282 157 l 443 157 l 443 33 l 408 0 q 249 38 306 0 q 175 158 193 76 l 167 158 q 105 36 150 72 q -33 0 60 0 l -33 124 z "},"ﺘ":{"ha":443,"x_min":-33,"x_max":443,"o":"m -33 124 l 0 157 l 46 157 q 161 267 161 157 l 161 478 l 282 478 l 282 267 q 390 157 282 157 l 443 157 l 443 33 l 408 0 q 249 38 306 0 q 175 158 193 76 l 167 158 q 105 36 150 72 q -33 0 60 0 l -33 124 m 306 619 q 255 639 274 619 q 236 699 236 658 q 255 759 236 740 q 306 778 274 778 l 326 778 q 378 759 358 778 q 397 699 397 740 q 378 639 397 658 q 326 619 358 619 l 306 619 m 110 619 q 59 639 78 619 q 40 699 40 658 q 59 759 40 740 q 110 778 78 778 l 131 778 q 182 759 163 778 q 201 699 201 740 q 182 639 201 658 q 131 619 163 619 l 110 619 z "},"ﺜ":{"ha":443,"x_min":-33,"x_max":443,"o":"m -33 124 l 0 157 l 46 157 q 161 267 161 157 l 161 478 l 282 478 l 282 267 q 390 157 282 157 l 443 157 l 443 33 l 408 0 q 249 38 306 0 q 175 158 193 76 l 167 158 q 105 36 150 72 q -33 0 60 0 l -33 124 m 310 619 q 258 639 278 619 q 239 699 239 658 q 258 759 239 740 q 310 778 278 778 l 329 778 q 381 759 361 778 q 400 699 400 740 q 381 639 400 658 q 329 619 361 619 l 310 619 m 113 619 q 62 639 81 619 q 43 699 43 658 q 62 759 43 740 q 113 778 81 778 l 133 778 q 185 759 165 778 q 204 699 204 740 q 185 639 204 658 q 133 619 165 619 l 113 619 m 211 803 q 161 822 181 803 q 142 881 142 840 q 161 939 142 921 q 211 957 181 957 l 232 957 q 281 939 263 957 q 300 881 300 921 q 281 822 300 840 q 232 803 263 803 l 211 803 z "},"ﭩ":{"ha":443,"x_min":-33,"x_max":443,"o":"m -33 124 l 0 157 l 46 157 q 161 267 161 157 l 161 478 l 282 478 l 282 267 q 390 157 282 157 l 443 157 l 443 33 l 408 0 q 249 38 306 0 q 175 158 193 76 l 167 158 q 105 36 150 72 q -33 0 60 0 l -33 124 m 43 685 l 85 685 l 97 707 l 97 958 l 178 958 l 178 818 q 215 836 193 829 q 265 843 236 843 q 361 807 329 843 q 393 715 393 771 q 354 615 393 642 q 256 589 315 589 l 43 589 l 43 685 m 149 688 l 150 685 l 256 685 q 311 690 292 685 q 331 715 331 696 q 314 740 331 732 q 274 747 297 747 l 253 747 q 192 738 211 747 q 158 706 174 729 l 149 688 z "},"ﭡ":{"ha":443,"x_min":-33,"x_max":443,"o":"m -33 124 l 0 157 l 46 157 q 161 267 161 157 l 161 478 l 282 478 l 282 267 q 390 157 282 157 l 443 157 l 443 33 l 408 0 q 249 38 306 0 q 175 158 193 76 l 167 158 q 105 36 150 72 q -33 0 60 0 l -33 124 m 213 619 q 162 639 181 619 q 143 699 143 658 q 162 759 143 740 q 213 778 181 778 l 233 778 q 285 759 265 778 q 304 699 304 740 q 285 639 304 658 q 233 619 265 619 l 213 619 m 213 814 q 162 833 181 814 q 143 892 143 851 q 162 952 143 933 q 213 971 181 971 l 233 971 q 285 952 265 971 q 304 892 304 933 q 285 833 304 851 q 233 814 265 814 l 213 814 z "},"ﭥ":{"ha":443,"x_min":-33,"x_max":443,"o":"m -33 124 l 0 157 l 46 157 q 161 267 161 157 l 161 478 l 282 478 l 282 267 q 390 157 282 157 l 443 157 l 443 33 l 408 0 q 249 38 306 0 q 175 158 193 76 l 167 158 q 105 36 150 72 q -33 0 60 0 l -33 124 m 308 619 q 258 639 276 619 q 239 699 239 658 q 258 759 239 740 q 308 778 276 778 l 329 778 q 381 759 361 778 q 400 699 400 740 q 381 639 400 658 q 329 619 361 619 l 308 619 m 308 814 q 258 833 276 814 q 239 892 239 851 q 258 952 239 933 q 308 971 276 971 l 329 971 q 381 952 361 971 q 400 892 400 933 q 381 833 400 851 q 329 814 361 814 l 308 814 m 113 619 q 62 639 81 619 q 43 699 43 658 q 62 759 43 740 q 113 778 81 778 l 133 778 q 185 759 165 778 q 204 699 204 740 q 185 639 204 658 q 133 619 165 619 l 113 619 m 113 814 q 62 833 81 814 q 43 892 43 851 q 62 952 43 933 q 113 971 81 971 l 133 971 q 185 952 165 971 q 204 892 204 933 q 185 833 204 851 q 133 814 165 814 l 113 814 z "},"ﻨ":{"ha":443,"x_min":-33,"x_max":443,"o":"m -33 124 l 0 157 l 46 157 q 161 267 161 157 l 161 478 l 282 478 l 282 267 q 390 157 282 157 l 443 157 l 443 33 l 408 0 q 249 38 306 0 q 175 158 193 76 l 167 158 q 105 36 150 72 q -33 0 60 0 l -33 124 m 210 619 q 159 639 178 619 q 140 699 140 658 q 159 759 140 740 q 210 778 178 778 l 231 778 q 282 759 263 778 q 301 699 301 740 q 282 639 301 658 q 231 619 263 619 l 210 619 z "},"ﻴ":{"ha":443,"x_min":-33,"x_max":443,"o":"m -33 124 l 0 157 l 46 157 q 161 267 161 157 l 161 478 l 282 478 l 282 267 q 390 157 282 157 l 443 157 l 443 33 l 408 0 q 249 38 306 0 q 175 158 193 76 l 167 158 q 105 36 150 72 q -33 0 60 0 l -33 124 m 308 -287 q 258 -268 276 -287 q 239 -208 239 -249 q 258 -148 239 -167 q 308 -129 276 -129 l 329 -129 q 381 -148 361 -129 q 400 -208 400 -167 q 381 -268 400 -249 q 329 -287 361 -287 l 308 -287 m 113 -287 q 62 -268 81 -287 q 43 -208 43 -249 q 62 -148 43 -167 q 113 -129 81 -129 l 133 -129 q 185 -148 165 -129 q 204 -208 204 -167 q 185 -268 204 -249 q 133 -287 165 -287 l 113 -287 z "},"ﺌ":{"ha":443,"x_min":-33,"x_max":443,"o":"m -33 124 l 0 157 l 46 157 q 161 267 161 157 l 161 478 l 282 478 l 282 267 q 390 157 282 157 l 443 157 l 443 33 l 408 0 q 249 38 306 0 q 175 158 193 76 l 167 158 q 105 36 150 72 q -33 0 60 0 l -33 124 m 68 685 l 122 685 l 124 692 q 97 764 97 721 q 136 856 97 819 q 235 893 175 893 q 306 877 271 893 q 363 833 340 861 l 304 758 q 235 790 272 790 q 194 778 210 790 q 179 749 179 767 q 276 693 179 693 l 372 693 l 372 589 l 68 589 l 68 685 z "},"ﯿ":{"ha":443,"x_min":-33,"x_max":443,"o":"m -33 124 l 0 157 l 46 157 q 161 267 161 157 l 161 478 l 282 478 l 282 267 q 390 157 282 157 l 443 157 l 443 33 l 408 0 q 249 38 306 0 q 175 158 193 76 l 167 158 q 105 36 150 72 q -33 0 60 0 l -33 124 m 308 -287 q 258 -268 276 -287 q 239 -208 239 -249 q 258 -148 239 -167 q 308 -129 276 -129 l 329 -129 q 381 -148 361 -129 q 400 -208 400 -167 q 381 -268 400 -249 q 329 -287 361 -287 l 308 -287 m 113 -287 q 62 -268 81 -287 q 43 -208 43 -249 q 62 -148 43 -167 q 113 -129 81 -129 l 133 -129 q 185 -148 165 -129 q 204 -208 204 -167 q 185 -268 204 -249 q 133 -287 165 -287 l 113 -287 z "},"ﯧ":{"ha":443,"x_min":-33,"x_max":443,"o":"m -33 124 l 0 157 l 46 157 q 161 267 161 157 l 161 478 l 282 478 l 282 267 q 390 157 282 157 l 443 157 l 443 33 l 408 0 q 249 38 306 0 q 175 158 193 76 l 167 158 q 105 36 150 72 q -33 0 60 0 l -33 124 m 213 -422 q 162 -403 181 -422 q 143 -343 143 -383 q 162 -283 143 -301 q 213 -264 181 -264 l 233 -264 q 285 -283 265 -264 q 304 -343 304 -301 q 285 -403 304 -383 q 233 -422 265 -422 l 213 -422 m 213 -228 q 162 -209 181 -228 q 143 -150 143 -190 q 162 -90 143 -108 q 213 -71 181 -71 l 233 -71 q 285 -90 265 -71 q 304 -150 304 -108 q 285 -209 304 -190 q 233 -228 265 -228 l 213 -228 z "},"ﺴ":{"ha":1161,"x_min":-33,"x_max":1161,"o":"m -33 124 l 0 157 l 28 157 q 79 161 57 157 q 118 176 101 165 q 149 206 135 188 q 176 251 163 224 l 233 367 l 338 314 l 275 190 l 285 185 q 365 150 326 161 q 443 139 403 139 q 535 167 506 139 q 564 267 564 196 l 564 367 l 685 367 l 685 267 q 703 170 685 199 q 769 142 722 142 l 794 142 q 859 170 839 142 q 879 267 879 199 l 879 422 l 1000 422 l 1000 267 q 1108 157 1000 157 l 1161 157 l 1161 33 l 1126 0 q 976 35 1029 0 q 903 146 922 71 l 896 146 q 851 21 888 58 q 747 -17 814 -17 q 579 146 606 -17 l 571 146 q 417 -17 547 -17 q 334 -1 376 -17 q 233 49 292 14 l 196 71 q 101 14 154 28 q -33 0 49 0 l -33 124 z "},"ﺸ":{"ha":1161,"x_min":-33,"x_max":1161,"o":"m -33 124 l 0 157 l 28 157 q 79 161 57 157 q 118 176 101 165 q 149 206 135 188 q 176 251 163 224 l 233 367 l 338 314 l 275 190 l 285 185 q 365 150 326 161 q 443 139 403 139 q 535 167 506 139 q 564 267 564 196 l 564 367 l 685 367 l 685 267 q 703 170 685 199 q 769 142 722 142 l 794 142 q 859 170 839 142 q 879 267 879 199 l 879 422 l 1000 422 l 1000 267 q 1108 157 1000 157 l 1161 157 l 1161 33 l 1126 0 q 976 35 1029 0 q 903 146 922 71 l 896 146 q 851 21 888 58 q 747 -17 814 -17 q 579 146 606 -17 l 571 146 q 417 -17 547 -17 q 334 -1 376 -17 q 233 49 292 14 l 196 71 q 101 14 154 28 q -33 0 49 0 l -33 124 m 714 508 q 663 528 682 508 q 643 588 643 547 q 663 648 643 629 q 714 667 682 667 l 733 667 q 785 648 765 667 q 804 588 804 629 q 785 528 804 547 q 733 508 765 508 l 714 508 m 517 508 q 466 528 485 508 q 447 588 447 547 q 466 648 447 629 q 517 667 485 667 l 538 667 q 589 648 569 667 q 608 588 608 629 q 589 528 608 547 q 538 508 569 508 l 517 508 m 615 692 q 565 710 585 692 q 546 769 546 729 q 565 828 546 810 q 615 846 585 846 l 636 846 q 685 828 667 846 q 704 769 704 810 q 685 710 704 729 q 636 692 667 692 l 615 692 z "},"ﺳ":{"ha":1042,"x_min":-33,"x_max":988,"o":"m -33 124 l 0 157 l 28 157 q 79 161 57 157 q 118 176 101 165 q 149 206 135 188 q 176 251 163 224 l 233 367 l 338 314 l 274 190 l 283 185 q 364 150 325 161 q 443 139 403 139 q 535 167 506 139 q 564 267 564 196 l 564 367 l 685 367 l 685 267 q 706 170 685 199 q 771 142 726 142 l 792 142 q 871 232 871 142 q 858 360 871 276 l 846 433 l 965 451 l 976 379 q 985 300 982 338 q 988 232 988 263 q 935 47 988 110 q 781 -17 883 -17 q 643 24 692 -17 q 579 146 594 64 l 571 146 q 417 -17 547 -17 q 334 -1 376 -17 q 233 49 292 14 l 196 71 q 102 14 156 28 q -33 0 49 0 l -33 124 z "},"ﺷ":{"ha":1042,"x_min":-33,"x_max":988,"o":"m -33 124 l 0 157 l 28 157 q 79 161 57 157 q 118 176 101 165 q 149 206 135 188 q 176 251 163 224 l 233 367 l 338 314 l 274 190 l 283 185 q 364 150 325 161 q 443 139 403 139 q 535 167 506 139 q 564 267 564 196 l 564 367 l 685 367 l 685 267 q 706 170 685 199 q 771 142 726 142 l 792 142 q 871 232 871 142 q 858 360 871 276 l 846 433 l 965 451 l 976 379 q 985 300 982 338 q 988 232 988 263 q 935 47 988 110 q 781 -17 883 -17 q 643 24 692 -17 q 579 146 594 64 l 571 146 q 417 -17 547 -17 q 334 -1 376 -17 q 233 49 292 14 l 196 71 q 102 14 156 28 q -33 0 49 0 l -33 124 m 714 508 q 663 528 682 508 q 643 588 643 547 q 663 648 643 629 q 714 667 682 667 l 733 667 q 785 648 765 667 q 804 588 804 629 q 785 528 804 547 q 733 508 765 508 l 714 508 m 517 508 q 466 528 485 508 q 447 588 447 547 q 466 648 447 629 q 517 667 485 667 l 538 667 q 589 648 569 667 q 608 588 608 629 q 589 528 608 547 q 538 508 569 508 l 517 508 m 615 692 q 565 710 585 692 q 546 769 546 729 q 565 828 546 810 q 615 846 585 846 l 636 846 q 685 828 667 846 q 704 769 704 810 q 685 710 704 729 q 636 692 667 692 l 615 692 z "},"ﻠ":{"ha":446,"x_min":-33,"x_max":446,"o":"m -33 124 l 0 157 l 43 157 q 158 267 158 157 l 158 1028 l 288 1028 l 288 267 q 397 157 288 157 l 446 157 l 446 33 l 413 0 q 249 38 308 0 q 172 158 190 76 l 164 158 q 103 36 147 72 q -33 0 58 0 l -33 124 z "},"ﺑ":{"ha":372,"x_min":-33,"x_max":318,"o":"m -33 124 l 0 157 l 29 157 q 163 178 124 157 q 201 257 201 200 q 198 317 201 281 q 185 413 194 353 l 163 533 l 283 553 l 301 432 q 318 257 318 321 q 247 63 318 126 q 29 0 176 0 l -33 0 l -33 124 m 190 -287 q 140 -268 158 -287 q 121 -208 121 -249 q 140 -148 121 -167 q 190 -129 158 -129 l 211 -129 q 263 -148 243 -129 q 282 -208 282 -167 q 263 -268 282 -249 q 211 -287 243 -287 l 190 -287 z "},"ﭘ":{"ha":372,"x_min":-33,"x_max":378,"o":"m -33 124 l 0 157 l 29 157 q 163 178 124 157 q 201 257 201 200 q 198 317 201 281 q 185 413 194 353 l 163 533 l 283 553 l 301 432 q 318 257 318 321 q 247 63 318 126 q 29 0 176 0 l -33 0 l -33 124 m 288 -286 q 236 -267 256 -286 q 217 -207 217 -249 q 236 -148 217 -167 q 288 -129 256 -129 l 307 -129 q 358 -148 339 -129 q 378 -207 378 -167 q 358 -267 378 -249 q 307 -286 339 -286 l 288 -286 m 189 -467 q 139 -448 158 -467 q 119 -389 119 -429 q 139 -330 119 -349 q 189 -311 158 -311 l 210 -311 q 259 -330 240 -311 q 278 -389 278 -349 q 259 -448 278 -429 q 210 -467 240 -467 l 189 -467 m 90 -286 q 40 -267 60 -286 q 21 -207 21 -249 q 40 -148 21 -167 q 90 -129 60 -129 l 111 -129 q 163 -148 143 -129 q 182 -207 182 -167 q 163 -267 182 -249 q 111 -286 143 -286 l 90 -286 z "},"ﭔ":{"ha":372,"x_min":-33,"x_max":318,"o":"m -33 124 l 0 157 l 29 157 q 163 178 124 157 q 201 257 201 200 q 198 317 201 281 q 185 413 194 353 l 163 533 l 283 553 l 301 432 q 318 257 318 321 q 247 63 318 126 q 29 0 176 0 l -33 0 l -33 124 m 193 -422 q 142 -403 161 -422 q 124 -343 124 -383 q 142 -283 124 -301 q 193 -264 161 -264 l 214 -264 q 265 -283 246 -264 q 285 -343 285 -301 q 265 -403 285 -383 q 214 -422 246 -422 l 193 -422 m 193 -228 q 142 -209 161 -228 q 124 -150 124 -190 q 142 -90 124 -108 q 193 -71 161 -71 l 214 -71 q 265 -90 246 -71 q 285 -150 285 -108 q 265 -209 285 -190 q 214 -228 246 -228 l 193 -228 z "},"ﭜ":{"ha":372,"x_min":-33,"x_max":381,"o":"m -33 124 l 0 157 l 29 157 q 163 178 124 157 q 201 257 201 200 q 198 317 201 281 q 185 413 194 353 l 163 533 l 283 553 l 301 432 q 318 257 318 321 q 247 63 318 126 q 29 0 176 0 l -33 0 l -33 124 m 289 -422 q 238 -403 257 -422 q 219 -343 219 -383 q 238 -283 219 -301 q 289 -264 257 -264 l 310 -264 q 361 -283 342 -264 q 381 -343 381 -301 q 361 -403 381 -383 q 310 -422 342 -422 l 289 -422 m 289 -228 q 238 -209 257 -228 q 219 -150 219 -190 q 238 -90 219 -108 q 289 -71 257 -71 l 310 -71 q 361 -90 342 -71 q 381 -150 381 -108 q 361 -209 381 -190 q 310 -228 342 -228 l 289 -228 m 93 -422 q 42 -403 61 -422 q 24 -343 24 -383 q 42 -283 24 -301 q 93 -264 61 -264 l 114 -264 q 165 -283 146 -264 q 185 -343 185 -301 q 165 -403 185 -383 q 114 -422 146 -422 l 93 -422 m 93 -228 q 42 -209 61 -228 q 24 -150 24 -190 q 42 -90 24 -108 q 93 -71 61 -71 l 114 -71 q 165 -90 146 -71 q 185 -150 185 -108 q 165 -209 185 -190 q 114 -228 146 -228 l 93 -228 z "},"ﯨ":{"ha":372,"x_min":-33,"x_max":318,"o":"m -33 124 l 0 157 l 29 157 q 163 178 124 157 q 201 257 201 200 q 198 317 201 281 q 185 413 194 353 l 163 533 l 283 553 l 301 432 q 318 257 318 321 q 247 63 318 126 q 29 0 176 0 l -33 0 l -33 124 z "},"ﺗ":{"ha":372,"x_min":-33,"x_max":382,"o":"m -33 124 l 0 157 l 29 157 q 163 178 124 157 q 201 257 201 200 q 198 317 201 281 q 185 413 194 353 l 163 533 l 283 553 l 301 432 q 318 257 318 321 q 247 63 318 126 q 29 0 176 0 l -33 0 l -33 124 m 290 694 q 240 714 258 694 q 221 774 221 733 q 240 834 221 815 q 290 853 258 853 l 311 853 q 363 834 343 853 q 382 774 382 815 q 363 714 382 733 q 311 694 343 694 l 290 694 m 94 694 q 44 714 63 694 q 25 774 25 733 q 44 834 25 815 q 94 853 63 853 l 115 853 q 167 834 147 853 q 186 774 186 815 q 167 714 186 733 q 115 694 147 694 l 94 694 z "},"ﺛ":{"ha":372,"x_min":-33,"x_max":385,"o":"m -33 124 l 0 157 l 29 157 q 163 178 124 157 q 201 257 201 200 q 198 317 201 281 q 185 413 194 353 l 163 533 l 283 553 l 301 432 q 318 257 318 321 q 247 63 318 126 q 29 0 176 0 l -33 0 l -33 124 m 294 694 q 243 714 263 694 q 224 774 224 733 q 243 834 224 815 q 294 853 263 853 l 314 853 q 365 834 346 853 q 385 774 385 815 q 365 714 385 733 q 314 694 346 694 l 294 694 m 97 694 q 47 714 65 694 q 28 774 28 733 q 47 834 28 815 q 97 853 65 853 l 118 853 q 169 834 150 853 q 189 774 189 815 q 169 714 189 733 q 118 694 150 694 l 97 694 m 196 878 q 146 897 165 878 q 126 956 126 915 q 146 1014 126 996 q 196 1032 165 1032 l 217 1032 q 266 1014 247 1032 q 285 956 285 996 q 266 897 285 915 q 217 878 247 878 l 196 878 z "},"ﭨ":{"ha":372,"x_min":-33,"x_max":378,"o":"m -33 124 l 0 157 l 29 157 q 163 178 124 157 q 201 257 201 200 q 198 317 201 281 q 185 413 194 353 l 163 533 l 283 553 l 301 432 q 318 257 318 321 q 247 63 318 126 q 29 0 176 0 l -33 0 l -33 124 m 28 760 l 69 760 l 82 782 l 82 1033 l 163 1033 l 163 893 q 199 911 178 904 q 250 918 221 918 q 346 882 314 918 q 378 790 378 846 q 339 690 378 717 q 240 664 300 664 l 28 664 l 28 760 m 133 763 l 135 760 l 240 760 q 296 765 276 760 q 315 790 315 771 q 299 815 315 807 q 258 822 282 822 l 238 822 q 177 813 196 822 q 143 781 158 804 l 133 763 z "},"ﭠ":{"ha":372,"x_min":-33,"x_max":318,"o":"m -33 124 l 0 157 l 29 157 q 163 178 124 157 q 201 257 201 200 q 198 317 201 281 q 185 413 194 353 l 163 533 l 283 553 l 301 432 q 318 257 318 321 q 247 63 318 126 q 29 0 176 0 l -33 0 l -33 124 m 197 694 q 147 714 165 694 q 128 774 128 733 q 147 834 128 815 q 197 853 165 853 l 218 853 q 269 834 250 853 q 289 774 289 815 q 269 714 289 733 q 218 694 250 694 l 197 694 m 197 889 q 147 908 165 889 q 128 967 128 926 q 147 1027 128 1008 q 197 1046 165 1046 l 218 1046 q 269 1027 250 1046 q 289 967 289 1008 q 269 908 289 926 q 218 889 250 889 l 197 889 z "},"ﭤ":{"ha":372,"x_min":-33,"x_max":385,"o":"m -33 124 l 0 157 l 29 157 q 163 178 124 157 q 201 257 201 200 q 198 317 201 281 q 185 413 194 353 l 163 533 l 283 553 l 301 432 q 318 257 318 321 q 247 63 318 126 q 29 0 176 0 l -33 0 l -33 124 m 293 694 q 242 714 261 694 q 224 774 224 733 q 242 834 224 815 q 293 853 261 853 l 314 853 q 365 834 346 853 q 385 774 385 815 q 365 714 385 733 q 314 694 346 694 l 293 694 m 293 889 q 242 908 261 889 q 224 967 224 926 q 242 1027 224 1008 q 293 1046 261 1046 l 314 1046 q 365 1027 346 1046 q 385 967 385 1008 q 365 908 385 926 q 314 889 346 889 l 293 889 m 97 694 q 47 714 65 694 q 28 774 28 733 q 47 834 28 815 q 97 853 65 853 l 118 853 q 169 834 150 853 q 189 774 189 815 q 169 714 189 733 q 118 694 150 694 l 97 694 m 97 889 q 47 908 65 889 q 28 967 28 926 q 47 1027 28 1008 q 97 1046 65 1046 l 118 1046 q 169 1027 150 1046 q 189 967 189 1008 q 169 908 189 926 q 118 889 150 889 l 97 889 z "},"ﻧ":{"ha":372,"x_min":-33,"x_max":318,"o":"m -33 124 l 0 157 l 29 157 q 163 178 124 157 q 201 257 201 200 q 198 317 201 281 q 185 413 194 353 l 163 533 l 283 553 l 301 432 q 318 257 318 321 q 247 63 318 126 q 29 0 176 0 l -33 0 l -33 124 m 194 694 q 144 714 163 694 q 125 774 125 733 q 144 834 125 815 q 194 853 163 853 l 215 853 q 267 834 247 853 q 286 774 286 815 q 267 714 286 733 q 215 694 247 694 l 194 694 z "},"ﻳ":{"ha":372,"x_min":-33,"x_max":381,"o":"m -33 124 l 0 157 l 29 157 q 163 178 124 157 q 201 257 201 200 q 198 317 201 281 q 185 413 194 353 l 163 533 l 283 553 l 301 432 q 318 257 318 321 q 247 63 318 126 q 29 0 176 0 l -33 0 l -33 124 m 289 -287 q 238 -268 257 -287 q 219 -208 219 -249 q 238 -148 219 -167 q 289 -129 257 -129 l 310 -129 q 361 -148 342 -129 q 381 -208 381 -167 q 361 -268 381 -249 q 310 -287 342 -287 l 289 -287 m 93 -287 q 42 -268 61 -287 q 24 -208 24 -249 q 42 -148 24 -167 q 93 -129 61 -129 l 114 -129 q 165 -148 146 -129 q 185 -208 185 -167 q 165 -268 185 -249 q 114 -287 146 -287 l 93 -287 z "},"ﺋ":{"ha":372,"x_min":-33,"x_max":357,"o":"m -33 124 l 0 157 l 29 157 q 163 178 124 157 q 201 257 201 200 q 198 317 201 281 q 185 413 194 353 l 163 533 l 283 553 l 301 432 q 318 257 318 321 q 247 63 318 126 q 29 0 176 0 l -33 0 l -33 124 m 53 760 l 107 760 l 108 767 q 82 839 82 796 q 121 931 82 894 q 219 968 160 968 q 290 952 256 968 q 347 908 325 936 l 289 833 q 219 865 257 865 q 179 853 194 865 q 164 824 164 842 q 261 768 164 768 l 357 768 l 357 664 l 53 664 l 53 760 z "},"ﯾ":{"ha":372,"x_min":-33,"x_max":381,"o":"m -33 124 l 0 157 l 29 157 q 163 178 124 157 q 201 257 201 200 q 198 317 201 281 q 185 413 194 353 l 163 533 l 283 553 l 301 432 q 318 257 318 321 q 247 63 318 126 q 29 0 176 0 l -33 0 l -33 124 m 289 -287 q 238 -268 257 -287 q 219 -208 219 -249 q 238 -148 219 -167 q 289 -129 257 -129 l 310 -129 q 361 -148 342 -129 q 381 -208 381 -167 q 361 -268 381 -249 q 310 -287 342 -287 l 289 -287 m 93 -287 q 42 -268 61 -287 q 24 -208 24 -249 q 42 -148 24 -167 q 93 -129 61 -129 l 114 -129 q 165 -148 146 -129 q 185 -208 185 -167 q 165 -268 185 -249 q 114 -287 146 -287 l 93 -287 z "},"ﯦ":{"ha":372,"x_min":-33,"x_max":318,"o":"m -33 124 l 0 157 l 29 157 q 163 178 124 157 q 201 257 201 200 q 198 317 201 281 q 185 413 194 353 l 163 533 l 283 553 l 301 432 q 318 257 318 321 q 247 63 318 126 q 29 0 176 0 l -33 0 l -33 124 m 193 -422 q 142 -403 161 -422 q 124 -343 124 -383 q 142 -283 124 -301 q 193 -264 161 -264 l 214 -264 q 265 -283 246 -264 q 285 -343 285 -301 q 265 -403 285 -383 q 214 -422 246 -422 l 193 -422 m 193 -228 q 142 -209 161 -228 q 124 -150 124 -190 q 142 -90 124 -108 q 193 -71 161 -71 l 214 -71 q 265 -90 246 -71 q 285 -150 285 -108 q 265 -209 285 -190 q 214 -228 246 -228 l 193 -228 z "},"ر":{"ha":389,"x_min":-83,"x_max":336,"o":"m -83 -176 l -31 -176 q 88 -158 40 -176 q 164 -108 135 -140 q 206 -29 193 -75 q 218 74 218 17 q 214 151 218 111 q 203 232 210 192 l 174 400 l 293 422 l 313 306 q 336 75 336 171 q 316 -85 336 -11 q 251 -215 296 -160 q 138 -302 207 -271 q -29 -333 68 -333 l -83 -333 l -83 -176 z "},"ﺭ":{"ha":389,"x_min":-83,"x_max":336,"o":"m -83 -176 l -31 -176 q 88 -158 40 -176 q 164 -108 135 -140 q 206 -29 193 -75 q 218 74 218 17 q 214 151 218 111 q 203 232 210 192 l 174 400 l 293 422 l 313 306 q 336 75 336 171 q 316 -85 336 -11 q 251 -215 296 -160 q 138 -302 207 -271 q -29 -333 68 -333 l -83 -333 l -83 -176 z "},"ز":{"ha":389,"x_min":-83,"x_max":336,"o":"m -83 -176 l -31 -176 q 88 -158 40 -176 q 164 -108 135 -140 q 206 -29 193 -75 q 218 74 218 17 q 214 151 218 111 q 203 232 210 192 l 174 400 l 293 422 l 313 306 q 336 75 336 171 q 316 -85 336 -11 q 251 -215 296 -160 q 138 -302 207 -271 q -29 -333 68 -333 l -83 -333 l -83 -176 m 201 564 q 151 583 169 564 q 132 643 132 603 q 151 703 132 685 q 201 722 169 722 l 222 722 q 274 703 254 722 q 293 643 293 685 q 274 583 293 603 q 222 564 254 564 l 201 564 z "},"ﺯ":{"ha":389,"x_min":-83,"x_max":336,"o":"m -83 -176 l -31 -176 q 88 -158 40 -176 q 164 -108 135 -140 q 206 -29 193 -75 q 218 74 218 17 q 214 151 218 111 q 203 232 210 192 l 174 400 l 293 422 l 313 306 q 336 75 336 171 q 316 -85 336 -11 q 251 -215 296 -160 q 138 -302 207 -271 q -29 -333 68 -333 l -83 -333 l -83 -176 m 201 564 q 151 583 169 564 q 132 643 132 603 q 151 703 132 685 q 201 722 169 722 l 222 722 q 274 703 254 722 q 293 643 293 685 q 274 583 293 603 q 222 564 254 564 l 201 564 z "},"ڑ":{"ha":389,"x_min":-83,"x_max":385,"o":"m -83 -176 l -31 -176 q 88 -158 40 -176 q 164 -108 135 -140 q 206 -29 193 -75 q 218 74 218 17 q 214 151 218 111 q 203 232 210 192 l 174 400 l 293 422 l 313 306 q 336 75 336 171 q 316 -85 336 -11 q 251 -215 296 -160 q 138 -302 207 -271 q -29 -333 68 -333 l -83 -333 l -83 -176 m 35 629 l 76 629 l 89 651 l 89 903 l 169 903 l 169 763 q 206 781 185 774 q 257 788 228 788 q 353 751 321 788 q 385 660 385 715 q 346 560 385 586 q 247 533 307 533 l 35 533 l 35 629 m 140 632 l 142 629 l 247 629 q 303 635 283 629 q 322 660 322 640 q 306 684 322 676 q 265 692 289 692 l 244 692 q 184 683 203 692 q 150 650 165 674 l 140 632 z "},"ڒ":{"ha":389,"x_min":-83,"x_max":386,"o":"m -83 -176 l -31 -176 q 88 -158 40 -176 q 164 -108 135 -140 q 206 -29 193 -75 q 218 74 218 17 q 214 151 218 111 q 203 232 210 192 l 174 400 l 293 422 l 313 306 q 336 75 336 171 q 316 -85 336 -11 q 251 -215 296 -160 q 138 -302 207 -271 q -29 -333 68 -333 l -83 -333 l -83 -176 m 39 822 l 150 822 l 218 632 l 221 632 l 288 822 l 386 822 l 274 533 l 150 533 l 39 822 z "},"ڔ":{"ha":389,"x_min":-83,"x_max":336,"o":"m -83 -176 l -31 -176 q 88 -158 40 -176 q 164 -108 135 -140 q 206 -29 193 -75 q 218 74 218 17 q 214 151 218 111 q 203 232 210 192 l 174 400 l 293 422 l 313 306 q 336 75 336 171 q 316 -85 336 -11 q 251 -215 296 -160 q 138 -302 207 -271 q -29 -333 68 -333 l -83 -333 l -83 -176 m 39 -621 q -12 -601 7 -621 q -31 -542 -31 -582 q -12 -481 -31 -500 q 39 -462 7 -462 l 60 -462 q 111 -481 92 -462 q 131 -542 131 -500 q 111 -601 131 -582 q 60 -621 92 -621 l 39 -621 z "},"ڕ":{"ha":389,"x_min":-124,"x_max":336,"o":"m -83 -176 l -31 -176 q 88 -158 40 -176 q 164 -108 135 -140 q 206 -29 193 -75 q 218 74 218 17 q 214 151 218 111 q 203 232 210 192 l 174 400 l 293 422 l 313 306 q 336 75 336 171 q 316 -85 336 -11 q 251 -215 296 -160 q 138 -302 207 -271 q -29 -333 68 -333 l -83 -333 l -83 -176 m -124 -439 l -12 -439 l 56 -629 l 58 -629 l 125 -439 l 224 -439 l 111 -728 l -12 -728 l -124 -439 z "},"ږ":{"ha":389,"x_min":-83,"x_max":336,"o":"m -83 -176 l -31 -176 q 88 -158 40 -176 q 164 -108 135 -140 q 206 -29 193 -75 q 218 74 218 17 q 214 151 218 111 q 203 232 210 192 l 174 400 l 293 422 l 313 306 q 336 75 336 171 q 316 -85 336 -11 q 251 -215 296 -160 q 138 -302 207 -271 q -29 -333 68 -333 l -83 -333 l -83 -176 m 201 564 q 151 583 169 564 q 132 643 132 603 q 151 703 132 685 q 201 722 169 722 l 222 722 q 274 703 254 722 q 293 643 293 685 q 274 583 293 603 q 222 564 254 564 l 201 564 m 39 -621 q -12 -601 7 -621 q -31 -542 -31 -582 q -12 -481 -31 -500 q 39 -462 7 -462 l 60 -462 q 111 -481 92 -462 q 131 -542 131 -500 q 111 -601 131 -582 q 60 -621 92 -621 l 39 -621 z "},"ڗ":{"ha":389,"x_min":-83,"x_max":389,"o":"m -83 -176 l -31 -176 q 88 -158 40 -176 q 164 -108 135 -140 q 206 -29 193 -75 q 218 74 218 17 q 214 151 218 111 q 203 232 210 192 l 174 400 l 293 422 l 313 306 q 336 75 336 171 q 316 -85 336 -11 q 251 -215 296 -160 q 138 -302 207 -271 q -29 -333 68 -333 l -83 -333 l -83 -176 m 297 564 q 247 583 265 564 q 228 643 228 603 q 247 703 228 685 q 297 722 265 722 l 318 722 q 369 703 350 722 q 389 643 389 685 q 369 583 389 603 q 318 564 350 564 l 297 564 m 101 564 q 51 583 69 564 q 32 643 32 603 q 51 703 32 685 q 101 722 69 722 l 122 722 q 174 703 154 722 q 193 643 193 685 q 174 583 193 603 q 122 564 154 564 l 101 564 z "},"ژ":{"ha":389,"x_min":-83,"x_max":392,"o":"m -83 -176 l -31 -176 q 88 -158 40 -176 q 164 -108 135 -140 q 206 -29 193 -75 q 218 74 218 17 q 214 151 218 111 q 203 232 210 192 l 174 400 l 293 422 l 313 306 q 336 75 336 171 q 316 -85 336 -11 q 251 -215 296 -160 q 138 -302 207 -271 q -29 -333 68 -333 l -83 -333 l -83 -176 m 301 564 q 250 583 269 564 q 231 643 231 603 q 250 703 231 685 q 301 722 269 722 l 321 722 q 372 703 353 722 q 392 643 392 685 q 372 583 392 603 q 321 564 353 564 l 301 564 m 104 564 q 53 583 72 564 q 35 643 35 603 q 53 703 35 685 q 104 722 72 722 l 125 722 q 176 703 157 722 q 196 643 196 685 q 176 583 196 603 q 125 564 157 564 l 104 564 m 203 747 q 153 766 172 747 q 133 825 133 785 q 153 883 133 865 q 203 901 172 901 l 224 901 q 273 883 254 901 q 292 825 292 865 q 273 766 292 785 q 224 747 254 747 l 203 747 z "},"ڙ":{"ha":389,"x_min":-83,"x_max":392,"o":"m -83 -176 l -31 -176 q 88 -158 40 -176 q 164 -108 135 -140 q 206 -29 193 -75 q 218 74 218 17 q 214 151 218 111 q 203 232 210 192 l 174 400 l 293 422 l 313 306 q 336 75 336 171 q 316 -85 336 -11 q 251 -215 296 -160 q 138 -302 207 -271 q -29 -333 68 -333 l -83 -333 l -83 -176 m 300 564 q 249 583 268 564 q 231 643 231 603 q 249 703 231 685 q 300 722 268 722 l 321 722 q 372 703 353 722 q 392 643 392 685 q 372 583 392 603 q 321 564 353 564 l 300 564 m 300 758 q 249 777 268 758 q 231 836 231 796 q 249 897 231 878 q 300 915 268 915 l 321 915 q 372 897 353 915 q 392 836 392 878 q 372 777 392 796 q 321 758 353 758 l 300 758 m 104 564 q 53 583 72 564 q 35 643 35 603 q 53 703 35 685 q 104 722 72 722 l 125 722 q 176 703 157 722 q 196 643 196 685 q 176 583 196 603 q 125 564 157 564 l 104 564 m 104 758 q 53 777 72 758 q 35 836 35 796 q 53 897 35 878 q 104 915 72 915 l 125 915 q 176 897 157 915 q 196 836 196 878 q 176 777 196 796 q 125 758 157 758 l 104 758 z "},"ۯ":{"ha":389,"x_min":-83,"x_max":386,"o":"m -83 -176 l -31 -176 q 88 -158 40 -176 q 164 -108 135 -140 q 206 -29 193 -75 q 218 74 218 17 q 214 151 218 111 q 203 232 210 192 l 174 400 l 293 422 l 313 306 q 336 75 336 171 q 316 -85 336 -11 q 251 -215 296 -160 q 138 -302 207 -271 q -29 -333 68 -333 l -83 -333 l -83 -176 m 386 564 l 275 564 l 207 756 l 206 756 l 138 564 l 39 564 l 153 853 l 275 853 l 386 564 z "},"ݫ":{"ha":389,"x_min":-83,"x_max":336,"o":"m -83 -176 l -31 -176 q 88 -158 40 -176 q 164 -108 135 -140 q 206 -29 193 -75 q 218 74 218 17 q 214 151 218 111 q 203 232 210 192 l 174 400 l 293 422 l 313 306 q 336 75 336 171 q 316 -85 336 -11 q 251 -215 296 -160 q 138 -302 207 -271 q -29 -333 68 -333 l -83 -333 l -83 -176 m 204 564 q 153 583 172 564 q 135 643 135 603 q 153 703 135 685 q 204 722 172 722 l 225 722 q 276 703 257 722 q 296 643 296 685 q 276 583 296 603 q 225 564 257 564 l 204 564 m 204 758 q 153 777 172 758 q 135 836 135 796 q 153 897 135 878 q 204 915 172 915 l 225 915 q 276 897 257 915 q 296 836 296 878 q 276 777 296 796 q 225 758 257 758 l 204 758 z "},"ݬ":{"ha":389,"x_min":-83,"x_max":364,"o":"m -83 -176 l -31 -176 q 88 -158 40 -176 q 164 -108 135 -140 q 206 -29 193 -75 q 218 74 218 17 q 214 151 218 111 q 203 232 210 192 l 174 400 l 293 422 l 313 306 q 336 75 336 171 q 316 -85 336 -11 q 251 -215 296 -160 q 138 -302 207 -271 q -29 -333 68 -333 l -83 -333 l -83 -176 m 60 629 l 114 629 l 115 636 q 89 708 89 665 q 128 801 89 764 q 226 838 167 838 q 297 822 263 838 q 354 778 332 806 l 296 703 q 226 735 264 735 q 186 723 201 735 q 171 693 171 711 q 268 638 171 638 l 364 638 l 364 533 l 60 533 l 60 629 z "},"ݱ":{"ha":389,"x_min":-83,"x_max":389,"o":"m -83 -176 l -31 -176 q 88 -158 40 -176 q 164 -108 135 -140 q 206 -29 193 -75 q 218 74 218 17 q 214 151 218 111 q 203 232 210 192 l 174 400 l 293 422 l 313 306 q 336 75 336 171 q 316 -85 336 -11 q 251 -215 296 -160 q 138 -302 207 -271 q -29 -333 68 -333 l -83 -333 l -83 -176 m 297 564 q 247 583 265 564 q 228 643 228 603 q 247 703 228 685 q 297 722 265 722 l 318 722 q 369 703 350 722 q 389 643 389 685 q 369 583 389 603 q 318 564 350 564 l 297 564 m 101 564 q 51 583 69 564 q 32 643 32 603 q 51 703 32 685 q 101 722 69 722 l 122 722 q 174 703 154 722 q 193 643 193 685 q 174 583 193 603 q 122 564 154 564 l 101 564 m 32 932 l 74 932 l 86 954 l 86 1206 l 167 1206 l 167 1065 q 203 1083 182 1076 q 254 1090 225 1090 q 350 1054 318 1090 q 382 963 382 1018 q 343 863 382 889 q 244 836 304 836 l 32 836 l 32 932 m 138 935 l 139 932 l 244 932 q 300 938 281 932 q 319 963 319 943 q 303 987 319 979 q 263 994 286 994 l 242 994 q 181 985 200 994 q 147 953 163 976 l 138 935 z "},"ﱜ":{"ha":389,"x_min":-83,"x_max":336,"o":"m -83 -176 l -31 -176 q 88 -158 40 -176 q 164 -108 135 -140 q 206 -29 193 -75 q 218 74 218 17 q 214 151 218 111 q 203 232 210 192 l 174 400 l 293 422 l 313 306 q 336 75 336 171 q 316 -85 336 -11 q 251 -215 296 -160 q 138 -302 207 -271 q -29 -333 68 -333 l -83 -333 l -83 -176 m 172 778 l 254 778 l 254 533 l 172 533 l 172 778 z "},"ړ":{"ha":389,"x_min":-83,"x_max":336,"o":"m 128 -529 q 69 -517 96 -529 q 24 -485 43 -506 q -7 -437 4 -465 q -18 -378 -18 -410 q -17 -356 -18 -367 q -12 -333 -15 -344 l -83 -333 l -83 -176 l -31 -176 q 88 -158 40 -176 q 164 -108 135 -140 q 206 -29 193 -75 q 218 74 218 17 q 214 151 218 111 q 203 232 210 192 l 174 400 l 293 422 l 313 306 q 336 75 336 171 q 307 -112 336 -28 q 214 -253 278 -197 q 257 -306 242 -274 q 272 -378 272 -337 q 231 -486 272 -443 q 128 -529 190 -529 m 128 -442 q 177 -424 157 -442 q 197 -378 197 -406 q 177 -332 197 -350 q 128 -314 157 -314 q 77 -332 97 -314 q 57 -378 57 -350 q 77 -424 57 -406 q 128 -442 97 -442 z "},"ݛ":{"ha":389,"x_min":-83,"x_max":336,"o":"m -83 0 l 213 0 q 217 35 215 17 q 218 74 218 54 q 214 151 218 111 q 203 232 210 192 l 174 400 l 293 422 l 313 306 q 336 75 336 171 q 316 -85 336 -11 q 251 -215 296 -160 q 138 -302 207 -271 q -29 -333 68 -333 l -83 -333 l -83 -176 l -31 -176 q 92 -158 43 -176 q 169 -103 142 -139 l -83 -103 l -83 0 z "},"ﺮ":{"ha":461,"x_min":-83,"x_max":461,"o":"m -83 -176 l -31 -176 q 88 -158 40 -176 q 164 -108 135 -140 q 206 -29 193 -75 q 218 74 218 17 q 214 151 218 111 q 203 232 210 192 l 174 400 l 293 422 l 313 306 q 324 228 319 265 q 332 157 329 190 l 461 157 l 461 33 l 428 0 l 332 0 q 299 -133 324 -72 q 230 -239 274 -194 q 122 -308 186 -283 q -29 -333 58 -333 l -83 -333 l -83 -176 z "},"ﺰ":{"ha":461,"x_min":-83,"x_max":461,"o":"m -83 -176 l -31 -176 q 88 -158 40 -176 q 164 -108 135 -140 q 206 -29 193 -75 q 218 74 218 17 q 214 151 218 111 q 203 232 210 192 l 174 400 l 293 422 l 313 306 q 324 228 319 265 q 332 157 329 190 l 461 157 l 461 33 l 428 0 l 332 0 q 299 -133 324 -72 q 230 -239 274 -194 q 122 -308 186 -283 q -29 -333 58 -333 l -83 -333 l -83 -176 m 201 564 q 151 583 169 564 q 132 643 132 603 q 151 703 132 685 q 201 722 169 722 l 222 722 q 274 703 254 722 q 293 643 293 685 q 274 583 293 603 q 222 564 254 564 l 201 564 z "},"ﮍ":{"ha":461,"x_min":-83,"x_max":461,"o":"m -83 -176 l -31 -176 q 88 -158 40 -176 q 164 -108 135 -140 q 206 -29 193 -75 q 218 74 218 17 q 214 151 218 111 q 203 232 210 192 l 174 400 l 293 422 l 313 306 q 324 228 319 265 q 332 157 329 190 l 461 157 l 461 33 l 428 0 l 332 0 q 299 -133 324 -72 q 230 -239 274 -194 q 122 -308 186 -283 q -29 -333 58 -333 l -83 -333 l -83 -176 m 35 629 l 76 629 l 89 651 l 89 903 l 169 903 l 169 763 q 206 781 185 774 q 257 788 228 788 q 353 751 321 788 q 385 660 385 715 q 346 560 385 586 q 247 533 307 533 l 35 533 l 35 629 m 140 632 l 142 629 l 247 629 q 303 635 283 629 q 322 660 322 640 q 306 684 322 676 q 265 692 289 692 l 244 692 q 184 683 203 692 q 150 650 165 674 l 140 632 z "},"ﮋ":{"ha":461,"x_min":-83,"x_max":461,"o":"m -83 -176 l -31 -176 q 88 -158 40 -176 q 164 -108 135 -140 q 206 -29 193 -75 q 218 74 218 17 q 214 151 218 111 q 203 232 210 192 l 174 400 l 293 422 l 313 306 q 324 228 319 265 q 332 157 329 190 l 461 157 l 461 33 l 428 0 l 332 0 q 299 -133 324 -72 q 230 -239 274 -194 q 122 -308 186 -283 q -29 -333 58 -333 l -83 -333 l -83 -176 m 301 564 q 250 583 269 564 q 231 643 231 603 q 250 703 231 685 q 301 722 269 722 l 321 722 q 372 703 353 722 q 392 643 392 685 q 372 583 392 603 q 321 564 353 564 l 301 564 m 104 564 q 53 583 72 564 q 35 643 35 603 q 53 703 35 685 q 104 722 72 722 l 125 722 q 176 703 157 722 q 196 643 196 685 q 176 583 196 603 q 125 564 157 564 l 104 564 m 203 747 q 153 766 172 747 q 133 825 133 785 q 153 883 133 865 q 203 901 172 901 l 224 901 q 273 883 254 901 q 292 825 292 865 q 273 766 292 785 q 224 747 254 747 l 203 747 z "},"ࢪ":{"ha":778,"x_min":36,"x_max":725,"o":"m 289 -422 q 103 -363 171 -422 q 36 -190 36 -304 q 102 -17 36 -74 q 283 40 168 40 q 367 31 331 40 q 436 3 404 22 q 498 -48 468 -17 q 563 -124 528 -79 q 607 68 607 -43 q 603 148 607 107 q 592 238 600 189 l 564 400 l 685 422 l 704 306 q 720 182 715 238 q 725 75 725 126 q 702 -88 725 -12 q 639 -226 679 -164 l 725 -343 l 619 -422 l 550 -328 q 430 -397 496 -372 q 289 -422 364 -422 m 303 -271 q 394 -258 351 -271 q 472 -222 436 -246 l 469 -218 q 431 -170 449 -190 q 395 -137 414 -150 q 353 -117 376 -124 q 297 -111 331 -111 l 256 -111 q 154 -190 154 -111 q 261 -271 154 -271 l 303 -271 z "},"ﻟ":{"ha":385,"x_min":-33,"x_max":289,"o":"m -33 124 l 0 157 l 49 157 q 134 183 110 157 q 158 267 158 210 l 158 1028 l 289 1028 l 289 267 q 233 65 289 129 q 49 0 178 0 l -33 0 l -33 124 z "},"ﱂ":{"ha":583,"x_min":71,"x_max":611,"o":"m 71 10 q 121 215 71 144 q 276 300 171 286 l 276 1028 l 407 1028 l 407 296 q 477 277 440 289 q 550 250 514 265 l 611 225 l 550 79 l 478 111 q 399 137 439 128 q 332 146 360 146 q 231 113 263 146 q 199 7 199 79 l 199 -424 l 71 -424 l 71 10 z "},"ﳌ":{"ha":388,"x_min":-33,"x_max":436,"o":"m 290 -57 q 236 -30 261 -40 q 188 -12 211 -19 q 140 -3 164 -6 q 85 0 115 0 l -33 0 l -33 124 l 0 157 l 96 157 l 96 1028 l 225 1028 l 225 142 q 292 117 258 132 q 367 81 326 103 l 436 42 l 360 -96 l 290 -57 z "},"ل":{"ha":922,"x_min":53,"x_max":828,"o":"m 431 -333 q 151 -239 249 -333 q 53 28 53 -144 q 70 165 53 90 q 118 313 88 240 l 224 281 q 181 160 197 222 q 164 47 164 97 q 222 -110 164 -54 q 383 -165 281 -165 l 479 -165 q 581 -151 539 -165 q 649 -106 622 -137 q 686 -22 675 -74 q 697 106 697 31 l 697 1028 l 828 1028 l 828 106 q 731 -227 828 -121 q 431 -333 635 -333 z "},"ﻝ":{"ha":922,"x_min":53,"x_max":828,"o":"m 431 -333 q 151 -239 249 -333 q 53 28 53 -144 q 70 165 53 90 q 118 313 88 240 l 224 281 q 181 160 197 222 q 164 47 164 97 q 222 -110 164 -54 q 383 -165 281 -165 l 479 -165 q 581 -151 539 -165 q 649 -106 622 -137 q 686 -22 675 -74 q 697 106 697 31 l 697 1028 l 828 1028 l 828 106 q 731 -227 828 -121 q 431 -333 635 -333 z "},"ڵ":{"ha":922,"x_min":53,"x_max":828,"o":"m 431 -333 q 151 -239 249 -333 q 53 28 53 -144 q 70 165 53 90 q 118 313 88 240 l 224 281 q 181 160 197 222 q 164 47 164 97 q 222 -110 164 -54 q 383 -165 281 -165 l 479 -165 q 581 -151 539 -165 q 649 -106 622 -137 q 686 -22 675 -74 q 697 106 697 31 l 697 1028 l 828 1028 l 828 106 q 731 -227 828 -121 q 431 -333 635 -333 m 213 1122 l 324 1122 l 392 932 l 394 932 l 461 1122 l 560 1122 l 447 833 l 324 833 l 213 1122 z "},"ڶ":{"ha":922,"x_min":53,"x_max":828,"o":"m 431 -333 q 151 -239 249 -333 q 53 28 53 -144 q 70 165 53 90 q 118 313 88 240 l 224 281 q 181 160 197 222 q 164 47 164 97 q 222 -110 164 -54 q 383 -165 281 -165 l 479 -165 q 581 -151 539 -165 q 649 -106 622 -137 q 686 -22 675 -74 q 697 106 697 31 l 697 1028 l 828 1028 l 828 106 q 731 -227 828 -121 q 431 -333 635 -333 m 375 864 q 324 883 343 864 q 306 943 306 903 q 324 1003 306 985 q 375 1022 343 1022 l 396 1022 q 447 1003 428 1022 q 467 943 467 985 q 447 883 467 903 q 396 864 428 864 l 375 864 z "},"ڷ":{"ha":922,"x_min":53,"x_max":828,"o":"m 431 -333 q 151 -239 249 -333 q 53 28 53 -144 q 70 165 53 90 q 118 313 88 240 l 224 281 q 181 160 197 222 q 164 47 164 97 q 222 -110 164 -54 q 383 -165 281 -165 l 479 -165 q 581 -151 539 -165 q 649 -106 622 -137 q 686 -22 675 -74 q 697 106 697 31 l 697 1028 l 828 1028 l 828 106 q 731 -227 828 -121 q 431 -333 635 -333 m 475 864 q 424 883 443 864 q 404 943 404 903 q 424 1003 404 985 q 475 1022 443 1022 l 494 1022 q 546 1003 526 1022 q 565 943 565 985 q 546 883 565 903 q 494 864 526 864 l 475 864 m 278 864 q 227 883 246 864 q 208 943 208 903 q 227 1003 208 985 q 278 1022 246 1022 l 299 1022 q 350 1003 331 1022 q 369 943 369 985 q 350 883 369 903 q 299 864 331 864 l 278 864 m 376 1047 q 326 1066 346 1047 q 307 1125 307 1085 q 326 1183 307 1165 q 376 1201 346 1201 l 397 1201 q 447 1183 428 1201 q 465 1125 465 1165 q 447 1066 465 1085 q 397 1047 428 1047 l 376 1047 z "},"ڸ":{"ha":922,"x_min":53,"x_max":828,"o":"m 431 -333 q 151 -239 249 -333 q 53 28 53 -144 q 70 165 53 90 q 118 313 88 240 l 224 281 q 181 160 197 222 q 164 47 164 97 q 222 -110 164 -54 q 383 -165 281 -165 l 479 -165 q 581 -151 539 -165 q 649 -106 622 -137 q 686 -22 675 -74 q 697 106 697 31 l 697 1028 l 828 1028 l 828 106 q 731 -227 828 -121 q 431 -333 635 -333 m 517 -619 q 465 -601 485 -619 q 446 -540 446 -582 q 465 -481 446 -500 q 517 -462 485 -462 l 536 -462 q 588 -481 568 -462 q 607 -540 607 -500 q 588 -601 607 -582 q 536 -619 568 -619 l 517 -619 m 418 -800 q 368 -781 388 -800 q 349 -722 349 -762 q 368 -663 349 -682 q 418 -644 388 -644 l 439 -644 q 488 -663 469 -644 q 507 -722 507 -682 q 488 -781 507 -762 q 439 -800 469 -800 l 418 -800 m 319 -619 q 269 -601 289 -619 q 250 -540 250 -582 q 269 -481 250 -500 q 319 -462 289 -462 l 340 -462 q 392 -481 372 -462 q 411 -540 411 -500 q 392 -601 411 -582 q 340 -619 372 -619 l 319 -619 z "},"ݪ":{"ha":922,"x_min":53,"x_max":936,"o":"m 590 642 l 697 642 l 697 1028 l 828 1028 l 828 642 l 936 642 l 936 538 l 828 538 l 828 106 q 731 -227 828 -121 q 431 -333 635 -333 q 151 -239 249 -333 q 53 28 53 -144 q 70 165 53 90 q 118 313 88 240 l 224 281 q 181 160 197 222 q 164 47 164 97 q 222 -110 164 -54 q 383 -165 281 -165 l 479 -165 q 581 -151 539 -165 q 649 -106 622 -137 q 686 -22 675 -74 q 697 106 697 31 l 697 538 l 590 538 l 590 642 z "},"ࢦ":{"ha":922,"x_min":53,"x_max":936,"o":"m 590 739 l 697 739 l 697 1028 l 828 1028 l 828 739 l 936 739 l 936 635 l 828 635 l 828 544 l 936 544 l 936 440 l 828 440 l 828 106 q 731 -227 828 -121 q 431 -333 635 -333 q 151 -239 249 -333 q 53 28 53 -144 q 70 165 53 90 q 118 313 88 240 l 224 281 q 181 160 197 222 q 164 47 164 97 q 222 -110 164 -54 q 383 -165 281 -165 l 479 -165 q 581 -151 539 -165 q 649 -106 622 -137 q 686 -22 675 -74 q 697 106 697 31 l 697 440 l 590 440 l 590 544 l 697 544 l 697 635 l 590 635 l 590 739 z "},"ﻞ":{"ha":990,"x_min":53,"x_max":990,"o":"m 431 -333 q 151 -239 249 -333 q 53 28 53 -144 q 70 165 53 90 q 118 313 88 240 l 224 281 q 181 160 197 222 q 164 47 164 97 q 222 -110 164 -54 q 383 -165 281 -165 l 479 -165 q 581 -151 539 -165 q 649 -106 622 -137 q 686 -22 675 -74 q 697 106 697 31 l 697 1028 l 828 1028 l 828 157 l 990 157 l 990 33 l 957 0 l 822 0 q 706 -253 801 -172 q 431 -333 610 -333 z "},"ں":{"ha":933,"x_min":53,"x_max":883,"o":"m 457 -224 q 158 -128 263 -224 q 53 138 53 -33 q 70 276 53 201 q 118 422 88 350 l 224 390 q 181 274 197 333 q 164 165 164 214 q 229 3 164 61 q 410 -56 294 -56 l 506 -56 q 703 1 640 -56 q 767 179 767 57 q 760 269 767 218 q 739 386 753 319 l 713 508 l 833 532 l 856 411 q 876 281 869 338 q 883 179 883 224 q 781 -126 883 -28 q 457 -224 678 -224 z "},"ن":{"ha":933,"x_min":53,"x_max":883,"o":"m 457 -224 q 158 -128 263 -224 q 53 138 53 -33 q 70 276 53 201 q 118 422 88 350 l 224 390 q 181 274 197 333 q 164 165 164 214 q 229 3 164 61 q 410 -56 294 -56 l 506 -56 q 703 1 640 -56 q 767 179 767 57 q 760 269 767 218 q 739 386 753 319 l 713 508 l 833 532 l 856 411 q 876 281 869 338 q 883 179 883 224 q 781 -126 883 -28 q 457 -224 678 -224 m 463 532 q 412 551 431 532 q 393 611 393 571 q 412 672 393 653 q 463 690 431 690 l 483 690 q 535 672 515 690 q 554 611 554 653 q 535 551 554 571 q 483 532 515 532 l 463 532 z "},"ﻥ":{"ha":933,"x_min":53,"x_max":883,"o":"m 457 -224 q 158 -128 263 -224 q 53 138 53 -33 q 70 276 53 201 q 118 422 88 350 l 224 390 q 181 274 197 333 q 164 165 164 214 q 229 3 164 61 q 410 -56 294 -56 l 506 -56 q 703 1 640 -56 q 767 179 767 57 q 760 269 767 218 q 739 386 753 319 l 713 508 l 833 532 l 856 411 q 876 281 869 338 q 883 179 883 224 q 781 -126 883 -28 q 457 -224 678 -224 m 463 532 q 412 551 431 532 q 393 611 393 571 q 412 672 393 653 q 463 690 431 690 l 483 690 q 535 672 515 690 q 554 611 554 653 q 535 551 554 571 q 483 532 515 532 l 463 532 z "},"ڹ":{"ha":933,"x_min":53,"x_max":883,"o":"m 457 -224 q 158 -128 263 -224 q 53 138 53 -33 q 70 276 53 201 q 118 422 88 350 l 224 390 q 181 274 197 333 q 164 165 164 214 q 229 3 164 61 q 410 -56 294 -56 l 506 -56 q 703 1 640 -56 q 767 179 767 57 q 760 269 767 218 q 739 386 753 319 l 713 508 l 833 532 l 856 411 q 876 281 869 338 q 883 179 883 224 q 781 -126 883 -28 q 457 -224 678 -224 m 463 532 q 412 551 431 532 q 393 611 393 571 q 412 672 393 653 q 463 690 431 690 l 483 690 q 535 672 515 690 q 554 611 554 653 q 535 551 554 571 q 483 532 515 532 l 463 532 m 446 -511 q 395 -492 414 -511 q 376 -432 376 -472 q 395 -372 376 -390 q 446 -353 414 -353 l 467 -353 q 518 -372 499 -353 q 538 -432 538 -390 q 518 -492 538 -472 q 467 -511 499 -511 l 446 -511 z "},"ڻ":{"ha":933,"x_min":53,"x_max":883,"o":"m 457 -224 q 158 -128 263 -224 q 53 138 53 -33 q 70 276 53 201 q 118 422 88 350 l 224 390 q 181 274 197 333 q 164 165 164 214 q 229 3 164 61 q 410 -56 294 -56 l 506 -56 q 703 1 640 -56 q 767 179 767 57 q 760 269 767 218 q 739 386 753 319 l 713 508 l 833 532 l 856 411 q 876 281 869 338 q 883 179 883 224 q 781 -126 883 -28 q 457 -224 678 -224 m 296 599 l 338 599 l 350 621 l 350 872 l 431 872 l 431 732 q 467 750 446 743 q 518 757 489 757 q 614 721 582 757 q 646 629 646 685 q 607 529 646 556 q 508 503 568 503 l 296 503 l 296 599 m 401 601 l 403 599 l 508 599 q 564 604 544 599 q 583 629 583 610 q 567 653 583 646 q 526 661 550 661 l 506 661 q 445 652 464 661 q 411 619 426 643 l 401 601 z "},"ڽ":{"ha":933,"x_min":53,"x_max":883,"o":"m 457 -224 q 158 -128 263 -224 q 53 138 53 -33 q 70 276 53 201 q 118 422 88 350 l 224 390 q 181 274 197 333 q 164 165 164 214 q 229 3 164 61 q 410 -56 294 -56 l 506 -56 q 703 1 640 -56 q 767 179 767 57 q 760 269 767 218 q 739 386 753 319 l 713 508 l 833 532 l 856 411 q 876 281 869 338 q 883 179 883 224 q 781 -126 883 -28 q 457 -224 678 -224 m 563 532 q 511 551 531 532 q 492 611 492 571 q 511 672 492 653 q 563 690 531 690 l 582 690 q 633 672 614 690 q 653 611 653 653 q 633 551 653 571 q 582 532 614 532 l 563 532 m 365 532 q 315 551 333 532 q 296 611 296 571 q 315 672 296 653 q 365 690 333 690 l 386 690 q 438 672 418 690 q 457 611 457 653 q 438 551 457 571 q 386 532 418 532 l 365 532 m 464 715 q 414 734 433 715 q 394 793 394 753 q 414 851 394 833 q 464 869 433 869 l 485 869 q 534 851 515 869 q 553 793 553 833 q 534 734 553 753 q 485 715 515 715 l 464 715 z "},"ݧ":{"ha":933,"x_min":53,"x_max":883,"o":"m 457 -224 q 158 -128 263 -224 q 53 138 53 -33 q 70 276 53 201 q 118 422 88 350 l 224 390 q 181 274 197 333 q 164 165 164 214 q 229 3 164 61 q 410 -56 294 -56 l 506 -56 q 703 1 640 -56 q 767 179 767 57 q 760 269 767 218 q 739 386 753 319 l 713 508 l 833 532 l 856 411 q 876 281 869 338 q 883 179 883 224 q 781 -126 883 -28 q 457 -224 678 -224 m 463 532 q 412 551 431 532 q 393 611 393 571 q 412 672 393 653 q 463 690 431 690 l 483 690 q 535 672 515 690 q 554 611 554 653 q 535 551 554 571 q 483 532 515 532 l 463 532 m 544 -511 q 494 -492 513 -511 q 475 -432 475 -472 q 494 -372 475 -390 q 544 -353 513 -353 l 565 -353 q 617 -372 597 -353 q 636 -432 636 -390 q 617 -492 636 -472 q 565 -511 597 -511 l 544 -511 m 349 -511 q 298 -492 317 -511 q 279 -432 279 -472 q 298 -372 279 -390 q 349 -353 317 -353 l 369 -353 q 421 -372 401 -353 q 440 -432 440 -390 q 421 -492 440 -472 q 369 -511 401 -511 l 349 -511 z "},"ݨ":{"ha":933,"x_min":53,"x_max":883,"o":"m 457 -224 q 158 -128 263 -224 q 53 138 53 -33 q 70 276 53 201 q 118 422 88 350 l 224 390 q 181 274 197 333 q 164 165 164 214 q 229 3 164 61 q 410 -56 294 -56 l 506 -56 q 703 1 640 -56 q 767 179 767 57 q 760 269 767 218 q 739 386 753 319 l 713 508 l 833 532 l 856 411 q 876 281 869 338 q 883 179 883 224 q 781 -126 883 -28 q 457 -224 678 -224 m 463 532 q 412 551 431 532 q 393 611 393 571 q 412 672 393 653 q 463 690 431 690 l 483 690 q 535 672 515 690 q 554 611 554 653 q 535 551 554 571 q 483 532 515 532 l 463 532 m 296 897 l 338 897 l 350 919 l 350 1171 l 431 1171 l 431 1031 q 467 1049 446 1042 q 518 1056 489 1056 q 614 1019 582 1056 q 646 928 646 983 q 607 828 646 854 q 508 801 568 801 l 296 801 l 296 897 m 401 900 l 403 897 l 508 897 q 564 903 544 897 q 583 928 583 908 q 567 952 583 944 q 526 960 550 960 l 506 960 q 445 951 464 960 q 411 918 426 942 l 401 900 z "},"ݩ":{"ha":933,"x_min":53,"x_max":883,"o":"m 457 -224 q 158 -128 263 -224 q 53 138 53 -33 q 70 276 53 201 q 118 422 88 350 l 224 390 q 181 274 197 333 q 164 165 164 214 q 229 3 164 61 q 410 -56 294 -56 l 506 -56 q 703 1 640 -56 q 767 179 767 57 q 760 269 767 218 q 739 386 753 319 l 713 508 l 833 532 l 856 411 q 876 281 869 338 q 883 179 883 224 q 781 -126 883 -28 q 457 -224 678 -224 m 463 532 q 412 551 431 532 q 393 611 393 571 q 412 672 393 653 q 463 690 431 690 l 483 690 q 535 672 515 690 q 554 611 554 653 q 535 551 554 571 q 483 532 515 532 l 463 532 m 300 1090 l 411 1090 l 479 900 l 482 900 l 549 1090 l 647 1090 l 535 801 l 411 801 l 300 1090 z "},"ڼ":{"ha":933,"x_min":53,"x_max":883,"o":"m 458 -439 q 400 -427 426 -439 q 354 -395 374 -415 q 324 -347 335 -375 q 313 -287 313 -319 q 331 -211 313 -247 q 124 -92 196 -182 q 53 138 53 -3 q 70 276 53 201 q 118 422 88 350 l 224 390 q 181 274 197 333 q 164 165 164 214 q 229 3 164 61 q 410 -56 294 -56 l 506 -56 q 703 1 640 -56 q 767 179 767 57 q 760 269 767 218 q 739 386 753 319 l 713 508 l 833 532 l 856 411 q 876 281 869 338 q 883 179 883 224 q 811 -91 883 6 q 586 -214 739 -187 q 603 -287 603 -247 q 562 -396 603 -353 q 458 -439 521 -439 m 463 532 q 412 551 431 532 q 393 611 393 571 q 412 672 393 653 q 463 690 431 690 l 483 690 q 535 672 515 690 q 554 611 554 653 q 535 551 554 571 q 483 532 515 532 l 463 532 m 457 -224 q 408 -242 428 -224 q 388 -287 388 -260 q 408 -333 388 -315 q 458 -351 428 -351 q 508 -333 488 -351 q 528 -287 528 -315 q 508 -242 528 -260 q 457 -224 488 -224 z "},"ٮ":{"ha":1192,"x_min":58,"x_max":1138,"o":"m 589 -17 q 339 -1 440 -17 q 175 51 238 15 q 85 144 113 86 q 58 285 58 201 q 115 533 58 396 l 222 501 q 182 399 196 446 q 168 313 168 353 q 245 194 168 231 q 497 157 322 157 l 692 157 q 851 162 788 157 q 951 179 914 167 q 1005 213 989 192 q 1021 265 1021 233 q 1018 322 1021 288 q 1004 413 1015 356 l 982 533 l 1103 553 l 1122 432 q 1133 337 1129 379 q 1138 265 1138 294 q 1111 129 1138 183 q 1022 43 1085 75 q 853 -3 958 11 q 589 -17 747 -17 z "},"ب":{"ha":1192,"x_min":58,"x_max":1138,"o":"m 589 -17 q 339 -1 440 -17 q 175 51 238 15 q 85 144 113 86 q 58 285 58 201 q 115 533 58 396 l 222 501 q 182 399 196 446 q 168 313 168 353 q 245 194 168 231 q 497 157 322 157 l 692 157 q 851 162 788 157 q 951 179 914 167 q 1005 213 989 192 q 1021 265 1021 233 q 1018 322 1021 288 q 1004 413 1015 356 l 982 533 l 1103 553 l 1122 432 q 1133 337 1129 379 q 1138 265 1138 294 q 1111 129 1138 183 q 1022 43 1085 75 q 853 -3 958 11 q 589 -17 747 -17 m 582 -287 q 531 -268 550 -287 q 513 -208 513 -249 q 531 -148 513 -167 q 582 -129 550 -129 l 603 -129 q 654 -148 635 -129 q 674 -208 674 -167 q 654 -268 674 -249 q 603 -287 635 -287 l 582 -287 z "},"ﺏ":{"ha":1192,"x_min":58,"x_max":1138,"o":"m 589 -17 q 339 -1 440 -17 q 175 51 238 15 q 85 144 113 86 q 58 285 58 201 q 115 533 58 396 l 222 501 q 182 399 196 446 q 168 313 168 353 q 245 194 168 231 q 497 157 322 157 l 692 157 q 851 162 788 157 q 951 179 914 167 q 1005 213 989 192 q 1021 265 1021 233 q 1018 322 1021 288 q 1004 413 1015 356 l 982 533 l 1103 553 l 1122 432 q 1133 337 1129 379 q 1138 265 1138 294 q 1111 129 1138 183 q 1022 43 1085 75 q 853 -3 958 11 q 589 -17 747 -17 m 582 -287 q 531 -268 550 -287 q 513 -208 513 -249 q 531 -148 513 -167 q 582 -129 550 -129 l 603 -129 q 654 -148 635 -129 q 674 -208 674 -167 q 654 -268 674 -249 q 603 -287 635 -287 l 582 -287 z "},"پ":{"ha":1192,"x_min":58,"x_max":1138,"o":"m 589 -17 q 339 -1 440 -17 q 175 51 238 15 q 85 144 113 86 q 58 285 58 201 q 115 533 58 396 l 222 501 q 182 399 196 446 q 168 313 168 353 q 245 194 168 231 q 497 157 322 157 l 692 157 q 851 162 788 157 q 951 179 914 167 q 1005 213 989 192 q 1021 265 1021 233 q 1018 322 1021 288 q 1004 413 1015 356 l 982 533 l 1103 553 l 1122 432 q 1133 337 1129 379 q 1138 265 1138 294 q 1111 129 1138 183 q 1022 43 1085 75 q 853 -3 958 11 q 589 -17 747 -17 m 679 -286 q 628 -267 647 -286 q 608 -207 608 -249 q 628 -148 608 -167 q 679 -129 647 -129 l 699 -129 q 750 -148 731 -129 q 769 -207 769 -167 q 750 -267 769 -249 q 699 -286 731 -286 l 679 -286 m 581 -467 q 531 -448 550 -467 q 511 -389 511 -429 q 531 -330 511 -349 q 581 -311 550 -311 l 601 -311 q 651 -330 632 -311 q 669 -389 669 -349 q 651 -448 669 -429 q 601 -467 632 -467 l 581 -467 m 482 -286 q 432 -267 451 -286 q 413 -207 413 -249 q 432 -148 413 -167 q 482 -129 451 -129 l 503 -129 q 554 -148 535 -129 q 574 -207 574 -167 q 554 -267 574 -249 q 503 -286 535 -286 l 482 -286 z "},"ٻ":{"ha":1192,"x_min":58,"x_max":1138,"o":"m 589 -17 q 339 -1 440 -17 q 175 51 238 15 q 85 144 113 86 q 58 285 58 201 q 115 533 58 396 l 222 501 q 182 399 196 446 q 168 313 168 353 q 245 194 168 231 q 497 157 322 157 l 692 157 q 851 162 788 157 q 951 179 914 167 q 1005 213 989 192 q 1021 265 1021 233 q 1018 322 1021 288 q 1004 413 1015 356 l 982 533 l 1103 553 l 1122 432 q 1133 337 1129 379 q 1138 265 1138 294 q 1111 129 1138 183 q 1022 43 1085 75 q 853 -3 958 11 q 589 -17 747 -17 m 583 -422 q 533 -403 551 -422 q 514 -343 514 -383 q 533 -283 514 -301 q 583 -264 551 -264 l 604 -264 q 656 -283 636 -264 q 675 -343 675 -301 q 656 -403 675 -383 q 604 -422 636 -422 l 583 -422 m 583 -228 q 533 -209 551 -228 q 514 -150 514 -190 q 533 -90 514 -108 q 583 -71 551 -71 l 604 -71 q 656 -90 636 -71 q 675 -150 675 -108 q 656 -209 675 -190 q 604 -228 636 -228 l 583 -228 z "},"ڀ":{"ha":1192,"x_min":58,"x_max":1138,"o":"m 589 -17 q 339 -1 440 -17 q 175 51 238 15 q 85 144 113 86 q 58 285 58 201 q 115 533 58 396 l 222 501 q 182 399 196 446 q 168 313 168 353 q 245 194 168 231 q 497 157 322 157 l 692 157 q 851 162 788 157 q 951 179 914 167 q 1005 213 989 192 q 1021 265 1021 233 q 1018 322 1021 288 q 1004 413 1015 356 l 982 533 l 1103 553 l 1122 432 q 1133 337 1129 379 q 1138 265 1138 294 q 1111 129 1138 183 q 1022 43 1085 75 q 853 -3 958 11 q 589 -17 747 -17 m 681 -422 q 630 -403 649 -422 q 611 -343 611 -383 q 630 -283 611 -301 q 681 -264 649 -264 l 701 -264 q 753 -283 733 -264 q 772 -343 772 -301 q 753 -403 772 -383 q 701 -422 733 -422 l 681 -422 m 681 -228 q 630 -209 649 -228 q 611 -150 611 -190 q 630 -90 611 -108 q 681 -71 649 -71 l 701 -71 q 753 -90 733 -71 q 772 -150 772 -108 q 753 -209 772 -190 q 701 -228 733 -228 l 681 -228 m 485 -422 q 434 -403 453 -422 q 415 -343 415 -383 q 434 -283 415 -301 q 485 -264 453 -264 l 506 -264 q 557 -283 538 -264 q 576 -343 576 -301 q 557 -403 576 -383 q 506 -422 538 -422 l 485 -422 m 485 -228 q 434 -209 453 -228 q 415 -150 415 -190 q 434 -90 415 -108 q 485 -71 453 -71 l 506 -71 q 557 -90 538 -71 q 576 -150 576 -108 q 557 -209 576 -190 q 506 -228 538 -228 l 485 -228 z "},"ت":{"ha":1192,"x_min":58,"x_max":1138,"o":"m 589 -17 q 339 -1 440 -17 q 175 51 238 15 q 85 144 113 86 q 58 285 58 201 q 115 533 58 396 l 222 501 q 182 399 196 446 q 168 313 168 353 q 245 194 168 231 q 497 157 322 157 l 692 157 q 851 162 788 157 q 951 179 914 167 q 1005 213 989 192 q 1021 265 1021 233 q 1018 322 1021 288 q 1004 413 1015 356 l 982 533 l 1103 553 l 1122 432 q 1133 337 1129 379 q 1138 265 1138 294 q 1111 129 1138 183 q 1022 43 1085 75 q 853 -3 958 11 q 589 -17 747 -17 m 678 508 q 627 528 646 508 q 608 588 608 547 q 627 648 608 629 q 678 667 646 667 l 699 667 q 750 648 731 667 q 769 588 769 629 q 750 528 769 547 q 699 508 731 508 l 678 508 m 482 508 q 431 528 450 508 q 413 588 413 547 q 431 648 413 629 q 482 667 450 667 l 503 667 q 554 648 535 667 q 574 588 574 629 q 554 528 574 547 q 503 508 535 508 l 482 508 z "},"ﺕ":{"ha":1192,"x_min":58,"x_max":1138,"o":"m 589 -17 q 339 -1 440 -17 q 175 51 238 15 q 85 144 113 86 q 58 285 58 201 q 115 533 58 396 l 222 501 q 182 399 196 446 q 168 313 168 353 q 245 194 168 231 q 497 157 322 157 l 692 157 q 851 162 788 157 q 951 179 914 167 q 1005 213 989 192 q 1021 265 1021 233 q 1018 322 1021 288 q 1004 413 1015 356 l 982 533 l 1103 553 l 1122 432 q 1133 337 1129 379 q 1138 265 1138 294 q 1111 129 1138 183 q 1022 43 1085 75 q 853 -3 958 11 q 589 -17 747 -17 m 678 508 q 627 528 646 508 q 608 588 608 547 q 627 648 608 629 q 678 667 646 667 l 699 667 q 750 648 731 667 q 769 588 769 629 q 750 528 769 547 q 699 508 731 508 l 678 508 m 482 508 q 431 528 450 508 q 413 588 413 547 q 431 648 413 629 q 482 667 450 667 l 503 667 q 554 648 535 667 q 574 588 574 629 q 554 528 574 547 q 503 508 535 508 l 482 508 z "},"ٽ":{"ha":1192,"x_min":58,"x_max":1138,"o":"m 589 -17 q 339 -1 440 -17 q 175 51 238 15 q 85 144 113 86 q 58 285 58 201 q 115 533 58 396 l 222 501 q 182 399 196 446 q 168 313 168 353 q 245 194 168 231 q 497 157 322 157 l 692 157 q 851 162 788 157 q 951 179 914 167 q 1005 213 989 192 q 1021 265 1021 233 q 1018 322 1021 288 q 1004 413 1015 356 l 982 533 l 1103 553 l 1122 432 q 1133 337 1129 379 q 1138 265 1138 294 q 1111 129 1138 183 q 1022 43 1085 75 q 853 -3 958 11 q 589 -17 747 -17 m 682 689 q 631 708 650 689 q 611 768 611 726 q 631 827 611 808 q 682 846 650 846 l 701 846 q 753 827 733 846 q 772 768 772 808 q 753 708 772 726 q 701 689 733 689 l 682 689 m 583 508 q 533 527 553 508 q 514 586 514 546 q 533 645 514 626 q 583 664 553 664 l 604 664 q 653 645 635 664 q 672 586 672 626 q 653 527 672 546 q 604 508 635 508 l 583 508 m 485 689 q 435 708 454 689 q 415 768 415 726 q 435 827 415 808 q 485 846 454 846 l 506 846 q 557 827 538 846 q 576 768 576 808 q 557 708 576 726 q 506 689 538 689 l 485 689 z "},"ث":{"ha":1192,"x_min":58,"x_max":1138,"o":"m 589 -17 q 339 -1 440 -17 q 175 51 238 15 q 85 144 113 86 q 58 285 58 201 q 115 533 58 396 l 222 501 q 182 399 196 446 q 168 313 168 353 q 245 194 168 231 q 497 157 322 157 l 692 157 q 851 162 788 157 q 951 179 914 167 q 1005 213 989 192 q 1021 265 1021 233 q 1018 322 1021 288 q 1004 413 1015 356 l 982 533 l 1103 553 l 1122 432 q 1133 337 1129 379 q 1138 265 1138 294 q 1111 129 1138 183 q 1022 43 1085 75 q 853 -3 958 11 q 589 -17 747 -17 m 682 508 q 631 528 650 508 q 611 588 611 547 q 631 648 611 629 q 682 667 650 667 l 701 667 q 753 648 733 667 q 772 588 772 629 q 753 528 772 547 q 701 508 733 508 l 682 508 m 485 508 q 434 528 453 508 q 415 588 415 547 q 434 648 415 629 q 485 667 453 667 l 506 667 q 557 648 538 667 q 576 588 576 629 q 557 528 576 547 q 506 508 538 508 l 485 508 m 583 692 q 533 710 553 692 q 514 769 514 729 q 533 828 514 810 q 583 846 553 846 l 604 846 q 653 828 635 846 q 672 769 672 810 q 653 710 672 729 q 604 692 635 692 l 583 692 z "},"ﺙ":{"ha":1192,"x_min":58,"x_max":1138,"o":"m 589 -17 q 339 -1 440 -17 q 175 51 238 15 q 85 144 113 86 q 58 285 58 201 q 115 533 58 396 l 222 501 q 182 399 196 446 q 168 313 168 353 q 245 194 168 231 q 497 157 322 157 l 692 157 q 851 162 788 157 q 951 179 914 167 q 1005 213 989 192 q 1021 265 1021 233 q 1018 322 1021 288 q 1004 413 1015 356 l 982 533 l 1103 553 l 1122 432 q 1133 337 1129 379 q 1138 265 1138 294 q 1111 129 1138 183 q 1022 43 1085 75 q 853 -3 958 11 q 589 -17 747 -17 m 682 508 q 631 528 650 508 q 611 588 611 547 q 631 648 611 629 q 682 667 650 667 l 701 667 q 753 648 733 667 q 772 588 772 629 q 753 528 772 547 q 701 508 733 508 l 682 508 m 485 508 q 434 528 453 508 q 415 588 415 547 q 434 648 415 629 q 485 667 453 667 l 506 667 q 557 648 538 667 q 576 588 576 629 q 557 528 576 547 q 506 508 538 508 l 485 508 m 583 692 q 533 710 553 692 q 514 769 514 729 q 533 828 514 810 q 583 846 553 846 l 604 846 q 653 828 635 846 q 672 769 672 810 q 653 710 672 729 q 604 692 635 692 l 583 692 z "},"ٹ":{"ha":1192,"x_min":58,"x_max":1138,"o":"m 589 -17 q 339 -1 440 -17 q 175 51 238 15 q 85 144 113 86 q 58 285 58 201 q 115 533 58 396 l 222 501 q 182 399 196 446 q 168 313 168 353 q 245 194 168 231 q 497 157 322 157 l 692 157 q 851 162 788 157 q 951 179 914 167 q 1005 213 989 192 q 1021 265 1021 233 q 1018 322 1021 288 q 1004 413 1015 356 l 982 533 l 1103 553 l 1122 432 q 1133 337 1129 379 q 1138 265 1138 294 q 1111 129 1138 183 q 1022 43 1085 75 q 853 -3 958 11 q 589 -17 747 -17 m 415 575 l 457 575 l 469 597 l 469 849 l 550 849 l 550 708 q 587 726 565 719 q 638 733 608 733 q 733 697 701 733 q 765 606 765 661 q 726 506 765 532 q 628 479 688 479 l 415 479 l 415 575 m 521 578 l 522 575 l 628 575 q 683 581 664 575 q 703 606 703 586 q 686 630 703 622 q 646 638 669 638 l 625 638 q 565 628 583 638 q 531 596 546 619 l 521 578 z "},"ٺ":{"ha":1192,"x_min":58,"x_max":1138,"o":"m 589 -17 q 339 -1 440 -17 q 175 51 238 15 q 85 144 113 86 q 58 285 58 201 q 115 533 58 396 l 222 501 q 182 399 196 446 q 168 313 168 353 q 245 194 168 231 q 497 157 322 157 l 692 157 q 851 162 788 157 q 951 179 914 167 q 1005 213 989 192 q 1021 265 1021 233 q 1018 322 1021 288 q 1004 413 1015 356 l 982 533 l 1103 553 l 1122 432 q 1133 337 1129 379 q 1138 265 1138 294 q 1111 129 1138 183 q 1022 43 1085 75 q 853 -3 958 11 q 589 -17 747 -17 m 583 508 q 533 528 551 508 q 514 588 514 547 q 533 648 514 629 q 583 667 551 667 l 604 667 q 656 648 636 667 q 675 588 675 629 q 656 528 675 547 q 604 508 636 508 l 583 508 m 583 703 q 533 722 551 703 q 514 781 514 740 q 533 841 514 822 q 583 860 551 860 l 604 860 q 656 841 636 860 q 675 781 675 822 q 656 722 675 740 q 604 703 636 703 l 583 703 z "},"ٿ":{"ha":1192,"x_min":58,"x_max":1138,"o":"m 589 -17 q 339 -1 440 -17 q 175 51 238 15 q 85 144 113 86 q 58 285 58 201 q 115 533 58 396 l 222 501 q 182 399 196 446 q 168 313 168 353 q 245 194 168 231 q 497 157 322 157 l 692 157 q 851 162 788 157 q 951 179 914 167 q 1005 213 989 192 q 1021 265 1021 233 q 1018 322 1021 288 q 1004 413 1015 356 l 982 533 l 1103 553 l 1122 432 q 1133 337 1129 379 q 1138 265 1138 294 q 1111 129 1138 183 q 1022 43 1085 75 q 853 -3 958 11 q 589 -17 747 -17 m 681 508 q 630 528 649 508 q 611 588 611 547 q 630 648 611 629 q 681 667 649 667 l 701 667 q 753 648 733 667 q 772 588 772 629 q 753 528 772 547 q 701 508 733 508 l 681 508 m 681 703 q 630 722 649 703 q 611 781 611 740 q 630 841 611 822 q 681 860 649 860 l 701 860 q 753 841 733 860 q 772 781 772 822 q 753 722 772 740 q 701 703 733 703 l 681 703 m 485 508 q 434 528 453 508 q 415 588 415 547 q 434 648 415 629 q 485 667 453 667 l 506 667 q 557 648 538 667 q 576 588 576 629 q 557 528 576 547 q 506 508 538 508 l 485 508 m 485 703 q 434 722 453 703 q 415 781 415 740 q 434 841 415 822 q 485 860 453 860 l 506 860 q 557 841 538 860 q 576 781 576 822 q 557 722 576 740 q 506 703 538 703 l 485 703 z "},"ݐ":{"ha":1192,"x_min":58,"x_max":1138,"o":"m 589 -17 q 339 -1 440 -17 q 175 51 238 15 q 85 144 113 86 q 58 285 58 201 q 115 533 58 396 l 222 501 q 182 399 196 446 q 168 313 168 353 q 245 194 168 231 q 497 157 322 157 l 692 157 q 851 162 788 157 q 951 179 914 167 q 1005 213 989 192 q 1021 265 1021 233 q 1018 322 1021 288 q 1004 413 1015 356 l 982 533 l 1103 553 l 1122 432 q 1133 337 1129 379 q 1138 265 1138 294 q 1111 129 1138 183 q 1022 43 1085 75 q 853 -3 958 11 q 589 -17 747 -17 m 778 -287 q 727 -268 746 -287 q 708 -208 708 -249 q 727 -148 708 -167 q 778 -129 746 -129 l 799 -129 q 850 -148 831 -129 q 869 -208 869 -167 q 850 -268 869 -249 q 799 -287 831 -287 l 778 -287 m 582 -287 q 531 -268 550 -287 q 513 -208 513 -249 q 531 -148 513 -167 q 582 -129 550 -129 l 603 -129 q 654 -148 635 -129 q 674 -208 674 -167 q 654 -268 674 -249 q 603 -287 635 -287 l 582 -287 m 386 -287 q 335 -268 354 -287 q 317 -208 317 -249 q 335 -148 317 -167 q 386 -129 354 -129 l 407 -129 q 458 -148 439 -129 q 478 -208 478 -167 q 458 -268 478 -249 q 407 -287 439 -287 l 386 -287 z "},"ݑ":{"ha":1192,"x_min":58,"x_max":1138,"o":"m 589 -17 q 339 -1 440 -17 q 175 51 238 15 q 85 144 113 86 q 58 285 58 201 q 115 533 58 396 l 222 501 q 182 399 196 446 q 168 313 168 353 q 245 194 168 231 q 497 157 322 157 l 692 157 q 851 162 788 157 q 951 179 914 167 q 1005 213 989 192 q 1021 265 1021 233 q 1018 322 1021 288 q 1004 413 1015 356 l 982 533 l 1103 553 l 1122 432 q 1133 337 1129 379 q 1138 265 1138 294 q 1111 129 1138 183 q 1022 43 1085 75 q 853 -3 958 11 q 589 -17 747 -17 m 582 -287 q 531 -268 550 -287 q 513 -208 513 -249 q 531 -148 513 -167 q 582 -129 550 -129 l 603 -129 q 654 -148 635 -129 q 674 -208 674 -167 q 654 -268 674 -249 q 603 -287 635 -287 l 582 -287 m 682 508 q 631 528 650 508 q 611 588 611 547 q 631 648 611 629 q 682 667 650 667 l 701 667 q 753 648 733 667 q 772 588 772 629 q 753 528 772 547 q 701 508 733 508 l 682 508 m 485 508 q 434 528 453 508 q 415 588 415 547 q 434 648 415 629 q 485 667 453 667 l 506 667 q 557 648 538 667 q 576 588 576 629 q 557 528 576 547 q 506 508 538 508 l 485 508 m 583 692 q 533 710 553 692 q 514 769 514 729 q 533 828 514 810 q 583 846 553 846 l 604 846 q 653 828 635 846 q 672 769 672 810 q 653 710 672 729 q 604 692 635 692 l 583 692 z "},"ݒ":{"ha":1192,"x_min":58,"x_max":1138,"o":"m 589 -17 q 339 -1 440 -17 q 175 51 238 15 q 85 144 113 86 q 58 285 58 201 q 115 533 58 396 l 222 501 q 182 399 196 446 q 168 313 168 353 q 245 194 168 231 q 497 157 322 157 l 692 157 q 851 162 788 157 q 951 179 914 167 q 1005 213 989 192 q 1021 265 1021 233 q 1018 322 1021 288 q 1004 413 1015 356 l 982 533 l 1103 553 l 1122 432 q 1133 337 1129 379 q 1138 265 1138 294 q 1111 129 1138 183 q 1022 43 1085 75 q 853 -3 958 11 q 589 -17 747 -17 m 679 -467 q 628 -447 647 -467 q 608 -387 608 -428 q 628 -327 608 -346 q 679 -308 647 -308 l 699 -308 q 750 -327 731 -308 q 769 -387 769 -346 q 750 -447 769 -428 q 699 -467 731 -467 l 679 -467 m 482 -467 q 431 -447 450 -467 q 413 -387 413 -428 q 431 -327 413 -346 q 482 -308 450 -308 l 503 -308 q 554 -327 535 -308 q 574 -387 574 -346 q 554 -447 574 -428 q 503 -467 535 -467 l 482 -467 m 581 -283 q 531 -265 550 -283 q 511 -206 511 -246 q 531 -147 511 -165 q 581 -129 550 -129 l 601 -129 q 651 -147 632 -129 q 669 -206 669 -165 q 651 -265 669 -246 q 601 -283 632 -283 l 581 -283 z "},"ݓ":{"ha":1192,"x_min":58,"x_max":1138,"o":"m 589 -17 q 339 -1 440 -17 q 175 51 238 15 q 85 144 113 86 q 58 285 58 201 q 115 533 58 396 l 222 501 q 182 399 196 446 q 168 313 168 353 q 245 194 168 231 q 497 157 322 157 l 692 157 q 851 162 788 157 q 951 179 914 167 q 1005 213 989 192 q 1021 265 1021 233 q 1018 322 1021 288 q 1004 413 1015 356 l 982 533 l 1103 553 l 1122 432 q 1133 337 1129 379 q 1138 265 1138 294 q 1111 129 1138 183 q 1022 43 1085 75 q 853 -3 958 11 q 589 -17 747 -17 m 679 -467 q 628 -447 647 -467 q 608 -387 608 -428 q 628 -327 608 -346 q 679 -308 647 -308 l 699 -308 q 750 -327 731 -308 q 769 -387 769 -346 q 750 -447 769 -428 q 699 -467 731 -467 l 679 -467 m 482 -467 q 431 -447 450 -467 q 413 -387 413 -428 q 431 -327 413 -346 q 482 -308 450 -308 l 503 -308 q 554 -327 535 -308 q 574 -387 574 -346 q 554 -447 574 -428 q 503 -467 535 -467 l 482 -467 m 581 -283 q 531 -265 550 -283 q 511 -206 511 -246 q 531 -147 511 -165 q 581 -129 550 -129 l 601 -129 q 651 -147 632 -129 q 669 -206 669 -165 q 651 -265 669 -246 q 601 -283 632 -283 l 581 -283 m 678 508 q 627 528 646 508 q 608 588 608 547 q 627 648 608 629 q 678 667 646 667 l 699 667 q 750 648 731 667 q 769 588 769 629 q 750 528 769 547 q 699 508 731 508 l 678 508 m 482 508 q 431 528 450 508 q 413 588 413 547 q 431 648 413 629 q 482 667 450 667 l 503 667 q 554 648 535 667 q 574 588 574 629 q 554 528 574 547 q 503 508 535 508 l 482 508 z "},"ݔ":{"ha":1192,"x_min":58,"x_max":1138,"o":"m 589 -17 q 339 -1 440 -17 q 175 51 238 15 q 85 144 113 86 q 58 285 58 201 q 115 533 58 396 l 222 501 q 182 399 196 446 q 168 313 168 353 q 245 194 168 231 q 497 157 322 157 l 692 157 q 851 162 788 157 q 951 179 914 167 q 1005 213 989 192 q 1021 265 1021 233 q 1018 322 1021 288 q 1004 413 1015 356 l 982 533 l 1103 553 l 1122 432 q 1133 337 1129 379 q 1138 265 1138 294 q 1111 129 1138 183 q 1022 43 1085 75 q 853 -3 958 11 q 589 -17 747 -17 m 681 -287 q 630 -268 649 -287 q 611 -208 611 -249 q 630 -148 611 -167 q 681 -129 649 -129 l 701 -129 q 753 -148 733 -129 q 772 -208 772 -167 q 753 -268 772 -249 q 701 -287 733 -287 l 681 -287 m 485 -287 q 434 -268 453 -287 q 415 -208 415 -249 q 434 -148 415 -167 q 485 -129 453 -129 l 506 -129 q 557 -148 538 -129 q 576 -208 576 -167 q 557 -268 576 -249 q 506 -287 538 -287 l 485 -287 m 582 508 q 531 528 550 508 q 513 588 513 547 q 531 648 513 629 q 582 667 550 667 l 603 667 q 654 648 635 667 q 674 588 674 629 q 654 528 674 547 q 603 508 635 508 l 582 508 z "},"ݕ":{"ha":1192,"x_min":58,"x_max":1138,"o":"m 589 -17 q 339 -1 440 -17 q 175 51 238 15 q 85 144 113 86 q 58 285 58 201 q 115 533 58 396 l 222 501 q 182 399 196 446 q 168 313 168 353 q 245 194 168 231 q 497 157 322 157 l 692 157 q 851 162 788 157 q 951 179 914 167 q 1005 213 989 192 q 1021 265 1021 233 q 1018 322 1021 288 q 1004 413 1015 356 l 982 533 l 1103 553 l 1122 432 q 1133 337 1129 379 q 1138 265 1138 294 q 1111 129 1138 183 q 1022 43 1085 75 q 853 -3 958 11 q 589 -17 747 -17 m 767 -394 l 656 -394 l 588 -203 l 586 -203 l 518 -394 l 419 -394 l 533 -106 l 656 -106 l 767 -394 z "},"ݖ":{"ha":1192,"x_min":58,"x_max":1138,"o":"m 589 -17 q 339 -1 440 -17 q 175 51 238 15 q 85 144 113 86 q 58 285 58 201 q 115 533 58 396 l 222 501 q 182 399 196 446 q 168 313 168 353 q 245 194 168 231 q 497 157 322 157 l 692 157 q 851 162 788 157 q 951 179 914 167 q 1005 213 989 192 q 1021 265 1021 233 q 1018 322 1021 288 q 1004 413 1015 356 l 982 533 l 1103 553 l 1122 432 q 1133 337 1129 379 q 1138 265 1138 294 q 1111 129 1138 183 q 1022 43 1085 75 q 853 -3 958 11 q 589 -17 747 -17 m 419 768 l 531 768 l 599 578 l 601 578 l 668 768 l 767 768 l 654 479 l 531 479 l 419 768 z "},"ࢠ":{"ha":1192,"x_min":58,"x_max":1138,"o":"m 589 -17 q 339 -1 440 -17 q 175 51 238 15 q 85 144 113 86 q 58 285 58 201 q 115 533 58 396 l 222 501 q 182 399 196 446 q 168 313 168 353 q 245 194 168 231 q 497 157 322 157 l 692 157 q 851 162 788 157 q 951 179 914 167 q 1005 213 989 192 q 1021 265 1021 233 q 1018 322 1021 288 q 1004 413 1015 356 l 982 533 l 1103 553 l 1122 432 q 1133 337 1129 379 q 1138 265 1138 294 q 1111 129 1138 183 q 1022 43 1085 75 q 853 -3 958 11 q 589 -17 747 -17 m 419 -106 l 531 -106 l 599 -296 l 601 -296 l 668 -106 l 767 -106 l 654 -394 l 531 -394 l 419 -106 z "},"ټ":{"ha":1192,"x_min":58,"x_max":1138,"o":"m 607 -232 q 549 -220 575 -232 q 503 -188 522 -208 q 472 -140 483 -168 q 461 -81 461 -112 q 475 -14 461 -42 q 281 11 360 -8 q 152 66 201 31 q 81 156 103 101 q 58 285 58 210 q 115 533 58 396 l 222 501 q 182 399 196 446 q 168 313 168 353 q 245 194 168 231 q 497 157 322 157 l 692 157 q 851 162 788 157 q 951 179 914 167 q 1005 213 989 192 q 1021 265 1021 233 q 1018 322 1021 288 q 1004 413 1015 356 l 982 533 l 1103 553 l 1122 432 q 1133 337 1129 379 q 1138 265 1138 294 q 1118 144 1138 194 q 1052 61 1099 94 q 928 10 1006 28 q 738 -12 851 -7 q 748 -44 744 -28 q 751 -81 751 -61 q 710 -189 751 -146 q 607 -232 669 -232 m 482 508 q 431 528 450 508 q 413 588 413 547 q 431 648 413 629 q 482 667 450 667 l 503 667 q 554 648 535 667 q 574 588 574 629 q 554 528 574 547 q 503 508 535 508 l 482 508 m 678 508 q 627 528 646 508 q 608 588 608 547 q 627 648 608 629 q 678 667 646 667 l 699 667 q 750 648 731 667 q 769 588 769 629 q 750 528 769 547 q 699 508 731 508 l 678 508 m 607 -144 q 656 -126 636 -144 q 676 -81 676 -108 q 656 -35 676 -53 q 607 -17 636 -17 q 556 -35 576 -17 q 536 -81 536 -53 q 556 -126 536 -108 q 607 -144 576 -144 z "},"ﮟ":{"ha":1008,"x_min":53,"x_max":1008,"o":"m 457 -333 q 158 -239 263 -333 q 53 28 53 -144 q 70 165 53 90 q 118 313 88 240 l 224 281 q 181 164 197 224 q 164 56 164 104 q 229 -108 164 -50 q 410 -165 294 -165 l 506 -165 q 703 -109 640 -165 q 767 69 767 -53 q 760 159 767 108 q 739 276 753 210 l 713 397 l 833 421 l 856 301 q 869 224 863 260 q 878 157 875 189 l 1008 157 l 1008 33 l 975 0 l 879 0 q 761 -252 864 -171 q 457 -333 658 -333 z "},"ﻦ":{"ha":1008,"x_min":53,"x_max":1008,"o":"m 457 -333 q 158 -239 263 -333 q 53 28 53 -144 q 70 165 53 90 q 118 313 88 240 l 224 281 q 181 164 197 224 q 164 56 164 104 q 229 -108 164 -50 q 410 -165 294 -165 l 506 -165 q 703 -109 640 -165 q 767 69 767 -53 q 760 159 767 108 q 739 276 753 210 l 713 397 l 833 421 l 856 301 q 869 224 863 260 q 878 157 875 189 l 1008 157 l 1008 33 l 975 0 l 879 0 q 761 -252 864 -171 q 457 -333 658 -333 m 463 424 q 412 443 431 424 q 393 503 393 463 q 412 563 393 544 q 463 582 431 582 l 483 582 q 535 563 515 582 q 554 503 554 544 q 535 443 554 463 q 483 424 515 424 l 463 424 z "},"ﮡ":{"ha":1008,"x_min":53,"x_max":1008,"o":"m 457 -333 q 158 -239 263 -333 q 53 28 53 -144 q 70 165 53 90 q 118 313 88 240 l 224 281 q 181 164 197 224 q 164 56 164 104 q 229 -108 164 -50 q 410 -165 294 -165 l 506 -165 q 703 -109 640 -165 q 767 69 767 -53 q 760 159 767 108 q 739 276 753 210 l 713 397 l 833 421 l 856 301 q 869 224 863 260 q 878 157 875 189 l 1008 157 l 1008 33 l 975 0 l 879 0 q 761 -252 864 -171 q 457 -333 658 -333 m 296 489 l 338 489 l 350 511 l 350 763 l 431 763 l 431 622 q 467 640 446 633 q 518 647 489 647 q 614 611 582 647 q 646 519 646 575 q 607 419 646 446 q 508 393 568 393 l 296 393 l 296 489 m 401 492 l 403 489 l 508 489 q 564 494 544 489 q 583 519 583 500 q 567 544 583 536 q 526 551 550 551 l 506 551 q 445 542 464 551 q 411 510 426 533 l 401 492 z "},"ﺐ":{"ha":1304,"x_min":58,"x_max":1304,"o":"m 589 -17 q 339 -1 440 -17 q 175 51 238 15 q 85 144 113 86 q 58 285 58 201 q 115 533 58 396 l 222 501 q 182 399 196 446 q 168 313 168 353 q 245 189 168 226 q 497 151 322 151 l 692 151 q 856 156 792 151 q 956 174 919 161 q 1008 210 993 188 q 1022 267 1022 232 l 1022 478 l 1143 478 l 1143 267 q 1258 157 1143 157 l 1304 157 l 1304 33 l 1271 0 q 1036 161 1072 0 l 1029 161 q 994 76 1019 110 q 917 21 968 42 q 787 -8 867 0 q 589 -17 707 -17 m 582 -287 q 531 -268 550 -287 q 513 -208 513 -249 q 531 -148 513 -167 q 582 -129 550 -129 l 603 -129 q 654 -148 635 -129 q 674 -208 674 -167 q 654 -268 674 -249 q 603 -287 635 -287 l 582 -287 z "},"ﭗ":{"ha":1304,"x_min":58,"x_max":1304,"o":"m 589 -17 q 339 -1 440 -17 q 175 51 238 15 q 85 144 113 86 q 58 285 58 201 q 115 533 58 396 l 222 501 q 182 399 196 446 q 168 313 168 353 q 245 189 168 226 q 497 151 322 151 l 692 151 q 856 156 792 151 q 956 174 919 161 q 1008 210 993 188 q 1022 267 1022 232 l 1022 478 l 1143 478 l 1143 267 q 1258 157 1143 157 l 1304 157 l 1304 33 l 1271 0 q 1036 161 1072 0 l 1029 161 q 994 76 1019 110 q 917 21 968 42 q 787 -8 867 0 q 589 -17 707 -17 m 679 -286 q 628 -267 647 -286 q 608 -207 608 -249 q 628 -148 608 -167 q 679 -129 647 -129 l 699 -129 q 750 -148 731 -129 q 769 -207 769 -167 q 750 -267 769 -249 q 699 -286 731 -286 l 679 -286 m 581 -467 q 531 -448 550 -467 q 511 -389 511 -429 q 531 -330 511 -349 q 581 -311 550 -311 l 601 -311 q 651 -330 632 -311 q 669 -389 669 -349 q 651 -448 669 -429 q 601 -467 632 -467 l 581 -467 m 482 -286 q 432 -267 451 -286 q 413 -207 413 -249 q 432 -148 413 -167 q 482 -129 451 -129 l 503 -129 q 554 -148 535 -129 q 574 -207 574 -167 q 554 -267 574 -249 q 503 -286 535 -286 l 482 -286 z "},"ﭓ":{"ha":1304,"x_min":58,"x_max":1304,"o":"m 589 -17 q 339 -1 440 -17 q 175 51 238 15 q 85 144 113 86 q 58 285 58 201 q 115 533 58 396 l 222 501 q 182 399 196 446 q 168 313 168 353 q 245 189 168 226 q 497 151 322 151 l 692 151 q 856 156 792 151 q 956 174 919 161 q 1008 210 993 188 q 1022 267 1022 232 l 1022 478 l 1143 478 l 1143 267 q 1258 157 1143 157 l 1304 157 l 1304 33 l 1271 0 q 1036 161 1072 0 l 1029 161 q 994 76 1019 110 q 917 21 968 42 q 787 -8 867 0 q 589 -17 707 -17 m 583 -422 q 533 -403 551 -422 q 514 -343 514 -383 q 533 -283 514 -301 q 583 -264 551 -264 l 604 -264 q 656 -283 636 -264 q 675 -343 675 -301 q 656 -403 675 -383 q 604 -422 636 -422 l 583 -422 m 583 -228 q 533 -209 551 -228 q 514 -150 514 -190 q 533 -90 514 -108 q 583 -71 551 -71 l 604 -71 q 656 -90 636 -71 q 675 -150 675 -108 q 656 -209 675 -190 q 604 -228 636 -228 l 583 -228 z "},"ﭛ":{"ha":1304,"x_min":58,"x_max":1304,"o":"m 589 -17 q 339 -1 440 -17 q 175 51 238 15 q 85 144 113 86 q 58 285 58 201 q 115 533 58 396 l 222 501 q 182 399 196 446 q 168 313 168 353 q 245 189 168 226 q 497 151 322 151 l 692 151 q 856 156 792 151 q 956 174 919 161 q 1008 210 993 188 q 1022 267 1022 232 l 1022 478 l 1143 478 l 1143 267 q 1258 157 1143 157 l 1304 157 l 1304 33 l 1271 0 q 1036 161 1072 0 l 1029 161 q 994 76 1019 110 q 917 21 968 42 q 787 -8 867 0 q 589 -17 707 -17 m 681 -422 q 630 -403 649 -422 q 611 -343 611 -383 q 630 -283 611 -301 q 681 -264 649 -264 l 701 -264 q 753 -283 733 -264 q 772 -343 772 -301 q 753 -403 772 -383 q 701 -422 733 -422 l 681 -422 m 681 -228 q 630 -209 649 -228 q 611 -150 611 -190 q 630 -90 611 -108 q 681 -71 649 -71 l 701 -71 q 753 -90 733 -71 q 772 -150 772 -108 q 753 -209 772 -190 q 701 -228 733 -228 l 681 -228 m 485 -422 q 434 -403 453 -422 q 415 -343 415 -383 q 434 -283 415 -301 q 485 -264 453 -264 l 506 -264 q 557 -283 538 -264 q 576 -343 576 -301 q 557 -403 576 -383 q 506 -422 538 -422 l 485 -422 m 485 -228 q 434 -209 453 -228 q 415 -150 415 -190 q 434 -90 415 -108 q 485 -71 453 -71 l 506 -71 q 557 -90 538 -71 q 576 -150 576 -108 q 557 -209 576 -190 q 506 -228 538 -228 l 485 -228 z "},"ﺖ":{"ha":1304,"x_min":58,"x_max":1304,"o":"m 589 -17 q 339 -1 440 -17 q 175 51 238 15 q 85 144 113 86 q 58 285 58 201 q 115 533 58 396 l 222 501 q 182 399 196 446 q 168 313 168 353 q 245 189 168 226 q 497 151 322 151 l 692 151 q 856 156 792 151 q 956 174 919 161 q 1008 210 993 188 q 1022 267 1022 232 l 1022 478 l 1143 478 l 1143 267 q 1258 157 1143 157 l 1304 157 l 1304 33 l 1271 0 q 1036 161 1072 0 l 1029 161 q 994 76 1019 110 q 917 21 968 42 q 787 -8 867 0 q 589 -17 707 -17 m 678 508 q 627 528 646 508 q 608 588 608 547 q 627 648 608 629 q 678 667 646 667 l 699 667 q 750 648 731 667 q 769 588 769 629 q 750 528 769 547 q 699 508 731 508 l 678 508 m 482 508 q 431 528 450 508 q 413 588 413 547 q 431 648 413 629 q 482 667 450 667 l 503 667 q 554 648 535 667 q 574 588 574 629 q 554 528 574 547 q 503 508 535 508 l 482 508 z "},"ﺚ":{"ha":1304,"x_min":58,"x_max":1304,"o":"m 589 -17 q 339 -1 440 -17 q 175 51 238 15 q 85 144 113 86 q 58 285 58 201 q 115 533 58 396 l 222 501 q 182 399 196 446 q 168 313 168 353 q 245 189 168 226 q 497 151 322 151 l 692 151 q 856 156 792 151 q 956 174 919 161 q 1008 210 993 188 q 1022 267 1022 232 l 1022 478 l 1143 478 l 1143 267 q 1258 157 1143 157 l 1304 157 l 1304 33 l 1271 0 q 1036 161 1072 0 l 1029 161 q 994 76 1019 110 q 917 21 968 42 q 787 -8 867 0 q 589 -17 707 -17 m 682 508 q 631 528 650 508 q 611 588 611 547 q 631 648 611 629 q 682 667 650 667 l 701 667 q 753 648 733 667 q 772 588 772 629 q 753 528 772 547 q 701 508 733 508 l 682 508 m 485 508 q 434 528 453 508 q 415 588 415 547 q 434 648 415 629 q 485 667 453 667 l 506 667 q 557 648 538 667 q 576 588 576 629 q 557 528 576 547 q 506 508 538 508 l 485 508 m 583 692 q 533 710 553 692 q 514 769 514 729 q 533 828 514 810 q 583 846 553 846 l 604 846 q 653 828 635 846 q 672 769 672 810 q 653 710 672 729 q 604 692 635 692 l 583 692 z "},"ﭧ":{"ha":1304,"x_min":58,"x_max":1304,"o":"m 589 -17 q 339 -1 440 -17 q 175 51 238 15 q 85 144 113 86 q 58 285 58 201 q 115 533 58 396 l 222 501 q 182 399 196 446 q 168 313 168 353 q 245 189 168 226 q 497 151 322 151 l 692 151 q 856 156 792 151 q 956 174 919 161 q 1008 210 993 188 q 1022 267 1022 232 l 1022 478 l 1143 478 l 1143 267 q 1258 157 1143 157 l 1304 157 l 1304 33 l 1271 0 q 1036 161 1072 0 l 1029 161 q 994 76 1019 110 q 917 21 968 42 q 787 -8 867 0 q 589 -17 707 -17 m 415 575 l 457 575 l 469 597 l 469 849 l 550 849 l 550 708 q 587 726 565 719 q 638 733 608 733 q 733 697 701 733 q 765 606 765 661 q 726 506 765 532 q 628 479 688 479 l 415 479 l 415 575 m 521 578 l 522 575 l 628 575 q 683 581 664 575 q 703 606 703 586 q 686 630 703 622 q 646 638 669 638 l 625 638 q 565 628 583 638 q 531 596 546 619 l 521 578 z "},"ﭟ":{"ha":1304,"x_min":58,"x_max":1304,"o":"m 589 -17 q 339 -1 440 -17 q 175 51 238 15 q 85 144 113 86 q 58 285 58 201 q 115 533 58 396 l 222 501 q 182 399 196 446 q 168 313 168 353 q 245 189 168 226 q 497 151 322 151 l 692 151 q 856 156 792 151 q 956 174 919 161 q 1008 210 993 188 q 1022 267 1022 232 l 1022 478 l 1143 478 l 1143 267 q 1258 157 1143 157 l 1304 157 l 1304 33 l 1271 0 q 1036 161 1072 0 l 1029 161 q 994 76 1019 110 q 917 21 968 42 q 787 -8 867 0 q 589 -17 707 -17 m 583 508 q 533 528 551 508 q 514 588 514 547 q 533 648 514 629 q 583 667 551 667 l 604 667 q 656 648 636 667 q 675 588 675 629 q 656 528 675 547 q 604 508 636 508 l 583 508 m 583 703 q 533 722 551 703 q 514 781 514 740 q 533 841 514 822 q 583 860 551 860 l 604 860 q 656 841 636 860 q 675 781 675 822 q 656 722 675 740 q 604 703 636 703 l 583 703 z "},"ﭣ":{"ha":1304,"x_min":58,"x_max":1304,"o":"m 589 -17 q 339 -1 440 -17 q 175 51 238 15 q 85 144 113 86 q 58 285 58 201 q 115 533 58 396 l 222 501 q 182 399 196 446 q 168 313 168 353 q 245 189 168 226 q 497 151 322 151 l 692 151 q 856 156 792 151 q 956 174 919 161 q 1008 210 993 188 q 1022 267 1022 232 l 1022 478 l 1143 478 l 1143 267 q 1258 157 1143 157 l 1304 157 l 1304 33 l 1271 0 q 1036 161 1072 0 l 1029 161 q 994 76 1019 110 q 917 21 968 42 q 787 -8 867 0 q 589 -17 707 -17 m 681 508 q 630 528 649 508 q 611 588 611 547 q 630 648 611 629 q 681 667 649 667 l 701 667 q 753 648 733 667 q 772 588 772 629 q 753 528 772 547 q 701 508 733 508 l 681 508 m 681 703 q 630 722 649 703 q 611 781 611 740 q 630 841 611 822 q 681 860 649 860 l 701 860 q 753 841 733 860 q 772 781 772 822 q 753 722 772 740 q 701 703 733 703 l 681 703 m 485 508 q 434 528 453 508 q 415 588 415 547 q 434 648 415 629 q 485 667 453 667 l 506 667 q 557 648 538 667 q 576 588 576 629 q 557 528 576 547 q 506 508 538 508 l 485 508 m 485 703 q 434 722 453 703 q 415 781 415 740 q 434 841 415 822 q 485 860 453 860 l 506 860 q 557 841 538 860 q 576 781 576 822 q 557 722 576 740 q 506 703 538 703 l 485 703 z "},"ح":{"ha":847,"x_min":42,"x_max":881,"o":"m 456 -422 q 283 -396 360 -422 q 152 -319 206 -369 q 70 -196 99 -268 q 42 -32 42 -124 q 63 92 42 33 q 129 204 83 151 q 249 303 175 257 q 431 386 324 349 l 713 486 l 713 493 l 215 508 l 215 404 l 90 404 l 90 510 q 276 661 90 672 l 811 628 l 811 389 l 475 275 q 335 220 393 247 q 239 161 276 193 q 184 90 201 129 q 167 1 167 51 l 167 -25 q 239 -200 167 -139 q 461 -261 311 -261 q 794 -124 657 -261 l 881 -247 q 456 -422 711 -422 z "},"ﺡ":{"ha":847,"x_min":42,"x_max":881,"o":"m 456 -422 q 283 -396 360 -422 q 152 -319 206 -369 q 70 -196 99 -268 q 42 -32 42 -124 q 63 92 42 33 q 129 204 83 151 q 249 303 175 257 q 431 386 324 349 l 713 486 l 713 493 l 215 508 l 215 404 l 90 404 l 90 510 q 276 661 90 672 l 811 628 l 811 389 l 475 275 q 335 220 393 247 q 239 161 276 193 q 184 90 201 129 q 167 1 167 51 l 167 -25 q 239 -200 167 -139 q 461 -261 311 -261 q 794 -124 657 -261 l 881 -247 q 456 -422 711 -422 z "},"ج":{"ha":847,"x_min":42,"x_max":881,"o":"m 456 -422 q 283 -396 360 -422 q 152 -319 206 -369 q 70 -196 99 -268 q 42 -32 42 -124 q 63 92 42 33 q 129 204 83 151 q 249 303 175 257 q 431 386 324 349 l 713 486 l 713 493 l 215 508 l 215 404 l 90 404 l 90 510 q 276 661 90 672 l 811 628 l 811 389 l 475 275 q 335 220 393 247 q 239 161 276 193 q 184 90 201 129 q 167 1 167 51 l 167 -25 q 239 -200 167 -139 q 461 -261 311 -261 q 794 -124 657 -261 l 881 -247 q 456 -422 711 -422 m 440 -64 q 390 -44 408 -64 q 371 15 371 -25 q 390 76 371 57 q 440 94 408 94 l 461 94 q 513 76 493 94 q 532 15 532 57 q 513 -44 532 -25 q 461 -64 493 -64 l 440 -64 z "},"ﺝ":{"ha":847,"x_min":42,"x_max":881,"o":"m 456 -422 q 283 -396 360 -422 q 152 -319 206 -369 q 70 -196 99 -268 q 42 -32 42 -124 q 63 92 42 33 q 129 204 83 151 q 249 303 175 257 q 431 386 324 349 l 713 486 l 713 493 l 215 508 l 215 404 l 90 404 l 90 510 q 276 661 90 672 l 811 628 l 811 389 l 475 275 q 335 220 393 247 q 239 161 276 193 q 184 90 201 129 q 167 1 167 51 l 167 -25 q 239 -200 167 -139 q 461 -261 311 -261 q 794 -124 657 -261 l 881 -247 q 456 -422 711 -422 m 440 -64 q 390 -44 408 -64 q 371 15 371 -25 q 390 76 371 57 q 440 94 408 94 l 461 94 q 513 76 493 94 q 532 15 532 57 q 513 -44 532 -25 q 461 -64 493 -64 l 440 -64 z "},"چ":{"ha":847,"x_min":42,"x_max":881,"o":"m 456 -422 q 283 -396 360 -422 q 152 -319 206 -369 q 70 -196 99 -268 q 42 -32 42 -124 q 63 92 42 33 q 129 204 83 151 q 249 303 175 257 q 431 386 324 349 l 713 486 l 713 493 l 215 508 l 215 404 l 90 404 l 90 510 q 276 661 90 672 l 811 628 l 811 389 l 475 275 q 335 220 393 247 q 239 161 276 193 q 184 90 201 129 q 167 1 167 51 l 167 -25 q 239 -200 167 -139 q 461 -261 311 -261 q 794 -124 657 -261 l 881 -247 q 456 -422 711 -422 m 531 -3 q 483 14 501 -3 q 465 69 465 31 q 483 124 465 107 q 531 140 501 140 l 547 140 q 594 124 576 140 q 613 69 613 107 q 594 14 613 31 q 547 -3 576 -3 l 531 -3 m 440 -168 q 394 -151 413 -168 q 376 -97 376 -133 q 394 -44 376 -61 q 440 -26 413 -26 l 458 -26 q 503 -44 486 -26 q 521 -97 521 -61 q 503 -151 521 -133 q 458 -168 486 -168 l 440 -168 m 350 -3 q 304 14 322 -3 q 286 69 286 31 q 304 124 286 107 q 350 140 322 140 l 368 140 q 415 124 397 140 q 433 69 433 107 q 415 14 433 31 q 368 -3 397 -3 l 350 -3 z "}}}
